G04 #@! TF.GenerationSoftware,KiCad,Pcbnew,(5.1.10)-1*
G04 #@! TF.CreationDate,2021-10-06T10:46:06+02:00*
G04 #@! TF.ProjectId,OBJEX_Socket-V2.0,4f424a45-585f-4536-9f63-6b65742d5632,rev?*
G04 #@! TF.SameCoordinates,Original*
G04 #@! TF.FileFunction,Copper,L2,Bot*
G04 #@! TF.FilePolarity,Positive*
%FSLAX46Y46*%
G04 Gerber Fmt 4.6, Leading zero omitted, Abs format (unit mm)*
G04 Created by KiCad (PCBNEW (5.1.10)-1) date 2021-10-06 10:46:06*
%MOMM*%
%LPD*%
G01*
G04 APERTURE LIST*
G04 #@! TA.AperFunction,SMDPad,CuDef*
%ADD10R,0.615000X0.180000*%
G04 #@! TD*
G04 #@! TA.AperFunction,SMDPad,CuDef*
%ADD11R,0.400000X0.520000*%
G04 #@! TD*
G04 #@! TA.AperFunction,ComponentPad*
%ADD12O,1.000000X1.000000*%
G04 #@! TD*
G04 #@! TA.AperFunction,ViaPad*
%ADD13C,0.800000*%
G04 #@! TD*
G04 #@! TA.AperFunction,ViaPad*
%ADD14C,0.600000*%
G04 #@! TD*
G04 #@! TA.AperFunction,Conductor*
%ADD15C,0.400000*%
G04 #@! TD*
G04 #@! TA.AperFunction,Conductor*
%ADD16C,0.200000*%
G04 #@! TD*
G04 APERTURE END LIST*
D10*
X151353520Y-88973660D03*
D11*
X151091900Y-88386240D03*
D10*
X151353520Y-89330160D03*
X151353520Y-90030160D03*
X151353520Y-89680160D03*
X151353520Y-91430160D03*
X151353520Y-90730160D03*
X151353520Y-90380160D03*
X151353520Y-91080160D03*
D11*
X151094440Y-92015860D03*
X150431500Y-88386240D03*
X150434040Y-92015860D03*
D10*
X150169880Y-90380160D03*
X150169880Y-91430160D03*
X150169880Y-90730160D03*
X150169880Y-89330160D03*
X150169880Y-88973660D03*
X150169880Y-90030160D03*
X150169880Y-91080160D03*
X150169880Y-89680160D03*
X150195280Y-99890960D03*
X150195280Y-101290960D03*
X150195280Y-100240960D03*
X150195280Y-99184460D03*
X150195280Y-99540960D03*
X150195280Y-100940960D03*
X150195280Y-101640960D03*
X150195280Y-100590960D03*
D11*
X150459440Y-102226660D03*
X150456900Y-98597040D03*
X151119840Y-102226660D03*
D10*
X151378920Y-101290960D03*
X151378920Y-100590960D03*
X151378920Y-100940960D03*
X151378920Y-101640960D03*
X151378920Y-99890960D03*
X151378920Y-100240960D03*
X151378920Y-99540960D03*
D11*
X151117300Y-98597040D03*
D10*
X151378920Y-99184460D03*
X137789920Y-88960960D03*
D11*
X137528300Y-88373540D03*
D10*
X137789920Y-89317460D03*
X137789920Y-90017460D03*
X137789920Y-89667460D03*
X137789920Y-91417460D03*
X137789920Y-90717460D03*
X137789920Y-90367460D03*
X137789920Y-91067460D03*
D11*
X137530840Y-92003160D03*
X136867900Y-88373540D03*
X136870440Y-92003160D03*
D10*
X136606280Y-90367460D03*
X136606280Y-91417460D03*
X136606280Y-90717460D03*
X136606280Y-89317460D03*
X136606280Y-88960960D03*
X136606280Y-90017460D03*
X136606280Y-91067460D03*
X136606280Y-89667460D03*
X137815320Y-99184460D03*
D11*
X137553700Y-98597040D03*
D10*
X137815320Y-99540960D03*
X137815320Y-100240960D03*
X137815320Y-99890960D03*
X137815320Y-101640960D03*
X137815320Y-100940960D03*
X137815320Y-100590960D03*
X137815320Y-101290960D03*
D11*
X137556240Y-102226660D03*
X136893300Y-98597040D03*
X136895840Y-102226660D03*
D10*
X136631680Y-100590960D03*
X136631680Y-101640960D03*
X136631680Y-100940960D03*
X136631680Y-99540960D03*
X136631680Y-99184460D03*
X136631680Y-100240960D03*
X136631680Y-101290960D03*
X136631680Y-99890960D03*
G04 #@! TA.AperFunction,ComponentPad*
G36*
G01*
X135347520Y-88837960D02*
X135347520Y-89337960D01*
G75*
G02*
X135097520Y-89587960I-250000J0D01*
G01*
X134097520Y-89587960D01*
G75*
G02*
X133847520Y-89337960I0J250000D01*
G01*
X133847520Y-88837960D01*
G75*
G02*
X134097520Y-88587960I250000J0D01*
G01*
X135097520Y-88587960D01*
G75*
G02*
X135347520Y-88837960I0J-250000D01*
G01*
G37*
G04 #@! TD.AperFunction*
D12*
X133981520Y-89089560D03*
X133981520Y-90486560D03*
G04 #@! TA.AperFunction,ComponentPad*
G36*
G01*
X135347520Y-90234960D02*
X135347520Y-90734960D01*
G75*
G02*
X135097520Y-90984960I-250000J0D01*
G01*
X134097520Y-90984960D01*
G75*
G02*
X133847520Y-90734960I0J250000D01*
G01*
X133847520Y-90234960D01*
G75*
G02*
X134097520Y-89984960I250000J0D01*
G01*
X135097520Y-89984960D01*
G75*
G02*
X135347520Y-90234960I0J-250000D01*
G01*
G37*
G04 #@! TD.AperFunction*
X133981520Y-91883560D03*
G04 #@! TA.AperFunction,ComponentPad*
G36*
G01*
X135347520Y-91631960D02*
X135347520Y-92131960D01*
G75*
G02*
X135097520Y-92381960I-250000J0D01*
G01*
X134097520Y-92381960D01*
G75*
G02*
X133847520Y-92131960I0J250000D01*
G01*
X133847520Y-91631960D01*
G75*
G02*
X134097520Y-91381960I250000J0D01*
G01*
X135097520Y-91381960D01*
G75*
G02*
X135347520Y-91631960I0J-250000D01*
G01*
G37*
G04 #@! TD.AperFunction*
G04 #@! TA.AperFunction,ComponentPad*
G36*
G01*
X135347520Y-94425960D02*
X135347520Y-94925960D01*
G75*
G02*
X135097520Y-95175960I-250000J0D01*
G01*
X134097520Y-95175960D01*
G75*
G02*
X133847520Y-94925960I0J250000D01*
G01*
X133847520Y-94425960D01*
G75*
G02*
X134097520Y-94175960I250000J0D01*
G01*
X135097520Y-94175960D01*
G75*
G02*
X135347520Y-94425960I0J-250000D01*
G01*
G37*
G04 #@! TD.AperFunction*
X133981520Y-94677560D03*
X133981520Y-93280560D03*
G04 #@! TA.AperFunction,ComponentPad*
G36*
G01*
X135347520Y-93028960D02*
X135347520Y-93528960D01*
G75*
G02*
X135097520Y-93778960I-250000J0D01*
G01*
X134097520Y-93778960D01*
G75*
G02*
X133847520Y-93528960I0J250000D01*
G01*
X133847520Y-93028960D01*
G75*
G02*
X134097520Y-92778960I250000J0D01*
G01*
X135097520Y-92778960D01*
G75*
G02*
X135347520Y-93028960I0J-250000D01*
G01*
G37*
G04 #@! TD.AperFunction*
G04 #@! TA.AperFunction,ComponentPad*
G36*
G01*
X135347520Y-95822960D02*
X135347520Y-96322960D01*
G75*
G02*
X135097520Y-96572960I-250000J0D01*
G01*
X134097520Y-96572960D01*
G75*
G02*
X133847520Y-96322960I0J250000D01*
G01*
X133847520Y-95822960D01*
G75*
G02*
X134097520Y-95572960I250000J0D01*
G01*
X135097520Y-95572960D01*
G75*
G02*
X135347520Y-95822960I0J-250000D01*
G01*
G37*
G04 #@! TD.AperFunction*
X133981520Y-96074560D03*
G04 #@! TA.AperFunction,ComponentPad*
G36*
G01*
X135347520Y-98616960D02*
X135347520Y-99116960D01*
G75*
G02*
X135097520Y-99366960I-250000J0D01*
G01*
X134097520Y-99366960D01*
G75*
G02*
X133847520Y-99116960I0J250000D01*
G01*
X133847520Y-98616960D01*
G75*
G02*
X134097520Y-98366960I250000J0D01*
G01*
X135097520Y-98366960D01*
G75*
G02*
X135347520Y-98616960I0J-250000D01*
G01*
G37*
G04 #@! TD.AperFunction*
X133981520Y-98868560D03*
X133981520Y-97471560D03*
G04 #@! TA.AperFunction,ComponentPad*
G36*
G01*
X135347520Y-97219960D02*
X135347520Y-97719960D01*
G75*
G02*
X135097520Y-97969960I-250000J0D01*
G01*
X134097520Y-97969960D01*
G75*
G02*
X133847520Y-97719960I0J250000D01*
G01*
X133847520Y-97219960D01*
G75*
G02*
X134097520Y-96969960I250000J0D01*
G01*
X135097520Y-96969960D01*
G75*
G02*
X135347520Y-97219960I0J-250000D01*
G01*
G37*
G04 #@! TD.AperFunction*
X133981520Y-101662560D03*
G04 #@! TA.AperFunction,ComponentPad*
G36*
G01*
X135347520Y-100013960D02*
X135347520Y-100513960D01*
G75*
G02*
X135097520Y-100763960I-250000J0D01*
G01*
X134097520Y-100763960D01*
G75*
G02*
X133847520Y-100513960I0J250000D01*
G01*
X133847520Y-100013960D01*
G75*
G02*
X134097520Y-99763960I250000J0D01*
G01*
X135097520Y-99763960D01*
G75*
G02*
X135347520Y-100013960I0J-250000D01*
G01*
G37*
G04 #@! TD.AperFunction*
X133981520Y-104456560D03*
G04 #@! TA.AperFunction,ComponentPad*
G36*
G01*
X135347520Y-104204960D02*
X135347520Y-104704960D01*
G75*
G02*
X135097520Y-104954960I-250000J0D01*
G01*
X134097520Y-104954960D01*
G75*
G02*
X133847520Y-104704960I0J250000D01*
G01*
X133847520Y-104204960D01*
G75*
G02*
X134097520Y-103954960I250000J0D01*
G01*
X135097520Y-103954960D01*
G75*
G02*
X135347520Y-104204960I0J-250000D01*
G01*
G37*
G04 #@! TD.AperFunction*
X133981520Y-100265560D03*
X133981520Y-103059560D03*
G04 #@! TA.AperFunction,ComponentPad*
G36*
G01*
X135347520Y-102807960D02*
X135347520Y-103307960D01*
G75*
G02*
X135097520Y-103557960I-250000J0D01*
G01*
X134097520Y-103557960D01*
G75*
G02*
X133847520Y-103307960I0J250000D01*
G01*
X133847520Y-102807960D01*
G75*
G02*
X134097520Y-102557960I250000J0D01*
G01*
X135097520Y-102557960D01*
G75*
G02*
X135347520Y-102807960I0J-250000D01*
G01*
G37*
G04 #@! TD.AperFunction*
G04 #@! TA.AperFunction,ComponentPad*
G36*
G01*
X135347520Y-101410960D02*
X135347520Y-101910960D01*
G75*
G02*
X135097520Y-102160960I-250000J0D01*
G01*
X134097520Y-102160960D01*
G75*
G02*
X133847520Y-101910960I0J250000D01*
G01*
X133847520Y-101410960D01*
G75*
G02*
X134097520Y-101160960I250000J0D01*
G01*
X135097520Y-101160960D01*
G75*
G02*
X135347520Y-101410960I0J-250000D01*
G01*
G37*
G04 #@! TD.AperFunction*
X133981520Y-87692560D03*
G04 #@! TA.AperFunction,ComponentPad*
G36*
G01*
X135347520Y-87440960D02*
X135347520Y-87940960D01*
G75*
G02*
X135097520Y-88190960I-250000J0D01*
G01*
X134097520Y-88190960D01*
G75*
G02*
X133847520Y-87940960I0J250000D01*
G01*
X133847520Y-87440960D01*
G75*
G02*
X134097520Y-87190960I250000J0D01*
G01*
X135097520Y-87190960D01*
G75*
G02*
X135347520Y-87440960I0J-250000D01*
G01*
G37*
G04 #@! TD.AperFunction*
G04 #@! TA.AperFunction,ComponentPad*
G36*
G01*
X154156120Y-87440960D02*
X154156120Y-87940960D01*
G75*
G02*
X153906120Y-88190960I-250000J0D01*
G01*
X152906120Y-88190960D01*
G75*
G02*
X152656120Y-87940960I0J250000D01*
G01*
X152656120Y-87440960D01*
G75*
G02*
X152906120Y-87190960I250000J0D01*
G01*
X153906120Y-87190960D01*
G75*
G02*
X154156120Y-87440960I0J-250000D01*
G01*
G37*
G04 #@! TD.AperFunction*
X154022120Y-103059560D03*
G04 #@! TA.AperFunction,ComponentPad*
G36*
G01*
X154156120Y-95822960D02*
X154156120Y-96322960D01*
G75*
G02*
X153906120Y-96572960I-250000J0D01*
G01*
X152906120Y-96572960D01*
G75*
G02*
X152656120Y-96322960I0J250000D01*
G01*
X152656120Y-95822960D01*
G75*
G02*
X152906120Y-95572960I250000J0D01*
G01*
X153906120Y-95572960D01*
G75*
G02*
X154156120Y-95822960I0J-250000D01*
G01*
G37*
G04 #@! TD.AperFunction*
X154022120Y-90486560D03*
X154022120Y-91883560D03*
G04 #@! TA.AperFunction,ComponentPad*
G36*
G01*
X154156120Y-101410960D02*
X154156120Y-101910960D01*
G75*
G02*
X153906120Y-102160960I-250000J0D01*
G01*
X152906120Y-102160960D01*
G75*
G02*
X152656120Y-101910960I0J250000D01*
G01*
X152656120Y-101410960D01*
G75*
G02*
X152906120Y-101160960I250000J0D01*
G01*
X153906120Y-101160960D01*
G75*
G02*
X154156120Y-101410960I0J-250000D01*
G01*
G37*
G04 #@! TD.AperFunction*
G04 #@! TA.AperFunction,ComponentPad*
G36*
G01*
X154156120Y-104204960D02*
X154156120Y-104704960D01*
G75*
G02*
X153906120Y-104954960I-250000J0D01*
G01*
X152906120Y-104954960D01*
G75*
G02*
X152656120Y-104704960I0J250000D01*
G01*
X152656120Y-104204960D01*
G75*
G02*
X152906120Y-103954960I250000J0D01*
G01*
X153906120Y-103954960D01*
G75*
G02*
X154156120Y-104204960I0J-250000D01*
G01*
G37*
G04 #@! TD.AperFunction*
G04 #@! TA.AperFunction,ComponentPad*
G36*
G01*
X154156120Y-97219960D02*
X154156120Y-97719960D01*
G75*
G02*
X153906120Y-97969960I-250000J0D01*
G01*
X152906120Y-97969960D01*
G75*
G02*
X152656120Y-97719960I0J250000D01*
G01*
X152656120Y-97219960D01*
G75*
G02*
X152906120Y-96969960I250000J0D01*
G01*
X153906120Y-96969960D01*
G75*
G02*
X154156120Y-97219960I0J-250000D01*
G01*
G37*
G04 #@! TD.AperFunction*
G04 #@! TA.AperFunction,ComponentPad*
G36*
G01*
X154156120Y-93028960D02*
X154156120Y-93528960D01*
G75*
G02*
X153906120Y-93778960I-250000J0D01*
G01*
X152906120Y-93778960D01*
G75*
G02*
X152656120Y-93528960I0J250000D01*
G01*
X152656120Y-93028960D01*
G75*
G02*
X152906120Y-92778960I250000J0D01*
G01*
X153906120Y-92778960D01*
G75*
G02*
X154156120Y-93028960I0J-250000D01*
G01*
G37*
G04 #@! TD.AperFunction*
X154022120Y-94677560D03*
X154022120Y-98868560D03*
X154022120Y-100265560D03*
G04 #@! TA.AperFunction,ComponentPad*
G36*
G01*
X154156120Y-88837960D02*
X154156120Y-89337960D01*
G75*
G02*
X153906120Y-89587960I-250000J0D01*
G01*
X152906120Y-89587960D01*
G75*
G02*
X152656120Y-89337960I0J250000D01*
G01*
X152656120Y-88837960D01*
G75*
G02*
X152906120Y-88587960I250000J0D01*
G01*
X153906120Y-88587960D01*
G75*
G02*
X154156120Y-88837960I0J-250000D01*
G01*
G37*
G04 #@! TD.AperFunction*
X154022120Y-104456560D03*
X154022120Y-89089560D03*
G04 #@! TA.AperFunction,ComponentPad*
G36*
G01*
X154156120Y-100013960D02*
X154156120Y-100513960D01*
G75*
G02*
X153906120Y-100763960I-250000J0D01*
G01*
X152906120Y-100763960D01*
G75*
G02*
X152656120Y-100513960I0J250000D01*
G01*
X152656120Y-100013960D01*
G75*
G02*
X152906120Y-99763960I250000J0D01*
G01*
X153906120Y-99763960D01*
G75*
G02*
X154156120Y-100013960I0J-250000D01*
G01*
G37*
G04 #@! TD.AperFunction*
G04 #@! TA.AperFunction,ComponentPad*
G36*
G01*
X154156120Y-102807960D02*
X154156120Y-103307960D01*
G75*
G02*
X153906120Y-103557960I-250000J0D01*
G01*
X152906120Y-103557960D01*
G75*
G02*
X152656120Y-103307960I0J250000D01*
G01*
X152656120Y-102807960D01*
G75*
G02*
X152906120Y-102557960I250000J0D01*
G01*
X153906120Y-102557960D01*
G75*
G02*
X154156120Y-102807960I0J-250000D01*
G01*
G37*
G04 #@! TD.AperFunction*
X154022120Y-97471560D03*
G04 #@! TA.AperFunction,ComponentPad*
G36*
G01*
X154156120Y-94425960D02*
X154156120Y-94925960D01*
G75*
G02*
X153906120Y-95175960I-250000J0D01*
G01*
X152906120Y-95175960D01*
G75*
G02*
X152656120Y-94925960I0J250000D01*
G01*
X152656120Y-94425960D01*
G75*
G02*
X152906120Y-94175960I250000J0D01*
G01*
X153906120Y-94175960D01*
G75*
G02*
X154156120Y-94425960I0J-250000D01*
G01*
G37*
G04 #@! TD.AperFunction*
G04 #@! TA.AperFunction,ComponentPad*
G36*
G01*
X154156120Y-98616960D02*
X154156120Y-99116960D01*
G75*
G02*
X153906120Y-99366960I-250000J0D01*
G01*
X152906120Y-99366960D01*
G75*
G02*
X152656120Y-99116960I0J250000D01*
G01*
X152656120Y-98616960D01*
G75*
G02*
X152906120Y-98366960I250000J0D01*
G01*
X153906120Y-98366960D01*
G75*
G02*
X154156120Y-98616960I0J-250000D01*
G01*
G37*
G04 #@! TD.AperFunction*
X154022120Y-96074560D03*
X154022120Y-93280560D03*
G04 #@! TA.AperFunction,ComponentPad*
G36*
G01*
X154156120Y-90234960D02*
X154156120Y-90734960D01*
G75*
G02*
X153906120Y-90984960I-250000J0D01*
G01*
X152906120Y-90984960D01*
G75*
G02*
X152656120Y-90734960I0J250000D01*
G01*
X152656120Y-90234960D01*
G75*
G02*
X152906120Y-89984960I250000J0D01*
G01*
X153906120Y-89984960D01*
G75*
G02*
X154156120Y-90234960I0J-250000D01*
G01*
G37*
G04 #@! TD.AperFunction*
X154022120Y-101662560D03*
X154022120Y-87692560D03*
G04 #@! TA.AperFunction,ComponentPad*
G36*
G01*
X154156120Y-91631960D02*
X154156120Y-92131960D01*
G75*
G02*
X153906120Y-92381960I-250000J0D01*
G01*
X152906120Y-92381960D01*
G75*
G02*
X152656120Y-92131960I0J250000D01*
G01*
X152656120Y-91631960D01*
G75*
G02*
X152906120Y-91381960I250000J0D01*
G01*
X153906120Y-91381960D01*
G75*
G02*
X154156120Y-91631960I0J-250000D01*
G01*
G37*
G04 #@! TD.AperFunction*
G04 #@! TA.AperFunction,ComponentPad*
G36*
G01*
X135347520Y-86043960D02*
X135347520Y-86543960D01*
G75*
G02*
X135097520Y-86793960I-250000J0D01*
G01*
X134097520Y-86793960D01*
G75*
G02*
X133847520Y-86543960I0J250000D01*
G01*
X133847520Y-86043960D01*
G75*
G02*
X134097520Y-85793960I250000J0D01*
G01*
X135097520Y-85793960D01*
G75*
G02*
X135347520Y-86043960I0J-250000D01*
G01*
G37*
G04 #@! TD.AperFunction*
X133981520Y-86295560D03*
G04 #@! TA.AperFunction,ComponentPad*
G36*
G01*
X154156120Y-86043960D02*
X154156120Y-86543960D01*
G75*
G02*
X153906120Y-86793960I-250000J0D01*
G01*
X152906120Y-86793960D01*
G75*
G02*
X152656120Y-86543960I0J250000D01*
G01*
X152656120Y-86043960D01*
G75*
G02*
X152906120Y-85793960I250000J0D01*
G01*
X153906120Y-85793960D01*
G75*
G02*
X154156120Y-86043960I0J-250000D01*
G01*
G37*
G04 #@! TD.AperFunction*
X154022120Y-86295560D03*
G04 #@! TA.AperFunction,ComponentPad*
G36*
G01*
X137279520Y-86542360D02*
X136779520Y-86542360D01*
G75*
G02*
X136529520Y-86292360I0J250000D01*
G01*
X136529520Y-85292360D01*
G75*
G02*
X136779520Y-85042360I250000J0D01*
G01*
X137279520Y-85042360D01*
G75*
G02*
X137529520Y-85292360I0J-250000D01*
G01*
X137529520Y-86292360D01*
G75*
G02*
X137279520Y-86542360I-250000J0D01*
G01*
G37*
G04 #@! TD.AperFunction*
G04 #@! TA.AperFunction,ComponentPad*
G36*
G01*
X138676520Y-86542360D02*
X138176520Y-86542360D01*
G75*
G02*
X137926520Y-86292360I0J250000D01*
G01*
X137926520Y-85292360D01*
G75*
G02*
X138176520Y-85042360I250000J0D01*
G01*
X138676520Y-85042360D01*
G75*
G02*
X138926520Y-85292360I0J-250000D01*
G01*
X138926520Y-86292360D01*
G75*
G02*
X138676520Y-86542360I-250000J0D01*
G01*
G37*
G04 #@! TD.AperFunction*
G04 #@! TA.AperFunction,ComponentPad*
G36*
G01*
X148455520Y-86542360D02*
X147955520Y-86542360D01*
G75*
G02*
X147705520Y-86292360I0J250000D01*
G01*
X147705520Y-85292360D01*
G75*
G02*
X147955520Y-85042360I250000J0D01*
G01*
X148455520Y-85042360D01*
G75*
G02*
X148705520Y-85292360I0J-250000D01*
G01*
X148705520Y-86292360D01*
G75*
G02*
X148455520Y-86542360I-250000J0D01*
G01*
G37*
G04 #@! TD.AperFunction*
X148203920Y-85176360D03*
X137027920Y-85176360D03*
G04 #@! TA.AperFunction,ComponentPad*
G36*
G01*
X142867520Y-86542360D02*
X142367520Y-86542360D01*
G75*
G02*
X142117520Y-86292360I0J250000D01*
G01*
X142117520Y-85292360D01*
G75*
G02*
X142367520Y-85042360I250000J0D01*
G01*
X142867520Y-85042360D01*
G75*
G02*
X143117520Y-85292360I0J-250000D01*
G01*
X143117520Y-86292360D01*
G75*
G02*
X142867520Y-86542360I-250000J0D01*
G01*
G37*
G04 #@! TD.AperFunction*
X146806920Y-85176360D03*
X145409920Y-85176360D03*
G04 #@! TA.AperFunction,ComponentPad*
G36*
G01*
X140073520Y-86542360D02*
X139573520Y-86542360D01*
G75*
G02*
X139323520Y-86292360I0J250000D01*
G01*
X139323520Y-85292360D01*
G75*
G02*
X139573520Y-85042360I250000J0D01*
G01*
X140073520Y-85042360D01*
G75*
G02*
X140323520Y-85292360I0J-250000D01*
G01*
X140323520Y-86292360D01*
G75*
G02*
X140073520Y-86542360I-250000J0D01*
G01*
G37*
G04 #@! TD.AperFunction*
G04 #@! TA.AperFunction,ComponentPad*
G36*
G01*
X151249520Y-86542360D02*
X150749520Y-86542360D01*
G75*
G02*
X150499520Y-86292360I0J250000D01*
G01*
X150499520Y-85292360D01*
G75*
G02*
X150749520Y-85042360I250000J0D01*
G01*
X151249520Y-85042360D01*
G75*
G02*
X151499520Y-85292360I0J-250000D01*
G01*
X151499520Y-86292360D01*
G75*
G02*
X151249520Y-86542360I-250000J0D01*
G01*
G37*
G04 #@! TD.AperFunction*
X144012920Y-85176360D03*
G04 #@! TA.AperFunction,ComponentPad*
G36*
G01*
X145661520Y-86542360D02*
X145161520Y-86542360D01*
G75*
G02*
X144911520Y-86292360I0J250000D01*
G01*
X144911520Y-85292360D01*
G75*
G02*
X145161520Y-85042360I250000J0D01*
G01*
X145661520Y-85042360D01*
G75*
G02*
X145911520Y-85292360I0J-250000D01*
G01*
X145911520Y-86292360D01*
G75*
G02*
X145661520Y-86542360I-250000J0D01*
G01*
G37*
G04 #@! TD.AperFunction*
G04 #@! TA.AperFunction,ComponentPad*
G36*
G01*
X144264520Y-86542360D02*
X143764520Y-86542360D01*
G75*
G02*
X143514520Y-86292360I0J250000D01*
G01*
X143514520Y-85292360D01*
G75*
G02*
X143764520Y-85042360I250000J0D01*
G01*
X144264520Y-85042360D01*
G75*
G02*
X144514520Y-85292360I0J-250000D01*
G01*
X144514520Y-86292360D01*
G75*
G02*
X144264520Y-86542360I-250000J0D01*
G01*
G37*
G04 #@! TD.AperFunction*
X149600920Y-85176360D03*
X141218920Y-85176360D03*
X150997920Y-85176360D03*
X142615920Y-85176360D03*
X138424920Y-85176360D03*
G04 #@! TA.AperFunction,ComponentPad*
G36*
G01*
X147058520Y-86542360D02*
X146558520Y-86542360D01*
G75*
G02*
X146308520Y-86292360I0J250000D01*
G01*
X146308520Y-85292360D01*
G75*
G02*
X146558520Y-85042360I250000J0D01*
G01*
X147058520Y-85042360D01*
G75*
G02*
X147308520Y-85292360I0J-250000D01*
G01*
X147308520Y-86292360D01*
G75*
G02*
X147058520Y-86542360I-250000J0D01*
G01*
G37*
G04 #@! TD.AperFunction*
G04 #@! TA.AperFunction,ComponentPad*
G36*
G01*
X141470520Y-86542360D02*
X140970520Y-86542360D01*
G75*
G02*
X140720520Y-86292360I0J250000D01*
G01*
X140720520Y-85292360D01*
G75*
G02*
X140970520Y-85042360I250000J0D01*
G01*
X141470520Y-85042360D01*
G75*
G02*
X141720520Y-85292360I0J-250000D01*
G01*
X141720520Y-86292360D01*
G75*
G02*
X141470520Y-86542360I-250000J0D01*
G01*
G37*
G04 #@! TD.AperFunction*
X139821920Y-85176360D03*
G04 #@! TA.AperFunction,ComponentPad*
G36*
G01*
X149852520Y-86542360D02*
X149352520Y-86542360D01*
G75*
G02*
X149102520Y-86292360I0J250000D01*
G01*
X149102520Y-85292360D01*
G75*
G02*
X149352520Y-85042360I250000J0D01*
G01*
X149852520Y-85042360D01*
G75*
G02*
X150102520Y-85292360I0J-250000D01*
G01*
X150102520Y-86292360D01*
G75*
G02*
X149852520Y-86542360I-250000J0D01*
G01*
G37*
G04 #@! TD.AperFunction*
D13*
X150774400Y-87403940D03*
X150815040Y-97596960D03*
X137213340Y-97589340D03*
X137195560Y-87406480D03*
X149481540Y-92687140D03*
X149463760Y-102885240D03*
X138475720Y-92638880D03*
D14*
X149395180Y-88143080D03*
X141053440Y-99890960D03*
X142300960Y-98971100D03*
X139164060Y-90045540D03*
D13*
X138798300Y-102943660D03*
D15*
X137528300Y-88373540D02*
X136867900Y-88373540D01*
X136867900Y-87734140D02*
X137195560Y-87406480D01*
X136867900Y-88373540D02*
X136867900Y-87734140D01*
X137528300Y-87739220D02*
X137195560Y-87406480D01*
X137528300Y-88373540D02*
X137528300Y-87739220D01*
X136893300Y-98597040D02*
X137553700Y-98597040D01*
X136893300Y-97909380D02*
X137213340Y-97589340D01*
X136893300Y-98597040D02*
X136893300Y-97909380D01*
X137553700Y-97929700D02*
X137213340Y-97589340D01*
X137553700Y-98597040D02*
X137553700Y-97929700D01*
X150456900Y-97955100D02*
X150815040Y-97596960D01*
X150456900Y-98597040D02*
X150456900Y-97955100D01*
X151117300Y-97899220D02*
X150815040Y-97596960D01*
X151117300Y-98597040D02*
X151117300Y-97899220D01*
X150456900Y-98597040D02*
X151117300Y-98597040D01*
X150431500Y-88386240D02*
X151091900Y-88386240D01*
X150431500Y-87746840D02*
X150774400Y-87403940D01*
X150431500Y-88386240D02*
X150431500Y-87746840D01*
X151091900Y-87721440D02*
X150774400Y-87403940D01*
X151091900Y-88386240D02*
X151091900Y-87721440D01*
X146494500Y-87523320D02*
X146808520Y-87209300D01*
X146808520Y-87209300D02*
X146808520Y-86192360D01*
X141513560Y-87523320D02*
X146494500Y-87523320D01*
X141220520Y-87230280D02*
X141513560Y-87523320D01*
X141220520Y-86192360D02*
X141220520Y-87230280D01*
X151094440Y-92015860D02*
X150434040Y-92015860D01*
X150434040Y-92015860D02*
X150152820Y-92015860D01*
X150152820Y-92015860D02*
X149481540Y-92687140D01*
X149481540Y-92687140D02*
X149481540Y-92687140D01*
X151119840Y-102226660D02*
X150459440Y-102226660D01*
X150459440Y-102226660D02*
X150122340Y-102226660D01*
X150122340Y-102226660D02*
X149463760Y-102885240D01*
X149463760Y-102885240D02*
X149463760Y-102885240D01*
X136870440Y-92003160D02*
X137530840Y-92003160D01*
X137530840Y-92003160D02*
X137840000Y-92003160D01*
X137840000Y-92003160D02*
X138475720Y-92638880D01*
X138475720Y-92638880D02*
X138475720Y-92638880D01*
D16*
X151353520Y-88973660D02*
X151914860Y-88973660D01*
X151914860Y-88973660D02*
X152191720Y-88696800D01*
X152191720Y-88696800D02*
X152191720Y-87990680D01*
X152491440Y-87690960D02*
X153006120Y-87690960D01*
X152191720Y-87990680D02*
X152491440Y-87690960D01*
X152763920Y-89330160D02*
X153006120Y-89087960D01*
X151353520Y-89330160D02*
X152763920Y-89330160D01*
X152201320Y-89680160D02*
X153006120Y-90484960D01*
X151353520Y-89680160D02*
X152201320Y-89680160D01*
X153006120Y-91881960D02*
X152481280Y-91881960D01*
X152481280Y-91881960D02*
X150919180Y-93444060D01*
X150919180Y-93444060D02*
X148861780Y-93444060D01*
X148861780Y-93444060D02*
X148595080Y-93177360D01*
X149776518Y-91430160D02*
X150169880Y-91430160D01*
X148595080Y-92611598D02*
X149776518Y-91430160D01*
X148595080Y-93177360D02*
X148595080Y-92611598D01*
X149059900Y-94675960D02*
X153006120Y-94675960D01*
X147895060Y-93511120D02*
X149059900Y-94675960D01*
X149465252Y-90730160D02*
X147895060Y-92300352D01*
X150169880Y-90730160D02*
X149465252Y-90730160D01*
X147895060Y-92300352D02*
X147895060Y-93511120D01*
X148932541Y-89313661D02*
X148493480Y-88874600D01*
X148493480Y-88874600D02*
X148493480Y-88165940D01*
X148493480Y-88165940D02*
X149578060Y-87081360D01*
X150110520Y-87081360D02*
X150999520Y-86192360D01*
X149578060Y-87081360D02*
X150110520Y-87081360D01*
X148932541Y-89326361D02*
X148936330Y-89330150D01*
X148932541Y-89313661D02*
X148932541Y-89326361D01*
X150169870Y-89330150D02*
X150169880Y-89330160D01*
X148936330Y-89330150D02*
X150169870Y-89330150D01*
X150047960Y-88973660D02*
X150041480Y-88980140D01*
X150169880Y-88973660D02*
X150047960Y-88973660D01*
X150041480Y-88980140D02*
X149404200Y-88980140D01*
X149404200Y-88980140D02*
X149174200Y-88750140D01*
X149174200Y-88750140D02*
X149174200Y-88364060D01*
X149174200Y-88364060D02*
X149395180Y-88143080D01*
X149395180Y-88143080D02*
X149395180Y-88143080D01*
X147195040Y-93801076D02*
X148769944Y-95375980D01*
X147195040Y-92010396D02*
X147195040Y-93801076D01*
X149175276Y-90030160D02*
X147195040Y-92010396D01*
X150169880Y-90030160D02*
X149175276Y-90030160D01*
X153006120Y-97469960D02*
X152067260Y-97469960D01*
X149973280Y-95375980D02*
X148769944Y-95375980D01*
X152067260Y-97469960D02*
X149973280Y-95375980D01*
X150195280Y-99890960D02*
X141053440Y-99890960D01*
X141053440Y-99890960D02*
X141053440Y-99890960D01*
X134997520Y-104454960D02*
X141678660Y-104454960D01*
X145892660Y-100240960D02*
X150195280Y-100240960D01*
X141678660Y-104454960D02*
X145892660Y-100240960D01*
X150162260Y-99184460D02*
X150152251Y-99174451D01*
X150195280Y-99184460D02*
X150162260Y-99184460D01*
X150152251Y-99174451D02*
X149103231Y-99174451D01*
X149103231Y-99174451D02*
X146502120Y-96573340D01*
X146502120Y-96573340D02*
X146502120Y-88793320D01*
X148205520Y-87089920D02*
X148205520Y-86192360D01*
X146502120Y-88793320D02*
X148205520Y-87089920D01*
X149864721Y-99524461D02*
X143649341Y-99524461D01*
X149881220Y-99540960D02*
X149864721Y-99524461D01*
X150195280Y-99540960D02*
X149881220Y-99540960D01*
X143649341Y-99524461D02*
X143095980Y-98971100D01*
X143095980Y-98971100D02*
X142300960Y-98971100D01*
X142300960Y-98971100D02*
X142300960Y-98971100D01*
X153006120Y-104454960D02*
X147932140Y-104454960D01*
X147932140Y-104454960D02*
X147459700Y-103982520D01*
X147459700Y-103982520D02*
X147459700Y-101594920D01*
X148113660Y-100940960D02*
X150195280Y-100940960D01*
X147459700Y-101594920D02*
X148113660Y-100940960D01*
X153006120Y-103057960D02*
X152410160Y-103057960D01*
X152410160Y-103057960D02*
X151594820Y-103873300D01*
X151594820Y-103873300D02*
X148630640Y-103873300D01*
X148630640Y-103873300D02*
X148125180Y-103367840D01*
X148125180Y-103367840D02*
X148125180Y-102100380D01*
X148584600Y-101640960D02*
X150195280Y-101640960D01*
X148125180Y-102100380D02*
X148584600Y-101640960D01*
X151378920Y-101290960D02*
X152119760Y-101290960D01*
X153006120Y-100404600D02*
X153006120Y-100263960D01*
X152119760Y-101290960D02*
X153006120Y-100404600D01*
X152986120Y-101640960D02*
X153006120Y-101660960D01*
X151378920Y-101640960D02*
X152986120Y-101640960D01*
X138329728Y-89317460D02*
X137789920Y-89317460D01*
X139823520Y-87823668D02*
X138329728Y-89317460D01*
X139823520Y-86192360D02*
X139823520Y-87823668D01*
X134997520Y-91881960D02*
X135397240Y-91881960D01*
X135397240Y-91881960D02*
X135912860Y-92397580D01*
X135912860Y-92397580D02*
X135912860Y-92913200D01*
X135912860Y-92913200D02*
X136563100Y-93563440D01*
X136563100Y-93563440D02*
X139037060Y-93563440D01*
X139037060Y-93563440D02*
X139539980Y-93060520D01*
X139539980Y-93060520D02*
X139539980Y-91592400D01*
X139015040Y-91067460D02*
X137789920Y-91067460D01*
X139539980Y-91592400D02*
X139015040Y-91067460D01*
X135017520Y-101640960D02*
X134997520Y-101660960D01*
X136631680Y-101640960D02*
X135017520Y-101640960D01*
X135732520Y-87690960D02*
X135811260Y-87769700D01*
X134997520Y-87690960D02*
X135732520Y-87690960D01*
X136115278Y-89317460D02*
X136606280Y-89317460D01*
X135811260Y-89013442D02*
X136115278Y-89317460D01*
X135811260Y-87769700D02*
X135811260Y-89013442D01*
X136606280Y-88960960D02*
X136260840Y-88615520D01*
X136260840Y-88615520D02*
X136260840Y-87048340D01*
X135506460Y-86293960D02*
X134997520Y-86293960D01*
X136260840Y-87048340D02*
X135506460Y-86293960D01*
X135927020Y-90017460D02*
X134997520Y-89087960D01*
X136606280Y-90017460D02*
X135927020Y-90017460D01*
X137876282Y-99184460D02*
X138417300Y-98643442D01*
X137815320Y-99184460D02*
X137876282Y-99184460D01*
X138417300Y-98643442D02*
X138417300Y-97487740D01*
X138417300Y-97487740D02*
X137855960Y-96926400D01*
X137855960Y-96926400D02*
X136715500Y-96926400D01*
X136171940Y-97469960D02*
X134997520Y-97469960D01*
X136715500Y-96926400D02*
X136171940Y-97469960D01*
X138856720Y-99357060D02*
X138322820Y-99890960D01*
X137497508Y-96072960D02*
X138856720Y-97432172D01*
X138322820Y-99890960D02*
X137815320Y-99890960D01*
X138856720Y-97432172D02*
X138856720Y-99357060D01*
X134997520Y-96072960D02*
X137497508Y-96072960D01*
X138322820Y-101640960D02*
X139867640Y-100096140D01*
X137815320Y-101640960D02*
X138322820Y-101640960D01*
X139867640Y-100096140D02*
X139867640Y-96883220D01*
X139867640Y-96883220D02*
X137096500Y-94112080D01*
X137096500Y-94112080D02*
X136453880Y-94112080D01*
X135620760Y-93278960D02*
X134997520Y-93278960D01*
X136453880Y-94112080D02*
X135620760Y-93278960D01*
X134997520Y-94675960D02*
X136761220Y-94675960D01*
X136761220Y-94675960D02*
X139346940Y-97261680D01*
X139346940Y-97261680D02*
X139346940Y-99816920D01*
X138572900Y-100590960D02*
X137815320Y-100590960D01*
X139346940Y-99816920D02*
X138572900Y-100590960D01*
X134997520Y-100263960D02*
X135503920Y-100263960D01*
X135830920Y-100590960D02*
X136631680Y-100590960D01*
X135503920Y-100263960D02*
X135830920Y-100590960D01*
X151698960Y-96072960D02*
X153006120Y-96072960D01*
X150651970Y-95025970D02*
X151698960Y-96072960D01*
X148914922Y-95025970D02*
X150651970Y-95025970D01*
X147545050Y-93656098D02*
X148914922Y-95025970D01*
X147545050Y-92155374D02*
X147545050Y-93656098D01*
X149320264Y-90380160D02*
X147545050Y-92155374D01*
X150169880Y-90380160D02*
X149320264Y-90380160D01*
X148245070Y-93322338D02*
X148864632Y-93941900D01*
X148864632Y-93941900D02*
X151152860Y-93941900D01*
X151815800Y-93278960D02*
X153006120Y-93278960D01*
X151152860Y-93941900D02*
X151815800Y-93278960D01*
X150169880Y-91080160D02*
X149610240Y-91080160D01*
X148245070Y-92466620D02*
X148245070Y-93322338D01*
X148762720Y-91948970D02*
X148245070Y-92466620D01*
X148762720Y-91927680D02*
X148762720Y-91948970D01*
X149610240Y-91080160D02*
X148762720Y-91927680D01*
X150169880Y-89680160D02*
X148435440Y-89680160D01*
X148435440Y-89680160D02*
X147955000Y-89199720D01*
X147955000Y-89199720D02*
X147955000Y-88018620D01*
X149602520Y-86371100D02*
X149602520Y-86192360D01*
X147955000Y-88018620D02*
X149602520Y-86371100D01*
X151886420Y-100940960D02*
X152112980Y-100714400D01*
X151378920Y-100940960D02*
X151886420Y-100940960D01*
X152112980Y-99760100D02*
X153006120Y-98866960D01*
X152112980Y-100714400D02*
X152112980Y-99760100D01*
X137789920Y-88960960D02*
X138191240Y-88960960D01*
X138191240Y-88960960D02*
X138844020Y-88308180D01*
X138844020Y-88308180D02*
X138844020Y-87160100D01*
X138426520Y-86742600D02*
X138426520Y-86192360D01*
X138844020Y-87160100D02*
X138426520Y-86742600D01*
X137789920Y-90367460D02*
X138842140Y-90367460D01*
X138842140Y-90367460D02*
X139164060Y-90045540D01*
X139164060Y-90045540D02*
X139164060Y-90045540D01*
X135230020Y-90717460D02*
X134997520Y-90484960D01*
X136606280Y-90717460D02*
X135230020Y-90717460D01*
D15*
X136895840Y-102226660D02*
X137556240Y-102226660D01*
X137556240Y-102226660D02*
X138081300Y-102226660D01*
X138081300Y-102226660D02*
X138798300Y-102943660D01*
X138798300Y-102943660D02*
X138798300Y-102943660D01*
M02*
