G04 #@! TF.GenerationSoftware,KiCad,Pcbnew,(5.1.10)-1*
G04 #@! TF.CreationDate,2021-10-06T10:46:06+02:00*
G04 #@! TF.ProjectId,OBJEX_Socket-V2.0,4f424a45-585f-4536-9f63-6b65742d5632,rev?*
G04 #@! TF.SameCoordinates,Original*
G04 #@! TF.FileFunction,Legend,Bot*
G04 #@! TF.FilePolarity,Positive*
%FSLAX46Y46*%
G04 Gerber Fmt 4.6, Leading zero omitted, Abs format (unit mm)*
G04 Created by KiCad (PCBNEW (5.1.10)-1) date 2021-10-06 10:46:06*
%MOMM*%
%LPD*%
G01*
G04 APERTURE LIST*
%ADD10C,0.150000*%
%ADD11C,0.010000*%
%ADD12C,0.120000*%
G04 APERTURE END LIST*
D10*
X145573571Y-89193714D02*
X145335476Y-89860380D01*
X145097380Y-89193714D01*
X144764047Y-88955619D02*
X144716428Y-88908000D01*
X144621190Y-88860380D01*
X144383095Y-88860380D01*
X144287857Y-88908000D01*
X144240238Y-88955619D01*
X144192619Y-89050857D01*
X144192619Y-89146095D01*
X144240238Y-89288952D01*
X144811666Y-89860380D01*
X144192619Y-89860380D01*
X143764047Y-89765142D02*
X143716428Y-89812761D01*
X143764047Y-89860380D01*
X143811666Y-89812761D01*
X143764047Y-89765142D01*
X143764047Y-89860380D01*
X143097380Y-88860380D02*
X143002142Y-88860380D01*
X142906904Y-88908000D01*
X142859285Y-88955619D01*
X142811666Y-89050857D01*
X142764047Y-89241333D01*
X142764047Y-89479428D01*
X142811666Y-89669904D01*
X142859285Y-89765142D01*
X142906904Y-89812761D01*
X143002142Y-89860380D01*
X143097380Y-89860380D01*
X143192619Y-89812761D01*
X143240238Y-89765142D01*
X143287857Y-89669904D01*
X143335476Y-89479428D01*
X143335476Y-89241333D01*
X143287857Y-89050857D01*
X143240238Y-88955619D01*
X143192619Y-88908000D01*
X143097380Y-88860380D01*
X145279904Y-101306380D02*
X145279904Y-102115904D01*
X145232285Y-102211142D01*
X145184666Y-102258761D01*
X145089428Y-102306380D01*
X144898952Y-102306380D01*
X144803714Y-102258761D01*
X144756095Y-102211142D01*
X144708476Y-102115904D01*
X144708476Y-101306380D01*
X144279904Y-102258761D02*
X144137047Y-102306380D01*
X143898952Y-102306380D01*
X143803714Y-102258761D01*
X143756095Y-102211142D01*
X143708476Y-102115904D01*
X143708476Y-102020666D01*
X143756095Y-101925428D01*
X143803714Y-101877809D01*
X143898952Y-101830190D01*
X144089428Y-101782571D01*
X144184666Y-101734952D01*
X144232285Y-101687333D01*
X144279904Y-101592095D01*
X144279904Y-101496857D01*
X144232285Y-101401619D01*
X144184666Y-101354000D01*
X144089428Y-101306380D01*
X143851333Y-101306380D01*
X143708476Y-101354000D01*
X142946571Y-101782571D02*
X142803714Y-101830190D01*
X142756095Y-101877809D01*
X142708476Y-101973047D01*
X142708476Y-102115904D01*
X142756095Y-102211142D01*
X142803714Y-102258761D01*
X142898952Y-102306380D01*
X143279904Y-102306380D01*
X143279904Y-101306380D01*
X142946571Y-101306380D01*
X142851333Y-101354000D01*
X142803714Y-101401619D01*
X142756095Y-101496857D01*
X142756095Y-101592095D01*
X142803714Y-101687333D01*
X142851333Y-101734952D01*
X142946571Y-101782571D01*
X143279904Y-101782571D01*
D11*
G36*
X143779734Y-102643232D02*
G01*
X143587117Y-102643526D01*
X143408564Y-102644000D01*
X143288754Y-102644470D01*
X142574164Y-102647750D01*
X143284117Y-103873300D01*
X143378247Y-104035789D01*
X143468882Y-104192242D01*
X143555201Y-104341242D01*
X143636383Y-104481371D01*
X143711608Y-104611214D01*
X143780054Y-104729353D01*
X143840901Y-104834372D01*
X143893327Y-104924854D01*
X143936513Y-104999382D01*
X143969637Y-105056540D01*
X143991878Y-105094911D01*
X144002416Y-105113078D01*
X144003129Y-105114302D01*
X144010711Y-105105786D01*
X144030317Y-105076222D01*
X144061357Y-105026607D01*
X144103238Y-104957938D01*
X144155368Y-104871212D01*
X144217156Y-104767426D01*
X144288009Y-104647578D01*
X144367337Y-104512664D01*
X144454547Y-104363681D01*
X144549046Y-104201626D01*
X144650245Y-104027496D01*
X144730658Y-103888752D01*
X145449129Y-102647750D01*
X144726237Y-102644470D01*
X144560817Y-102643862D01*
X144376956Y-102643433D01*
X144181154Y-102643186D01*
X143979913Y-102643119D01*
X143779734Y-102643232D01*
G37*
X143779734Y-102643232D02*
X143587117Y-102643526D01*
X143408564Y-102644000D01*
X143288754Y-102644470D01*
X142574164Y-102647750D01*
X143284117Y-103873300D01*
X143378247Y-104035789D01*
X143468882Y-104192242D01*
X143555201Y-104341242D01*
X143636383Y-104481371D01*
X143711608Y-104611214D01*
X143780054Y-104729353D01*
X143840901Y-104834372D01*
X143893327Y-104924854D01*
X143936513Y-104999382D01*
X143969637Y-105056540D01*
X143991878Y-105094911D01*
X144002416Y-105113078D01*
X144003129Y-105114302D01*
X144010711Y-105105786D01*
X144030317Y-105076222D01*
X144061357Y-105026607D01*
X144103238Y-104957938D01*
X144155368Y-104871212D01*
X144217156Y-104767426D01*
X144288009Y-104647578D01*
X144367337Y-104512664D01*
X144454547Y-104363681D01*
X144549046Y-104201626D01*
X144650245Y-104027496D01*
X144730658Y-103888752D01*
X145449129Y-102647750D01*
X144726237Y-102644470D01*
X144560817Y-102643862D01*
X144376956Y-102643433D01*
X144181154Y-102643186D01*
X143979913Y-102643119D01*
X143779734Y-102643232D01*
G36*
X145347994Y-94286462D02*
G01*
X145226945Y-94287278D01*
X145214975Y-94287376D01*
X144760950Y-94291150D01*
X144681045Y-94328047D01*
X144614951Y-94364169D01*
X144567418Y-94405055D01*
X144536342Y-94454868D01*
X144519620Y-94517773D01*
X144515147Y-94597932D01*
X144517234Y-94652312D01*
X144523062Y-94715036D01*
X144532120Y-94777069D01*
X144542779Y-94827957D01*
X144546725Y-94841630D01*
X144581360Y-94913363D01*
X144635091Y-94981803D01*
X144701850Y-95040189D01*
X144752883Y-95071355D01*
X144823722Y-95107175D01*
X144756859Y-95135939D01*
X144683491Y-95179959D01*
X144628666Y-95239895D01*
X144594414Y-95313335D01*
X144588940Y-95335249D01*
X144582162Y-95398684D01*
X144583736Y-95475086D01*
X144592527Y-95557377D01*
X144607400Y-95638479D01*
X144627218Y-95711315D01*
X144650846Y-95768806D01*
X144661294Y-95786186D01*
X144711693Y-95839814D01*
X144783700Y-95888369D01*
X144873676Y-95929588D01*
X144913911Y-95943523D01*
X144939558Y-95951448D01*
X144963449Y-95957859D01*
X144988531Y-95962918D01*
X145017754Y-95966783D01*
X145054065Y-95969616D01*
X145100413Y-95971576D01*
X145159747Y-95972824D01*
X145235015Y-95973520D01*
X145329165Y-95973825D01*
X145445145Y-95973898D01*
X145472634Y-95973900D01*
X145598578Y-95973720D01*
X145701105Y-95973135D01*
X145782198Y-95972077D01*
X145843838Y-95970478D01*
X145888008Y-95968271D01*
X145916689Y-95965386D01*
X145931863Y-95961757D01*
X145935622Y-95958025D01*
X145933602Y-95943044D01*
X145927799Y-95905139D01*
X145918558Y-95846447D01*
X145906222Y-95769105D01*
X145891136Y-95675252D01*
X145880774Y-95611143D01*
X145440400Y-95611143D01*
X145437185Y-95619365D01*
X145424980Y-95624998D01*
X145399944Y-95628503D01*
X145358237Y-95630342D01*
X145296020Y-95630975D01*
X145275114Y-95631000D01*
X145109827Y-95631000D01*
X145064635Y-95589583D01*
X145038545Y-95562782D01*
X145023679Y-95536521D01*
X145015709Y-95500892D01*
X145012343Y-95469882D01*
X145009268Y-95425742D01*
X145011525Y-95398220D01*
X145021297Y-95378728D01*
X145040527Y-95358898D01*
X145056259Y-95345399D01*
X145072410Y-95336239D01*
X145094037Y-95330580D01*
X145126199Y-95327580D01*
X145173955Y-95326400D01*
X145237462Y-95326200D01*
X145399114Y-95326200D01*
X145419757Y-95458743D01*
X145428338Y-95515643D01*
X145435174Y-95564419D01*
X145439421Y-95598825D01*
X145440400Y-95611143D01*
X145880774Y-95611143D01*
X145873643Y-95567025D01*
X145854087Y-95446562D01*
X145832813Y-95316001D01*
X145810164Y-95177478D01*
X145802277Y-95129350D01*
X145779241Y-94988605D01*
X145770610Y-94935675D01*
X145338705Y-94935675D01*
X145336409Y-94945114D01*
X145326670Y-94951448D01*
X145305354Y-94955283D01*
X145268329Y-94957221D01*
X145211461Y-94957867D01*
X145186601Y-94957900D01*
X145121978Y-94957659D01*
X145077370Y-94956275D01*
X145047392Y-94952756D01*
X145026659Y-94946109D01*
X145009786Y-94935342D01*
X144994852Y-94922563D01*
X144965973Y-94889030D01*
X144951599Y-94848265D01*
X144948635Y-94828068D01*
X144945294Y-94774742D01*
X144951041Y-94735604D01*
X144968866Y-94708545D01*
X145001758Y-94691457D01*
X145052706Y-94682229D01*
X145124699Y-94678752D01*
X145160589Y-94678500D01*
X145298682Y-94678500D01*
X145305797Y-94713425D01*
X145313470Y-94754828D01*
X145321762Y-94805298D01*
X145329492Y-94856849D01*
X145335477Y-94901497D01*
X145338534Y-94931257D01*
X145338705Y-94935675D01*
X145770610Y-94935675D01*
X145757467Y-94855085D01*
X145737297Y-94730929D01*
X145719076Y-94618276D01*
X145703147Y-94519267D01*
X145689856Y-94436041D01*
X145679544Y-94370738D01*
X145672557Y-94325498D01*
X145669238Y-94302461D01*
X145669006Y-94300076D01*
X145664589Y-94295643D01*
X145649918Y-94292138D01*
X145622856Y-94289503D01*
X145581269Y-94287678D01*
X145523020Y-94286602D01*
X145445973Y-94286217D01*
X145347994Y-94286462D01*
G37*
X145347994Y-94286462D02*
X145226945Y-94287278D01*
X145214975Y-94287376D01*
X144760950Y-94291150D01*
X144681045Y-94328047D01*
X144614951Y-94364169D01*
X144567418Y-94405055D01*
X144536342Y-94454868D01*
X144519620Y-94517773D01*
X144515147Y-94597932D01*
X144517234Y-94652312D01*
X144523062Y-94715036D01*
X144532120Y-94777069D01*
X144542779Y-94827957D01*
X144546725Y-94841630D01*
X144581360Y-94913363D01*
X144635091Y-94981803D01*
X144701850Y-95040189D01*
X144752883Y-95071355D01*
X144823722Y-95107175D01*
X144756859Y-95135939D01*
X144683491Y-95179959D01*
X144628666Y-95239895D01*
X144594414Y-95313335D01*
X144588940Y-95335249D01*
X144582162Y-95398684D01*
X144583736Y-95475086D01*
X144592527Y-95557377D01*
X144607400Y-95638479D01*
X144627218Y-95711315D01*
X144650846Y-95768806D01*
X144661294Y-95786186D01*
X144711693Y-95839814D01*
X144783700Y-95888369D01*
X144873676Y-95929588D01*
X144913911Y-95943523D01*
X144939558Y-95951448D01*
X144963449Y-95957859D01*
X144988531Y-95962918D01*
X145017754Y-95966783D01*
X145054065Y-95969616D01*
X145100413Y-95971576D01*
X145159747Y-95972824D01*
X145235015Y-95973520D01*
X145329165Y-95973825D01*
X145445145Y-95973898D01*
X145472634Y-95973900D01*
X145598578Y-95973720D01*
X145701105Y-95973135D01*
X145782198Y-95972077D01*
X145843838Y-95970478D01*
X145888008Y-95968271D01*
X145916689Y-95965386D01*
X145931863Y-95961757D01*
X145935622Y-95958025D01*
X145933602Y-95943044D01*
X145927799Y-95905139D01*
X145918558Y-95846447D01*
X145906222Y-95769105D01*
X145891136Y-95675252D01*
X145880774Y-95611143D01*
X145440400Y-95611143D01*
X145437185Y-95619365D01*
X145424980Y-95624998D01*
X145399944Y-95628503D01*
X145358237Y-95630342D01*
X145296020Y-95630975D01*
X145275114Y-95631000D01*
X145109827Y-95631000D01*
X145064635Y-95589583D01*
X145038545Y-95562782D01*
X145023679Y-95536521D01*
X145015709Y-95500892D01*
X145012343Y-95469882D01*
X145009268Y-95425742D01*
X145011525Y-95398220D01*
X145021297Y-95378728D01*
X145040527Y-95358898D01*
X145056259Y-95345399D01*
X145072410Y-95336239D01*
X145094037Y-95330580D01*
X145126199Y-95327580D01*
X145173955Y-95326400D01*
X145237462Y-95326200D01*
X145399114Y-95326200D01*
X145419757Y-95458743D01*
X145428338Y-95515643D01*
X145435174Y-95564419D01*
X145439421Y-95598825D01*
X145440400Y-95611143D01*
X145880774Y-95611143D01*
X145873643Y-95567025D01*
X145854087Y-95446562D01*
X145832813Y-95316001D01*
X145810164Y-95177478D01*
X145802277Y-95129350D01*
X145779241Y-94988605D01*
X145770610Y-94935675D01*
X145338705Y-94935675D01*
X145336409Y-94945114D01*
X145326670Y-94951448D01*
X145305354Y-94955283D01*
X145268329Y-94957221D01*
X145211461Y-94957867D01*
X145186601Y-94957900D01*
X145121978Y-94957659D01*
X145077370Y-94956275D01*
X145047392Y-94952756D01*
X145026659Y-94946109D01*
X145009786Y-94935342D01*
X144994852Y-94922563D01*
X144965973Y-94889030D01*
X144951599Y-94848265D01*
X144948635Y-94828068D01*
X144945294Y-94774742D01*
X144951041Y-94735604D01*
X144968866Y-94708545D01*
X145001758Y-94691457D01*
X145052706Y-94682229D01*
X145124699Y-94678752D01*
X145160589Y-94678500D01*
X145298682Y-94678500D01*
X145305797Y-94713425D01*
X145313470Y-94754828D01*
X145321762Y-94805298D01*
X145329492Y-94856849D01*
X145335477Y-94901497D01*
X145338534Y-94931257D01*
X145338705Y-94935675D01*
X145770610Y-94935675D01*
X145757467Y-94855085D01*
X145737297Y-94730929D01*
X145719076Y-94618276D01*
X145703147Y-94519267D01*
X145689856Y-94436041D01*
X145679544Y-94370738D01*
X145672557Y-94325498D01*
X145669238Y-94302461D01*
X145669006Y-94300076D01*
X145664589Y-94295643D01*
X145649918Y-94292138D01*
X145622856Y-94289503D01*
X145581269Y-94287678D01*
X145523020Y-94286602D01*
X145445973Y-94286217D01*
X145347994Y-94286462D01*
G36*
X142767486Y-94280734D02*
G01*
X142699233Y-94282010D01*
X142620556Y-94283841D01*
X142535201Y-94286111D01*
X142446912Y-94288701D01*
X142359434Y-94291495D01*
X142276513Y-94294374D01*
X142201894Y-94297222D01*
X142139322Y-94299921D01*
X142092541Y-94302354D01*
X142065298Y-94304402D01*
X142059962Y-94305344D01*
X142059648Y-94318901D01*
X142065213Y-94351884D01*
X142075660Y-94399267D01*
X142089255Y-94453245D01*
X142105710Y-94515289D01*
X142121009Y-94573074D01*
X142133244Y-94619385D01*
X142139608Y-94643575D01*
X142152080Y-94691200D01*
X142453215Y-94691387D01*
X142562563Y-94691961D01*
X142648296Y-94693589D01*
X142712180Y-94696356D01*
X142755982Y-94700345D01*
X142781468Y-94705642D01*
X142785405Y-94707290D01*
X142823816Y-94740315D01*
X142852435Y-94793687D01*
X142869202Y-94863559D01*
X142869235Y-94863806D01*
X142877737Y-94928462D01*
X142733494Y-94936773D01*
X142657322Y-94940312D01*
X142568984Y-94943113D01*
X142481712Y-94944808D01*
X142433675Y-94945142D01*
X142364087Y-94945884D01*
X142316985Y-94948246D01*
X142289491Y-94952523D01*
X142278727Y-94959010D01*
X142278312Y-94961075D01*
X142281639Y-94979998D01*
X142290361Y-95016645D01*
X142302917Y-95065358D01*
X142317747Y-95120478D01*
X142333289Y-95176346D01*
X142347983Y-95227306D01*
X142360269Y-95267698D01*
X142368584Y-95291864D01*
X142370713Y-95296045D01*
X142384930Y-95298552D01*
X142420802Y-95301630D01*
X142474596Y-95305053D01*
X142542581Y-95308597D01*
X142621024Y-95312034D01*
X142659100Y-95313500D01*
X142740817Y-95316691D01*
X142813548Y-95319878D01*
X142873617Y-95322870D01*
X142917348Y-95325478D01*
X142941066Y-95327513D01*
X142944244Y-95328206D01*
X142948268Y-95342075D01*
X142954695Y-95373457D01*
X142960276Y-95404749D01*
X142964644Y-95473630D01*
X142952005Y-95525546D01*
X142922725Y-95559390D01*
X142906496Y-95567596D01*
X142884364Y-95571249D01*
X142840619Y-95574461D01*
X142779045Y-95577092D01*
X142703427Y-95579000D01*
X142617551Y-95580044D01*
X142567997Y-95580200D01*
X142262647Y-95580200D01*
X142269687Y-95608775D01*
X142275106Y-95632004D01*
X142284636Y-95674042D01*
X142296926Y-95728895D01*
X142310445Y-95789750D01*
X142324042Y-95848979D01*
X142336430Y-95898907D01*
X142346278Y-95934426D01*
X142352253Y-95950429D01*
X142352407Y-95950606D01*
X142367315Y-95954178D01*
X142403539Y-95958755D01*
X142457026Y-95964052D01*
X142523727Y-95969784D01*
X142599588Y-95975666D01*
X142680560Y-95981413D01*
X142762589Y-95986740D01*
X142841625Y-95991362D01*
X142913617Y-95994994D01*
X142974511Y-95997351D01*
X143020258Y-95998148D01*
X143027400Y-95998092D01*
X143081988Y-95995863D01*
X143133484Y-95991313D01*
X143170688Y-95985436D01*
X143258516Y-95954315D01*
X143327765Y-95906327D01*
X143379526Y-95840676D01*
X143386587Y-95827850D01*
X143400399Y-95796952D01*
X143410591Y-95762389D01*
X143417037Y-95721804D01*
X143419611Y-95672841D01*
X143418186Y-95613143D01*
X143412637Y-95540354D01*
X143402837Y-95452118D01*
X143388661Y-95346079D01*
X143369983Y-95219879D01*
X143346676Y-95071164D01*
X143345827Y-95065850D01*
X143325917Y-94941793D01*
X143309292Y-94840012D01*
X143295351Y-94757683D01*
X143283493Y-94691980D01*
X143273114Y-94640079D01*
X143263614Y-94599155D01*
X143254391Y-94566383D01*
X143244842Y-94538938D01*
X143234365Y-94513996D01*
X143223236Y-94490516D01*
X143173273Y-94410836D01*
X143110387Y-94351018D01*
X143032734Y-94310002D01*
X142938472Y-94286727D01*
X142857740Y-94280321D01*
X142821570Y-94280132D01*
X142767486Y-94280734D01*
G37*
X142767486Y-94280734D02*
X142699233Y-94282010D01*
X142620556Y-94283841D01*
X142535201Y-94286111D01*
X142446912Y-94288701D01*
X142359434Y-94291495D01*
X142276513Y-94294374D01*
X142201894Y-94297222D01*
X142139322Y-94299921D01*
X142092541Y-94302354D01*
X142065298Y-94304402D01*
X142059962Y-94305344D01*
X142059648Y-94318901D01*
X142065213Y-94351884D01*
X142075660Y-94399267D01*
X142089255Y-94453245D01*
X142105710Y-94515289D01*
X142121009Y-94573074D01*
X142133244Y-94619385D01*
X142139608Y-94643575D01*
X142152080Y-94691200D01*
X142453215Y-94691387D01*
X142562563Y-94691961D01*
X142648296Y-94693589D01*
X142712180Y-94696356D01*
X142755982Y-94700345D01*
X142781468Y-94705642D01*
X142785405Y-94707290D01*
X142823816Y-94740315D01*
X142852435Y-94793687D01*
X142869202Y-94863559D01*
X142869235Y-94863806D01*
X142877737Y-94928462D01*
X142733494Y-94936773D01*
X142657322Y-94940312D01*
X142568984Y-94943113D01*
X142481712Y-94944808D01*
X142433675Y-94945142D01*
X142364087Y-94945884D01*
X142316985Y-94948246D01*
X142289491Y-94952523D01*
X142278727Y-94959010D01*
X142278312Y-94961075D01*
X142281639Y-94979998D01*
X142290361Y-95016645D01*
X142302917Y-95065358D01*
X142317747Y-95120478D01*
X142333289Y-95176346D01*
X142347983Y-95227306D01*
X142360269Y-95267698D01*
X142368584Y-95291864D01*
X142370713Y-95296045D01*
X142384930Y-95298552D01*
X142420802Y-95301630D01*
X142474596Y-95305053D01*
X142542581Y-95308597D01*
X142621024Y-95312034D01*
X142659100Y-95313500D01*
X142740817Y-95316691D01*
X142813548Y-95319878D01*
X142873617Y-95322870D01*
X142917348Y-95325478D01*
X142941066Y-95327513D01*
X142944244Y-95328206D01*
X142948268Y-95342075D01*
X142954695Y-95373457D01*
X142960276Y-95404749D01*
X142964644Y-95473630D01*
X142952005Y-95525546D01*
X142922725Y-95559390D01*
X142906496Y-95567596D01*
X142884364Y-95571249D01*
X142840619Y-95574461D01*
X142779045Y-95577092D01*
X142703427Y-95579000D01*
X142617551Y-95580044D01*
X142567997Y-95580200D01*
X142262647Y-95580200D01*
X142269687Y-95608775D01*
X142275106Y-95632004D01*
X142284636Y-95674042D01*
X142296926Y-95728895D01*
X142310445Y-95789750D01*
X142324042Y-95848979D01*
X142336430Y-95898907D01*
X142346278Y-95934426D01*
X142352253Y-95950429D01*
X142352407Y-95950606D01*
X142367315Y-95954178D01*
X142403539Y-95958755D01*
X142457026Y-95964052D01*
X142523727Y-95969784D01*
X142599588Y-95975666D01*
X142680560Y-95981413D01*
X142762589Y-95986740D01*
X142841625Y-95991362D01*
X142913617Y-95994994D01*
X142974511Y-95997351D01*
X143020258Y-95998148D01*
X143027400Y-95998092D01*
X143081988Y-95995863D01*
X143133484Y-95991313D01*
X143170688Y-95985436D01*
X143258516Y-95954315D01*
X143327765Y-95906327D01*
X143379526Y-95840676D01*
X143386587Y-95827850D01*
X143400399Y-95796952D01*
X143410591Y-95762389D01*
X143417037Y-95721804D01*
X143419611Y-95672841D01*
X143418186Y-95613143D01*
X143412637Y-95540354D01*
X143402837Y-95452118D01*
X143388661Y-95346079D01*
X143369983Y-95219879D01*
X143346676Y-95071164D01*
X143345827Y-95065850D01*
X143325917Y-94941793D01*
X143309292Y-94840012D01*
X143295351Y-94757683D01*
X143283493Y-94691980D01*
X143273114Y-94640079D01*
X143263614Y-94599155D01*
X143254391Y-94566383D01*
X143244842Y-94538938D01*
X143234365Y-94513996D01*
X143223236Y-94490516D01*
X143173273Y-94410836D01*
X143110387Y-94351018D01*
X143032734Y-94310002D01*
X142938472Y-94286727D01*
X142857740Y-94280321D01*
X142821570Y-94280132D01*
X142767486Y-94280734D01*
G36*
X146501527Y-94278088D02*
G01*
X146377747Y-94295184D01*
X146274201Y-94324501D01*
X146189525Y-94366715D01*
X146122358Y-94422500D01*
X146071338Y-94492531D01*
X146035708Y-94575586D01*
X146021357Y-94637035D01*
X146010474Y-94717326D01*
X146003353Y-94810100D01*
X146000290Y-94908999D01*
X146001581Y-95007664D01*
X146007520Y-95099735D01*
X146010205Y-95124719D01*
X146034131Y-95275743D01*
X146068253Y-95417405D01*
X146111337Y-95546402D01*
X146162149Y-95659429D01*
X146219457Y-95753181D01*
X146265323Y-95808206D01*
X146339362Y-95869230D01*
X146432931Y-95922024D01*
X146540722Y-95963688D01*
X146560943Y-95969702D01*
X146594756Y-95975989D01*
X146647367Y-95981875D01*
X146713082Y-95987107D01*
X146786207Y-95991433D01*
X146861047Y-95994599D01*
X146931909Y-95996353D01*
X146993100Y-95996441D01*
X147038924Y-95994610D01*
X147059650Y-95991858D01*
X147144246Y-95970144D01*
X147209237Y-95949449D01*
X147260174Y-95927278D01*
X147302610Y-95901133D01*
X147342094Y-95868517D01*
X147349673Y-95861428D01*
X147399544Y-95804336D01*
X147437468Y-95737586D01*
X147464397Y-95657931D01*
X147481284Y-95562125D01*
X147489079Y-95446923D01*
X147489870Y-95383350D01*
X147487324Y-95324341D01*
X147048660Y-95324341D01*
X147048228Y-95411824D01*
X147036198Y-95480592D01*
X147012543Y-95531953D01*
X147005510Y-95541374D01*
X146966054Y-95572041D01*
X146909282Y-95593085D01*
X146841827Y-95603353D01*
X146770317Y-95601691D01*
X146716750Y-95591582D01*
X146660544Y-95569261D01*
X146612559Y-95533865D01*
X146571085Y-95482850D01*
X146534412Y-95413672D01*
X146500828Y-95323785D01*
X146473631Y-95229947D01*
X146456940Y-95152501D01*
X146445086Y-95068410D01*
X146438226Y-94983125D01*
X146436515Y-94902094D01*
X146440108Y-94830767D01*
X146449162Y-94774594D01*
X146459790Y-94745389D01*
X146497504Y-94701157D01*
X146550912Y-94671708D01*
X146615056Y-94657037D01*
X146684981Y-94657138D01*
X146755728Y-94672007D01*
X146822341Y-94701638D01*
X146879647Y-94745812D01*
X146913890Y-94787298D01*
X146943230Y-94839417D01*
X146969153Y-94905929D01*
X146993145Y-94990595D01*
X147014838Y-95087997D01*
X147037521Y-95216834D01*
X147048660Y-95324341D01*
X147487324Y-95324341D01*
X147482430Y-95210945D01*
X147461346Y-95045951D01*
X147427504Y-94891321D01*
X147381787Y-94750009D01*
X147325078Y-94624968D01*
X147258263Y-94519152D01*
X147216149Y-94468738D01*
X147141628Y-94400603D01*
X147058473Y-94348170D01*
X146963522Y-94310346D01*
X146853609Y-94286042D01*
X146725571Y-94274166D01*
X146646900Y-94272538D01*
X146501527Y-94278088D01*
G37*
X146501527Y-94278088D02*
X146377747Y-94295184D01*
X146274201Y-94324501D01*
X146189525Y-94366715D01*
X146122358Y-94422500D01*
X146071338Y-94492531D01*
X146035708Y-94575586D01*
X146021357Y-94637035D01*
X146010474Y-94717326D01*
X146003353Y-94810100D01*
X146000290Y-94908999D01*
X146001581Y-95007664D01*
X146007520Y-95099735D01*
X146010205Y-95124719D01*
X146034131Y-95275743D01*
X146068253Y-95417405D01*
X146111337Y-95546402D01*
X146162149Y-95659429D01*
X146219457Y-95753181D01*
X146265323Y-95808206D01*
X146339362Y-95869230D01*
X146432931Y-95922024D01*
X146540722Y-95963688D01*
X146560943Y-95969702D01*
X146594756Y-95975989D01*
X146647367Y-95981875D01*
X146713082Y-95987107D01*
X146786207Y-95991433D01*
X146861047Y-95994599D01*
X146931909Y-95996353D01*
X146993100Y-95996441D01*
X147038924Y-95994610D01*
X147059650Y-95991858D01*
X147144246Y-95970144D01*
X147209237Y-95949449D01*
X147260174Y-95927278D01*
X147302610Y-95901133D01*
X147342094Y-95868517D01*
X147349673Y-95861428D01*
X147399544Y-95804336D01*
X147437468Y-95737586D01*
X147464397Y-95657931D01*
X147481284Y-95562125D01*
X147489079Y-95446923D01*
X147489870Y-95383350D01*
X147487324Y-95324341D01*
X147048660Y-95324341D01*
X147048228Y-95411824D01*
X147036198Y-95480592D01*
X147012543Y-95531953D01*
X147005510Y-95541374D01*
X146966054Y-95572041D01*
X146909282Y-95593085D01*
X146841827Y-95603353D01*
X146770317Y-95601691D01*
X146716750Y-95591582D01*
X146660544Y-95569261D01*
X146612559Y-95533865D01*
X146571085Y-95482850D01*
X146534412Y-95413672D01*
X146500828Y-95323785D01*
X146473631Y-95229947D01*
X146456940Y-95152501D01*
X146445086Y-95068410D01*
X146438226Y-94983125D01*
X146436515Y-94902094D01*
X146440108Y-94830767D01*
X146449162Y-94774594D01*
X146459790Y-94745389D01*
X146497504Y-94701157D01*
X146550912Y-94671708D01*
X146615056Y-94657037D01*
X146684981Y-94657138D01*
X146755728Y-94672007D01*
X146822341Y-94701638D01*
X146879647Y-94745812D01*
X146913890Y-94787298D01*
X146943230Y-94839417D01*
X146969153Y-94905929D01*
X146993145Y-94990595D01*
X147014838Y-95087997D01*
X147037521Y-95216834D01*
X147048660Y-95324341D01*
X147487324Y-95324341D01*
X147482430Y-95210945D01*
X147461346Y-95045951D01*
X147427504Y-94891321D01*
X147381787Y-94750009D01*
X147325078Y-94624968D01*
X147258263Y-94519152D01*
X147216149Y-94468738D01*
X147141628Y-94400603D01*
X147058473Y-94348170D01*
X146963522Y-94310346D01*
X146853609Y-94286042D01*
X146725571Y-94274166D01*
X146646900Y-94272538D01*
X146501527Y-94278088D01*
G36*
X143581471Y-94948375D02*
G01*
X143602039Y-95077585D01*
X143622067Y-95201152D01*
X143641101Y-95316428D01*
X143658686Y-95420763D01*
X143674370Y-95511510D01*
X143687699Y-95586021D01*
X143698219Y-95641648D01*
X143705477Y-95675743D01*
X143707156Y-95682078D01*
X143747076Y-95777097D01*
X143804924Y-95861218D01*
X143876918Y-95930346D01*
X143959274Y-95980392D01*
X143996336Y-95994831D01*
X144029336Y-96001981D01*
X144079580Y-96008475D01*
X144142018Y-96014102D01*
X144211596Y-96018653D01*
X144283264Y-96021918D01*
X144351970Y-96023686D01*
X144412662Y-96023749D01*
X144460288Y-96021897D01*
X144489796Y-96017918D01*
X144495560Y-96015571D01*
X144499156Y-96009356D01*
X144500480Y-95995634D01*
X144499198Y-95971980D01*
X144494976Y-95935967D01*
X144487479Y-95885167D01*
X144476373Y-95817153D01*
X144461324Y-95729498D01*
X144441997Y-95619775D01*
X144437726Y-95595736D01*
X144425700Y-95594356D01*
X144394121Y-95593679D01*
X144348828Y-95593792D01*
X144327868Y-95594083D01*
X144258626Y-95592410D01*
X144208727Y-95582954D01*
X144172665Y-95563190D01*
X144144931Y-95530592D01*
X144129679Y-95503180D01*
X144124524Y-95484537D01*
X144115973Y-95443895D01*
X144104541Y-95384354D01*
X144090748Y-95309011D01*
X144075108Y-95220966D01*
X144058139Y-95123317D01*
X144040359Y-95019162D01*
X144022284Y-94911600D01*
X144004431Y-94803730D01*
X143987317Y-94698649D01*
X143971460Y-94599457D01*
X143957375Y-94509252D01*
X143945581Y-94431132D01*
X143936594Y-94368196D01*
X143930931Y-94323542D01*
X143929100Y-94301038D01*
X143923426Y-94294951D01*
X143904560Y-94290489D01*
X143869742Y-94287453D01*
X143816209Y-94285645D01*
X143741200Y-94284867D01*
X143702949Y-94284800D01*
X143476798Y-94284800D01*
X143581471Y-94948375D01*
G37*
X143581471Y-94948375D02*
X143602039Y-95077585D01*
X143622067Y-95201152D01*
X143641101Y-95316428D01*
X143658686Y-95420763D01*
X143674370Y-95511510D01*
X143687699Y-95586021D01*
X143698219Y-95641648D01*
X143705477Y-95675743D01*
X143707156Y-95682078D01*
X143747076Y-95777097D01*
X143804924Y-95861218D01*
X143876918Y-95930346D01*
X143959274Y-95980392D01*
X143996336Y-95994831D01*
X144029336Y-96001981D01*
X144079580Y-96008475D01*
X144142018Y-96014102D01*
X144211596Y-96018653D01*
X144283264Y-96021918D01*
X144351970Y-96023686D01*
X144412662Y-96023749D01*
X144460288Y-96021897D01*
X144489796Y-96017918D01*
X144495560Y-96015571D01*
X144499156Y-96009356D01*
X144500480Y-95995634D01*
X144499198Y-95971980D01*
X144494976Y-95935967D01*
X144487479Y-95885167D01*
X144476373Y-95817153D01*
X144461324Y-95729498D01*
X144441997Y-95619775D01*
X144437726Y-95595736D01*
X144425700Y-95594356D01*
X144394121Y-95593679D01*
X144348828Y-95593792D01*
X144327868Y-95594083D01*
X144258626Y-95592410D01*
X144208727Y-95582954D01*
X144172665Y-95563190D01*
X144144931Y-95530592D01*
X144129679Y-95503180D01*
X144124524Y-95484537D01*
X144115973Y-95443895D01*
X144104541Y-95384354D01*
X144090748Y-95309011D01*
X144075108Y-95220966D01*
X144058139Y-95123317D01*
X144040359Y-95019162D01*
X144022284Y-94911600D01*
X144004431Y-94803730D01*
X143987317Y-94698649D01*
X143971460Y-94599457D01*
X143957375Y-94509252D01*
X143945581Y-94431132D01*
X143936594Y-94368196D01*
X143930931Y-94323542D01*
X143929100Y-94301038D01*
X143923426Y-94294951D01*
X143904560Y-94290489D01*
X143869742Y-94287453D01*
X143816209Y-94285645D01*
X143741200Y-94284867D01*
X143702949Y-94284800D01*
X143476798Y-94284800D01*
X143581471Y-94948375D01*
G36*
X142171608Y-93797424D02*
G01*
X142145431Y-93815095D01*
X142108312Y-93841851D01*
X142085888Y-93858544D01*
X141958205Y-93943845D01*
X141823495Y-94014179D01*
X141688837Y-94066043D01*
X141636744Y-94080789D01*
X141585937Y-94093572D01*
X141414682Y-94436836D01*
X141371657Y-94522620D01*
X141332128Y-94600568D01*
X141297535Y-94667904D01*
X141269323Y-94721853D01*
X141248932Y-94759637D01*
X141237806Y-94778482D01*
X141236308Y-94780100D01*
X141227399Y-94770101D01*
X141206221Y-94742033D01*
X141174852Y-94698781D01*
X141135371Y-94643236D01*
X141089857Y-94578284D01*
X141058320Y-94532821D01*
X140887450Y-94285542D01*
X140642226Y-94285171D01*
X140554771Y-94285370D01*
X140490108Y-94286383D01*
X140445636Y-94288381D01*
X140418753Y-94291535D01*
X140406861Y-94296017D01*
X140406394Y-94300674D01*
X140415968Y-94313925D01*
X140439343Y-94345067D01*
X140474819Y-94391872D01*
X140520698Y-94452109D01*
X140575279Y-94523550D01*
X140636864Y-94603963D01*
X140703754Y-94691120D01*
X140728558Y-94723397D01*
X140796926Y-94812401D01*
X140860603Y-94895437D01*
X140917887Y-94970278D01*
X140967080Y-95034696D01*
X141006482Y-95086466D01*
X141034392Y-95123359D01*
X141049113Y-95143149D01*
X141050849Y-95145647D01*
X141047468Y-95160058D01*
X141033804Y-95195702D01*
X141010595Y-95250928D01*
X140978577Y-95324084D01*
X140938484Y-95413517D01*
X140891052Y-95517575D01*
X140837019Y-95634605D01*
X140777118Y-95762956D01*
X140754675Y-95810732D01*
X140698349Y-95930612D01*
X140645498Y-96043428D01*
X140597074Y-96147126D01*
X140554031Y-96239647D01*
X140517321Y-96318936D01*
X140487897Y-96382936D01*
X140466711Y-96429592D01*
X140454717Y-96456846D01*
X140452316Y-96463311D01*
X140463518Y-96458008D01*
X140490286Y-96441348D01*
X140527421Y-96416607D01*
X140538200Y-96409208D01*
X140605290Y-96367280D01*
X140688351Y-96321994D01*
X140779061Y-96277411D01*
X140869101Y-96237592D01*
X140950148Y-96206598D01*
X140960442Y-96203149D01*
X141046134Y-96175051D01*
X141150825Y-95957000D01*
X141188756Y-95878059D01*
X141227677Y-95797161D01*
X141264396Y-95720938D01*
X141295718Y-95656018D01*
X141313736Y-95618759D01*
X141371956Y-95498569D01*
X141540928Y-95736234D01*
X141709900Y-95973900D01*
X142203630Y-95973900D01*
X142178629Y-95938975D01*
X142165391Y-95921271D01*
X142138473Y-95885915D01*
X142099745Y-95835340D01*
X142051074Y-95771979D01*
X141994330Y-95698264D01*
X141931383Y-95616628D01*
X141864101Y-95529504D01*
X141854204Y-95516700D01*
X141787585Y-95430192D01*
X141726130Y-95349762D01*
X141671523Y-95277662D01*
X141625450Y-95216144D01*
X141589595Y-95167462D01*
X141565644Y-95133868D01*
X141555282Y-95117615D01*
X141554988Y-95116650D01*
X141560392Y-95103172D01*
X141575871Y-95068904D01*
X141600443Y-95015923D01*
X141633128Y-94946303D01*
X141672944Y-94862123D01*
X141718908Y-94765459D01*
X141770040Y-94658388D01*
X141825359Y-94542985D01*
X141870119Y-94449900D01*
X141927857Y-94329822D01*
X141982078Y-94216740D01*
X142031815Y-94112693D01*
X142076099Y-94019723D01*
X142113963Y-93939868D01*
X142144438Y-93875169D01*
X142166557Y-93827667D01*
X142179351Y-93799402D01*
X142182234Y-93792020D01*
X142171608Y-93797424D01*
G37*
X142171608Y-93797424D02*
X142145431Y-93815095D01*
X142108312Y-93841851D01*
X142085888Y-93858544D01*
X141958205Y-93943845D01*
X141823495Y-94014179D01*
X141688837Y-94066043D01*
X141636744Y-94080789D01*
X141585937Y-94093572D01*
X141414682Y-94436836D01*
X141371657Y-94522620D01*
X141332128Y-94600568D01*
X141297535Y-94667904D01*
X141269323Y-94721853D01*
X141248932Y-94759637D01*
X141237806Y-94778482D01*
X141236308Y-94780100D01*
X141227399Y-94770101D01*
X141206221Y-94742033D01*
X141174852Y-94698781D01*
X141135371Y-94643236D01*
X141089857Y-94578284D01*
X141058320Y-94532821D01*
X140887450Y-94285542D01*
X140642226Y-94285171D01*
X140554771Y-94285370D01*
X140490108Y-94286383D01*
X140445636Y-94288381D01*
X140418753Y-94291535D01*
X140406861Y-94296017D01*
X140406394Y-94300674D01*
X140415968Y-94313925D01*
X140439343Y-94345067D01*
X140474819Y-94391872D01*
X140520698Y-94452109D01*
X140575279Y-94523550D01*
X140636864Y-94603963D01*
X140703754Y-94691120D01*
X140728558Y-94723397D01*
X140796926Y-94812401D01*
X140860603Y-94895437D01*
X140917887Y-94970278D01*
X140967080Y-95034696D01*
X141006482Y-95086466D01*
X141034392Y-95123359D01*
X141049113Y-95143149D01*
X141050849Y-95145647D01*
X141047468Y-95160058D01*
X141033804Y-95195702D01*
X141010595Y-95250928D01*
X140978577Y-95324084D01*
X140938484Y-95413517D01*
X140891052Y-95517575D01*
X140837019Y-95634605D01*
X140777118Y-95762956D01*
X140754675Y-95810732D01*
X140698349Y-95930612D01*
X140645498Y-96043428D01*
X140597074Y-96147126D01*
X140554031Y-96239647D01*
X140517321Y-96318936D01*
X140487897Y-96382936D01*
X140466711Y-96429592D01*
X140454717Y-96456846D01*
X140452316Y-96463311D01*
X140463518Y-96458008D01*
X140490286Y-96441348D01*
X140527421Y-96416607D01*
X140538200Y-96409208D01*
X140605290Y-96367280D01*
X140688351Y-96321994D01*
X140779061Y-96277411D01*
X140869101Y-96237592D01*
X140950148Y-96206598D01*
X140960442Y-96203149D01*
X141046134Y-96175051D01*
X141150825Y-95957000D01*
X141188756Y-95878059D01*
X141227677Y-95797161D01*
X141264396Y-95720938D01*
X141295718Y-95656018D01*
X141313736Y-95618759D01*
X141371956Y-95498569D01*
X141540928Y-95736234D01*
X141709900Y-95973900D01*
X142203630Y-95973900D01*
X142178629Y-95938975D01*
X142165391Y-95921271D01*
X142138473Y-95885915D01*
X142099745Y-95835340D01*
X142051074Y-95771979D01*
X141994330Y-95698264D01*
X141931383Y-95616628D01*
X141864101Y-95529504D01*
X141854204Y-95516700D01*
X141787585Y-95430192D01*
X141726130Y-95349762D01*
X141671523Y-95277662D01*
X141625450Y-95216144D01*
X141589595Y-95167462D01*
X141565644Y-95133868D01*
X141555282Y-95117615D01*
X141554988Y-95116650D01*
X141560392Y-95103172D01*
X141575871Y-95068904D01*
X141600443Y-95015923D01*
X141633128Y-94946303D01*
X141672944Y-94862123D01*
X141718908Y-94765459D01*
X141770040Y-94658388D01*
X141825359Y-94542985D01*
X141870119Y-94449900D01*
X141927857Y-94329822D01*
X141982078Y-94216740D01*
X142031815Y-94112693D01*
X142076099Y-94019723D01*
X142113963Y-93939868D01*
X142144438Y-93875169D01*
X142166557Y-93827667D01*
X142179351Y-93799402D01*
X142182234Y-93792020D01*
X142171608Y-93797424D01*
D12*
X152228653Y-88976200D02*
G75*
G03*
X152228653Y-88976200I-54713J0D01*
G01*
X150012400Y-87845900D02*
X150012400Y-87401400D01*
X150012400Y-87401400D02*
X151536400Y-87401400D01*
X151536400Y-87401400D02*
X151536400Y-87845900D01*
X151536400Y-92544900D02*
X151536400Y-92989400D01*
X150012400Y-92989400D02*
X150012400Y-92544900D01*
X151536400Y-92989400D02*
X150012400Y-92989400D01*
X151561800Y-103200200D02*
X150037800Y-103200200D01*
X150037800Y-103200200D02*
X150037800Y-102755700D01*
X151561800Y-102755700D02*
X151561800Y-103200200D01*
X151561800Y-97612200D02*
X151561800Y-98056700D01*
X150037800Y-97612200D02*
X151561800Y-97612200D01*
X150037800Y-98056700D02*
X150037800Y-97612200D01*
X152254053Y-99187000D02*
G75*
G03*
X152254053Y-99187000I-54713J0D01*
G01*
X138665053Y-88963500D02*
G75*
G03*
X138665053Y-88963500I-54713J0D01*
G01*
X136448800Y-87833200D02*
X136448800Y-87388700D01*
X136448800Y-87388700D02*
X137972800Y-87388700D01*
X137972800Y-87388700D02*
X137972800Y-87833200D01*
X137972800Y-92532200D02*
X137972800Y-92976700D01*
X136448800Y-92976700D02*
X136448800Y-92532200D01*
X137972800Y-92976700D02*
X136448800Y-92976700D01*
X138690453Y-99187000D02*
G75*
G03*
X138690453Y-99187000I-54713J0D01*
G01*
X136474200Y-98056700D02*
X136474200Y-97612200D01*
X136474200Y-97612200D02*
X137998200Y-97612200D01*
X137998200Y-97612200D02*
X137998200Y-98056700D01*
X137998200Y-102755700D02*
X137998200Y-103200200D01*
X136474200Y-103200200D02*
X136474200Y-102755700D01*
X137998200Y-103200200D02*
X136474200Y-103200200D01*
M02*
