M48
; DRILL file {KiCad (5.1.10)-1} date 10/06/21 10:46:09
; FORMAT={-:-/ absolute / inch / decimal}
; #@! TF.CreationDate,2021-10-06T10:46:09+02:00
; #@! TF.GenerationSoftware,Kicad,Pcbnew,(5.1.10)-1
FMAT,2
INCH
T1C0.0118
T2C0.0157
T3C0.0197
T4C0.0300
%
G90
G05
T1
X5.4789Y-3.5451
X5.5533Y-3.9327
X5.6024Y-3.8965
X5.8817Y-3.4702
T2
X5.4014Y-3.4412
X5.4021Y-3.8421
X5.4518Y-3.6472
X5.4645Y-4.0529
X5.8844Y-4.0506
X5.8851Y-3.6491
X5.936Y-3.4411
X5.9376Y-3.8424
T3
X5.3149Y-3.3974
X5.3149Y-3.4524
X5.3149Y-3.5074
X5.3149Y-3.5624
X5.3149Y-3.6174
X5.3149Y-3.6724
X5.3149Y-3.7274
X5.3149Y-3.7824
X5.3149Y-3.8374
X5.3149Y-3.8924
X5.3149Y-3.9474
X5.3149Y-4.0024
X5.3149Y-4.0574
X5.3149Y-4.1124
X5.3949Y-3.3934
X5.4499Y-3.3934
X5.5049Y-3.3934
X5.5599Y-3.3934
X5.6149Y-3.3934
X5.6699Y-3.3934
X5.7249Y-3.3934
X5.7799Y-3.3934
X5.8349Y-3.3934
X5.8899Y-3.3934
X5.9449Y-3.3934
X6.0239Y-3.3974
X6.0239Y-3.4524
X6.0239Y-3.5074
X6.0239Y-3.5624
X6.0239Y-3.6174
X6.0239Y-3.6724
X6.0239Y-3.7274
X6.0239Y-3.7824
X6.0239Y-3.8374
X6.0239Y-3.8924
X6.0239Y-3.9474
X6.0239Y-4.0024
X6.0239Y-4.0574
X6.0239Y-4.1124
T4
X5.2749Y-3.3975
X5.2749Y-3.4525
X5.2749Y-3.5075
X5.2749Y-3.5625
X5.2749Y-3.6175
X5.2749Y-3.6725
X5.2749Y-3.7275
X5.2749Y-3.7825
X5.2749Y-3.8375
X5.2749Y-3.8925
X5.2749Y-3.9475
X5.2749Y-4.0025
X5.2749Y-4.0575
X5.2749Y-4.1125
X5.3948Y-3.3534
X5.4498Y-3.3534
X5.5048Y-3.3534
X5.5598Y-3.3534
X5.6148Y-3.3534
X5.6698Y-3.3534
X5.7248Y-3.3534
X5.7798Y-3.3534
X5.8348Y-3.3534
X5.8898Y-3.3534
X5.9448Y-3.3534
X6.0639Y-3.3975
X6.0639Y-3.4525
X6.0639Y-3.5075
X6.0639Y-3.5625
X6.0639Y-3.6175
X6.0639Y-3.6725
X6.0639Y-3.7275
X6.0639Y-3.7825
X6.0639Y-3.8375
X6.0639Y-3.8925
X6.0639Y-3.9475
X6.0639Y-4.0025
X6.0639Y-4.0575
X6.0639Y-4.1125
T0
M30
