G04 #@! TF.GenerationSoftware,KiCad,Pcbnew,(5.1.10)-1*
G04 #@! TF.CreationDate,2021-10-06T10:46:06+02:00*
G04 #@! TF.ProjectId,OBJEX_Socket-V2.0,4f424a45-585f-4536-9f63-6b65742d5632,rev?*
G04 #@! TF.SameCoordinates,Original*
G04 #@! TF.FileFunction,Soldermask,Top*
G04 #@! TF.FilePolarity,Negative*
%FSLAX46Y46*%
G04 Gerber Fmt 4.6, Leading zero omitted, Abs format (unit mm)*
G04 Created by KiCad (PCBNEW (5.1.10)-1) date 2021-10-06 10:46:06*
%MOMM*%
%LPD*%
G01*
G04 APERTURE LIST*
%ADD10O,1.102000X1.102000*%
G04 APERTURE END LIST*
G36*
G01*
X135398520Y-88812460D02*
X135398520Y-89363460D01*
G75*
G02*
X135123020Y-89638960I-275500J0D01*
G01*
X134072020Y-89638960D01*
G75*
G02*
X133796520Y-89363460I0J275500D01*
G01*
X133796520Y-88812460D01*
G75*
G02*
X134072020Y-88536960I275500J0D01*
G01*
X135123020Y-88536960D01*
G75*
G02*
X135398520Y-88812460I0J-275500D01*
G01*
G37*
D10*
X133981520Y-89089560D03*
X133981520Y-90486560D03*
G36*
G01*
X135398520Y-90209460D02*
X135398520Y-90760460D01*
G75*
G02*
X135123020Y-91035960I-275500J0D01*
G01*
X134072020Y-91035960D01*
G75*
G02*
X133796520Y-90760460I0J275500D01*
G01*
X133796520Y-90209460D01*
G75*
G02*
X134072020Y-89933960I275500J0D01*
G01*
X135123020Y-89933960D01*
G75*
G02*
X135398520Y-90209460I0J-275500D01*
G01*
G37*
X133981520Y-91883560D03*
G36*
G01*
X135398520Y-91606460D02*
X135398520Y-92157460D01*
G75*
G02*
X135123020Y-92432960I-275500J0D01*
G01*
X134072020Y-92432960D01*
G75*
G02*
X133796520Y-92157460I0J275500D01*
G01*
X133796520Y-91606460D01*
G75*
G02*
X134072020Y-91330960I275500J0D01*
G01*
X135123020Y-91330960D01*
G75*
G02*
X135398520Y-91606460I0J-275500D01*
G01*
G37*
G36*
G01*
X135398520Y-94400460D02*
X135398520Y-94951460D01*
G75*
G02*
X135123020Y-95226960I-275500J0D01*
G01*
X134072020Y-95226960D01*
G75*
G02*
X133796520Y-94951460I0J275500D01*
G01*
X133796520Y-94400460D01*
G75*
G02*
X134072020Y-94124960I275500J0D01*
G01*
X135123020Y-94124960D01*
G75*
G02*
X135398520Y-94400460I0J-275500D01*
G01*
G37*
X133981520Y-94677560D03*
X133981520Y-93280560D03*
G36*
G01*
X135398520Y-93003460D02*
X135398520Y-93554460D01*
G75*
G02*
X135123020Y-93829960I-275500J0D01*
G01*
X134072020Y-93829960D01*
G75*
G02*
X133796520Y-93554460I0J275500D01*
G01*
X133796520Y-93003460D01*
G75*
G02*
X134072020Y-92727960I275500J0D01*
G01*
X135123020Y-92727960D01*
G75*
G02*
X135398520Y-93003460I0J-275500D01*
G01*
G37*
G36*
G01*
X135398520Y-95797460D02*
X135398520Y-96348460D01*
G75*
G02*
X135123020Y-96623960I-275500J0D01*
G01*
X134072020Y-96623960D01*
G75*
G02*
X133796520Y-96348460I0J275500D01*
G01*
X133796520Y-95797460D01*
G75*
G02*
X134072020Y-95521960I275500J0D01*
G01*
X135123020Y-95521960D01*
G75*
G02*
X135398520Y-95797460I0J-275500D01*
G01*
G37*
X133981520Y-96074560D03*
G36*
G01*
X135398520Y-98591460D02*
X135398520Y-99142460D01*
G75*
G02*
X135123020Y-99417960I-275500J0D01*
G01*
X134072020Y-99417960D01*
G75*
G02*
X133796520Y-99142460I0J275500D01*
G01*
X133796520Y-98591460D01*
G75*
G02*
X134072020Y-98315960I275500J0D01*
G01*
X135123020Y-98315960D01*
G75*
G02*
X135398520Y-98591460I0J-275500D01*
G01*
G37*
X133981520Y-98868560D03*
X133981520Y-97471560D03*
G36*
G01*
X135398520Y-97194460D02*
X135398520Y-97745460D01*
G75*
G02*
X135123020Y-98020960I-275500J0D01*
G01*
X134072020Y-98020960D01*
G75*
G02*
X133796520Y-97745460I0J275500D01*
G01*
X133796520Y-97194460D01*
G75*
G02*
X134072020Y-96918960I275500J0D01*
G01*
X135123020Y-96918960D01*
G75*
G02*
X135398520Y-97194460I0J-275500D01*
G01*
G37*
X133981520Y-101662560D03*
G36*
G01*
X135398520Y-99988460D02*
X135398520Y-100539460D01*
G75*
G02*
X135123020Y-100814960I-275500J0D01*
G01*
X134072020Y-100814960D01*
G75*
G02*
X133796520Y-100539460I0J275500D01*
G01*
X133796520Y-99988460D01*
G75*
G02*
X134072020Y-99712960I275500J0D01*
G01*
X135123020Y-99712960D01*
G75*
G02*
X135398520Y-99988460I0J-275500D01*
G01*
G37*
X133981520Y-104456560D03*
G36*
G01*
X135398520Y-104179460D02*
X135398520Y-104730460D01*
G75*
G02*
X135123020Y-105005960I-275500J0D01*
G01*
X134072020Y-105005960D01*
G75*
G02*
X133796520Y-104730460I0J275500D01*
G01*
X133796520Y-104179460D01*
G75*
G02*
X134072020Y-103903960I275500J0D01*
G01*
X135123020Y-103903960D01*
G75*
G02*
X135398520Y-104179460I0J-275500D01*
G01*
G37*
X133981520Y-100265560D03*
X133981520Y-103059560D03*
G36*
G01*
X135398520Y-102782460D02*
X135398520Y-103333460D01*
G75*
G02*
X135123020Y-103608960I-275500J0D01*
G01*
X134072020Y-103608960D01*
G75*
G02*
X133796520Y-103333460I0J275500D01*
G01*
X133796520Y-102782460D01*
G75*
G02*
X134072020Y-102506960I275500J0D01*
G01*
X135123020Y-102506960D01*
G75*
G02*
X135398520Y-102782460I0J-275500D01*
G01*
G37*
G36*
G01*
X135398520Y-101385460D02*
X135398520Y-101936460D01*
G75*
G02*
X135123020Y-102211960I-275500J0D01*
G01*
X134072020Y-102211960D01*
G75*
G02*
X133796520Y-101936460I0J275500D01*
G01*
X133796520Y-101385460D01*
G75*
G02*
X134072020Y-101109960I275500J0D01*
G01*
X135123020Y-101109960D01*
G75*
G02*
X135398520Y-101385460I0J-275500D01*
G01*
G37*
X133981520Y-87692560D03*
G36*
G01*
X135398520Y-87415460D02*
X135398520Y-87966460D01*
G75*
G02*
X135123020Y-88241960I-275500J0D01*
G01*
X134072020Y-88241960D01*
G75*
G02*
X133796520Y-87966460I0J275500D01*
G01*
X133796520Y-87415460D01*
G75*
G02*
X134072020Y-87139960I275500J0D01*
G01*
X135123020Y-87139960D01*
G75*
G02*
X135398520Y-87415460I0J-275500D01*
G01*
G37*
G36*
G01*
X154207120Y-87415460D02*
X154207120Y-87966460D01*
G75*
G02*
X153931620Y-88241960I-275500J0D01*
G01*
X152880620Y-88241960D01*
G75*
G02*
X152605120Y-87966460I0J275500D01*
G01*
X152605120Y-87415460D01*
G75*
G02*
X152880620Y-87139960I275500J0D01*
G01*
X153931620Y-87139960D01*
G75*
G02*
X154207120Y-87415460I0J-275500D01*
G01*
G37*
X154022120Y-103059560D03*
G36*
G01*
X154207120Y-95797460D02*
X154207120Y-96348460D01*
G75*
G02*
X153931620Y-96623960I-275500J0D01*
G01*
X152880620Y-96623960D01*
G75*
G02*
X152605120Y-96348460I0J275500D01*
G01*
X152605120Y-95797460D01*
G75*
G02*
X152880620Y-95521960I275500J0D01*
G01*
X153931620Y-95521960D01*
G75*
G02*
X154207120Y-95797460I0J-275500D01*
G01*
G37*
X154022120Y-90486560D03*
X154022120Y-91883560D03*
G36*
G01*
X154207120Y-101385460D02*
X154207120Y-101936460D01*
G75*
G02*
X153931620Y-102211960I-275500J0D01*
G01*
X152880620Y-102211960D01*
G75*
G02*
X152605120Y-101936460I0J275500D01*
G01*
X152605120Y-101385460D01*
G75*
G02*
X152880620Y-101109960I275500J0D01*
G01*
X153931620Y-101109960D01*
G75*
G02*
X154207120Y-101385460I0J-275500D01*
G01*
G37*
G36*
G01*
X154207120Y-104179460D02*
X154207120Y-104730460D01*
G75*
G02*
X153931620Y-105005960I-275500J0D01*
G01*
X152880620Y-105005960D01*
G75*
G02*
X152605120Y-104730460I0J275500D01*
G01*
X152605120Y-104179460D01*
G75*
G02*
X152880620Y-103903960I275500J0D01*
G01*
X153931620Y-103903960D01*
G75*
G02*
X154207120Y-104179460I0J-275500D01*
G01*
G37*
G36*
G01*
X154207120Y-97194460D02*
X154207120Y-97745460D01*
G75*
G02*
X153931620Y-98020960I-275500J0D01*
G01*
X152880620Y-98020960D01*
G75*
G02*
X152605120Y-97745460I0J275500D01*
G01*
X152605120Y-97194460D01*
G75*
G02*
X152880620Y-96918960I275500J0D01*
G01*
X153931620Y-96918960D01*
G75*
G02*
X154207120Y-97194460I0J-275500D01*
G01*
G37*
G36*
G01*
X154207120Y-93003460D02*
X154207120Y-93554460D01*
G75*
G02*
X153931620Y-93829960I-275500J0D01*
G01*
X152880620Y-93829960D01*
G75*
G02*
X152605120Y-93554460I0J275500D01*
G01*
X152605120Y-93003460D01*
G75*
G02*
X152880620Y-92727960I275500J0D01*
G01*
X153931620Y-92727960D01*
G75*
G02*
X154207120Y-93003460I0J-275500D01*
G01*
G37*
X154022120Y-94677560D03*
X154022120Y-98868560D03*
X154022120Y-100265560D03*
G36*
G01*
X154207120Y-88812460D02*
X154207120Y-89363460D01*
G75*
G02*
X153931620Y-89638960I-275500J0D01*
G01*
X152880620Y-89638960D01*
G75*
G02*
X152605120Y-89363460I0J275500D01*
G01*
X152605120Y-88812460D01*
G75*
G02*
X152880620Y-88536960I275500J0D01*
G01*
X153931620Y-88536960D01*
G75*
G02*
X154207120Y-88812460I0J-275500D01*
G01*
G37*
X154022120Y-104456560D03*
X154022120Y-89089560D03*
G36*
G01*
X154207120Y-99988460D02*
X154207120Y-100539460D01*
G75*
G02*
X153931620Y-100814960I-275500J0D01*
G01*
X152880620Y-100814960D01*
G75*
G02*
X152605120Y-100539460I0J275500D01*
G01*
X152605120Y-99988460D01*
G75*
G02*
X152880620Y-99712960I275500J0D01*
G01*
X153931620Y-99712960D01*
G75*
G02*
X154207120Y-99988460I0J-275500D01*
G01*
G37*
G36*
G01*
X154207120Y-102782460D02*
X154207120Y-103333460D01*
G75*
G02*
X153931620Y-103608960I-275500J0D01*
G01*
X152880620Y-103608960D01*
G75*
G02*
X152605120Y-103333460I0J275500D01*
G01*
X152605120Y-102782460D01*
G75*
G02*
X152880620Y-102506960I275500J0D01*
G01*
X153931620Y-102506960D01*
G75*
G02*
X154207120Y-102782460I0J-275500D01*
G01*
G37*
X154022120Y-97471560D03*
G36*
G01*
X154207120Y-94400460D02*
X154207120Y-94951460D01*
G75*
G02*
X153931620Y-95226960I-275500J0D01*
G01*
X152880620Y-95226960D01*
G75*
G02*
X152605120Y-94951460I0J275500D01*
G01*
X152605120Y-94400460D01*
G75*
G02*
X152880620Y-94124960I275500J0D01*
G01*
X153931620Y-94124960D01*
G75*
G02*
X154207120Y-94400460I0J-275500D01*
G01*
G37*
G36*
G01*
X154207120Y-98591460D02*
X154207120Y-99142460D01*
G75*
G02*
X153931620Y-99417960I-275500J0D01*
G01*
X152880620Y-99417960D01*
G75*
G02*
X152605120Y-99142460I0J275500D01*
G01*
X152605120Y-98591460D01*
G75*
G02*
X152880620Y-98315960I275500J0D01*
G01*
X153931620Y-98315960D01*
G75*
G02*
X154207120Y-98591460I0J-275500D01*
G01*
G37*
X154022120Y-96074560D03*
X154022120Y-93280560D03*
G36*
G01*
X154207120Y-90209460D02*
X154207120Y-90760460D01*
G75*
G02*
X153931620Y-91035960I-275500J0D01*
G01*
X152880620Y-91035960D01*
G75*
G02*
X152605120Y-90760460I0J275500D01*
G01*
X152605120Y-90209460D01*
G75*
G02*
X152880620Y-89933960I275500J0D01*
G01*
X153931620Y-89933960D01*
G75*
G02*
X154207120Y-90209460I0J-275500D01*
G01*
G37*
X154022120Y-101662560D03*
X154022120Y-87692560D03*
G36*
G01*
X154207120Y-91606460D02*
X154207120Y-92157460D01*
G75*
G02*
X153931620Y-92432960I-275500J0D01*
G01*
X152880620Y-92432960D01*
G75*
G02*
X152605120Y-92157460I0J275500D01*
G01*
X152605120Y-91606460D01*
G75*
G02*
X152880620Y-91330960I275500J0D01*
G01*
X153931620Y-91330960D01*
G75*
G02*
X154207120Y-91606460I0J-275500D01*
G01*
G37*
G36*
G01*
X135398520Y-86018460D02*
X135398520Y-86569460D01*
G75*
G02*
X135123020Y-86844960I-275500J0D01*
G01*
X134072020Y-86844960D01*
G75*
G02*
X133796520Y-86569460I0J275500D01*
G01*
X133796520Y-86018460D01*
G75*
G02*
X134072020Y-85742960I275500J0D01*
G01*
X135123020Y-85742960D01*
G75*
G02*
X135398520Y-86018460I0J-275500D01*
G01*
G37*
X133981520Y-86295560D03*
G36*
G01*
X154207120Y-86018460D02*
X154207120Y-86569460D01*
G75*
G02*
X153931620Y-86844960I-275500J0D01*
G01*
X152880620Y-86844960D01*
G75*
G02*
X152605120Y-86569460I0J275500D01*
G01*
X152605120Y-86018460D01*
G75*
G02*
X152880620Y-85742960I275500J0D01*
G01*
X153931620Y-85742960D01*
G75*
G02*
X154207120Y-86018460I0J-275500D01*
G01*
G37*
X154022120Y-86295560D03*
G36*
G01*
X137305020Y-86593360D02*
X136754020Y-86593360D01*
G75*
G02*
X136478520Y-86317860I0J275500D01*
G01*
X136478520Y-85266860D01*
G75*
G02*
X136754020Y-84991360I275500J0D01*
G01*
X137305020Y-84991360D01*
G75*
G02*
X137580520Y-85266860I0J-275500D01*
G01*
X137580520Y-86317860D01*
G75*
G02*
X137305020Y-86593360I-275500J0D01*
G01*
G37*
G36*
G01*
X138702020Y-86593360D02*
X138151020Y-86593360D01*
G75*
G02*
X137875520Y-86317860I0J275500D01*
G01*
X137875520Y-85266860D01*
G75*
G02*
X138151020Y-84991360I275500J0D01*
G01*
X138702020Y-84991360D01*
G75*
G02*
X138977520Y-85266860I0J-275500D01*
G01*
X138977520Y-86317860D01*
G75*
G02*
X138702020Y-86593360I-275500J0D01*
G01*
G37*
G36*
G01*
X148481020Y-86593360D02*
X147930020Y-86593360D01*
G75*
G02*
X147654520Y-86317860I0J275500D01*
G01*
X147654520Y-85266860D01*
G75*
G02*
X147930020Y-84991360I275500J0D01*
G01*
X148481020Y-84991360D01*
G75*
G02*
X148756520Y-85266860I0J-275500D01*
G01*
X148756520Y-86317860D01*
G75*
G02*
X148481020Y-86593360I-275500J0D01*
G01*
G37*
X148203920Y-85176360D03*
X137027920Y-85176360D03*
G36*
G01*
X142893020Y-86593360D02*
X142342020Y-86593360D01*
G75*
G02*
X142066520Y-86317860I0J275500D01*
G01*
X142066520Y-85266860D01*
G75*
G02*
X142342020Y-84991360I275500J0D01*
G01*
X142893020Y-84991360D01*
G75*
G02*
X143168520Y-85266860I0J-275500D01*
G01*
X143168520Y-86317860D01*
G75*
G02*
X142893020Y-86593360I-275500J0D01*
G01*
G37*
X146806920Y-85176360D03*
X145409920Y-85176360D03*
G36*
G01*
X140099020Y-86593360D02*
X139548020Y-86593360D01*
G75*
G02*
X139272520Y-86317860I0J275500D01*
G01*
X139272520Y-85266860D01*
G75*
G02*
X139548020Y-84991360I275500J0D01*
G01*
X140099020Y-84991360D01*
G75*
G02*
X140374520Y-85266860I0J-275500D01*
G01*
X140374520Y-86317860D01*
G75*
G02*
X140099020Y-86593360I-275500J0D01*
G01*
G37*
G36*
G01*
X151275020Y-86593360D02*
X150724020Y-86593360D01*
G75*
G02*
X150448520Y-86317860I0J275500D01*
G01*
X150448520Y-85266860D01*
G75*
G02*
X150724020Y-84991360I275500J0D01*
G01*
X151275020Y-84991360D01*
G75*
G02*
X151550520Y-85266860I0J-275500D01*
G01*
X151550520Y-86317860D01*
G75*
G02*
X151275020Y-86593360I-275500J0D01*
G01*
G37*
X144012920Y-85176360D03*
G36*
G01*
X145687020Y-86593360D02*
X145136020Y-86593360D01*
G75*
G02*
X144860520Y-86317860I0J275500D01*
G01*
X144860520Y-85266860D01*
G75*
G02*
X145136020Y-84991360I275500J0D01*
G01*
X145687020Y-84991360D01*
G75*
G02*
X145962520Y-85266860I0J-275500D01*
G01*
X145962520Y-86317860D01*
G75*
G02*
X145687020Y-86593360I-275500J0D01*
G01*
G37*
G36*
G01*
X144290020Y-86593360D02*
X143739020Y-86593360D01*
G75*
G02*
X143463520Y-86317860I0J275500D01*
G01*
X143463520Y-85266860D01*
G75*
G02*
X143739020Y-84991360I275500J0D01*
G01*
X144290020Y-84991360D01*
G75*
G02*
X144565520Y-85266860I0J-275500D01*
G01*
X144565520Y-86317860D01*
G75*
G02*
X144290020Y-86593360I-275500J0D01*
G01*
G37*
X149600920Y-85176360D03*
X141218920Y-85176360D03*
X150997920Y-85176360D03*
X142615920Y-85176360D03*
X138424920Y-85176360D03*
G36*
G01*
X147084020Y-86593360D02*
X146533020Y-86593360D01*
G75*
G02*
X146257520Y-86317860I0J275500D01*
G01*
X146257520Y-85266860D01*
G75*
G02*
X146533020Y-84991360I275500J0D01*
G01*
X147084020Y-84991360D01*
G75*
G02*
X147359520Y-85266860I0J-275500D01*
G01*
X147359520Y-86317860D01*
G75*
G02*
X147084020Y-86593360I-275500J0D01*
G01*
G37*
G36*
G01*
X141496020Y-86593360D02*
X140945020Y-86593360D01*
G75*
G02*
X140669520Y-86317860I0J275500D01*
G01*
X140669520Y-85266860D01*
G75*
G02*
X140945020Y-84991360I275500J0D01*
G01*
X141496020Y-84991360D01*
G75*
G02*
X141771520Y-85266860I0J-275500D01*
G01*
X141771520Y-86317860D01*
G75*
G02*
X141496020Y-86593360I-275500J0D01*
G01*
G37*
X139821920Y-85176360D03*
G36*
G01*
X149878020Y-86593360D02*
X149327020Y-86593360D01*
G75*
G02*
X149051520Y-86317860I0J275500D01*
G01*
X149051520Y-85266860D01*
G75*
G02*
X149327020Y-84991360I275500J0D01*
G01*
X149878020Y-84991360D01*
G75*
G02*
X150153520Y-85266860I0J-275500D01*
G01*
X150153520Y-86317860D01*
G75*
G02*
X149878020Y-86593360I-275500J0D01*
G01*
G37*
M02*
