M48
; DRILL file {KiCad (5.1.10)-1} date 10/06/21 11:05:39
; FORMAT={-:-/ absolute / inch / decimal}
; #@! TF.CreationDate,2021-10-06T11:05:39+02:00
; #@! TF.GenerationSoftware,Kicad,Pcbnew,(5.1.10)-1
FMAT,2
INCH
T1C0.0157
T2C0.0394
T3C0.1063
%
G90
G05
T1
X4.3477Y-3.7476
X4.3607Y-3.8258
X4.5724Y-3.9897
X4.5733Y-3.8247
X4.5733Y-3.9347
X4.5737Y-3.8797
X4.5744Y-3.7535
X4.7065Y-4.1078
X4.787Y-3.5423
X4.8497Y-3.5414
X4.9702Y-4.2215
X5.0253Y-3.5417
X5.031Y-3.7195
X5.078Y-3.7542
X5.3259Y-4.1547
X5.3296Y-3.8797
X5.3351Y-3.7806
X5.3404Y-3.9738
X5.3479Y-3.734
X5.3824Y-3.6991
X5.4153Y-3.9169
T2
X4.03Y-3.524
X4.03Y-3.624
X4.03Y-3.724
X4.03Y-3.824
X4.03Y-3.924
X4.03Y-4.024
X4.03Y-4.124
X4.03Y-4.224
X4.03Y-4.324
X4.03Y-4.424
X4.1305Y-3.5242
X4.1305Y-3.6242
X4.1305Y-3.7242
X4.1305Y-3.8242
X4.1305Y-3.9242
X4.1305Y-4.0242
X4.1305Y-4.1242
X4.1305Y-4.2242
X4.1305Y-4.3242
X4.1305Y-4.4242
X5.582Y-3.528
X5.582Y-3.628
X5.582Y-3.728
X5.582Y-3.828
X5.582Y-3.928
X5.582Y-4.028
X5.582Y-4.128
X5.582Y-4.228
X5.582Y-4.328
X5.582Y-4.428
X5.682Y-3.528
X5.682Y-3.628
X5.682Y-3.728
X5.682Y-3.828
X5.682Y-3.928
X5.682Y-4.028
X5.682Y-4.128
X5.682Y-4.228
X5.682Y-4.328
X5.682Y-4.428
T3
X4.305Y-3.568
X5.421Y-4.379
T0
M30
