G04 #@! TF.GenerationSoftware,KiCad,Pcbnew,(5.1.10)-1*
G04 #@! TF.CreationDate,2021-10-06T11:05:37+02:00*
G04 #@! TF.ProjectId,ProtoBoard_v2.0,50726f74-6f42-46f6-9172-645f76322e30,rev?*
G04 #@! TF.SameCoordinates,Original*
G04 #@! TF.FileFunction,Copper,L2,Bot*
G04 #@! TF.FilePolarity,Positive*
%FSLAX46Y46*%
G04 Gerber Fmt 4.6, Leading zero omitted, Abs format (unit mm)*
G04 Created by KiCad (PCBNEW (5.1.10)-1) date 2021-10-06 11:05:37*
%MOMM*%
%LPD*%
G01*
G04 APERTURE LIST*
G04 #@! TA.AperFunction,ComponentPad*
%ADD10C,1.700000*%
G04 #@! TD*
G04 #@! TA.AperFunction,ComponentPad*
%ADD11O,1.700000X1.700000*%
G04 #@! TD*
G04 #@! TA.AperFunction,ViaPad*
%ADD12C,0.800000*%
G04 #@! TD*
G04 #@! TA.AperFunction,Conductor*
%ADD13C,0.250000*%
G04 #@! TD*
G04 APERTURE END LIST*
D10*
X144322800Y-89611200D03*
D11*
X144322800Y-92151200D03*
X144322800Y-94691200D03*
X144322800Y-97231200D03*
X144322800Y-99771200D03*
X144322800Y-102311200D03*
X144322800Y-104851200D03*
X144322800Y-107391200D03*
X144322800Y-109931200D03*
X144322800Y-112471200D03*
X141782800Y-112471200D03*
X141782800Y-109931200D03*
X141782800Y-107391200D03*
X141782800Y-104851200D03*
X141782800Y-102311200D03*
X141782800Y-99771200D03*
X141782800Y-97231200D03*
X141782800Y-94691200D03*
X141782800Y-92151200D03*
D10*
X141782800Y-89611200D03*
D11*
X104914700Y-89514680D03*
X104914700Y-92054680D03*
X104914700Y-94594680D03*
X104914700Y-97134680D03*
X104914700Y-99674680D03*
X104914700Y-102214680D03*
X104914700Y-104754680D03*
X104914700Y-107294680D03*
X104914700Y-109834680D03*
D10*
X104914700Y-112374680D03*
X102362000Y-112369600D03*
D11*
X102362000Y-109829600D03*
X102362000Y-107289600D03*
X102362000Y-104749600D03*
X102362000Y-102209600D03*
X102362000Y-99669600D03*
X102362000Y-97129600D03*
X102362000Y-94589600D03*
X102362000Y-92049600D03*
X102362000Y-89509600D03*
D12*
X123182380Y-89951560D03*
X127642620Y-89959180D03*
X136712960Y-93957140D03*
X135836660Y-94843600D03*
X135511540Y-96027240D03*
X135371840Y-98544380D03*
X126243080Y-107226100D03*
X135277860Y-105529380D03*
X135646160Y-100934520D03*
X137548620Y-99489260D03*
X110431580Y-95189040D03*
X110761780Y-97175320D03*
X116161820Y-97147380D03*
X116171980Y-98544380D03*
X116138960Y-101338380D03*
X119545100Y-104338120D03*
X116161820Y-99941380D03*
X121589800Y-89974420D03*
X128981200Y-95356680D03*
X127788660Y-94475300D03*
X116189760Y-95338900D03*
D13*
X144322800Y-89611200D02*
X142958820Y-88247220D01*
X142958820Y-88247220D02*
X135907780Y-88247220D01*
X135907780Y-88247220D02*
X135229600Y-88925400D01*
X135229600Y-88925400D02*
X124208540Y-88925400D01*
X124208540Y-88925400D02*
X123182380Y-89951560D01*
X123182380Y-89951560D02*
X123182380Y-89951560D01*
X102362000Y-89509600D02*
X103682800Y-88188800D01*
X123182380Y-89951560D02*
X122229880Y-88999060D01*
X122229880Y-88999060D02*
X111820960Y-88999060D01*
X111010700Y-88188800D02*
X103682800Y-88188800D01*
X111820960Y-88999060D02*
X111010700Y-88188800D01*
X144322800Y-94691200D02*
X143032480Y-93400880D01*
X143032480Y-91661878D02*
X142264502Y-90893900D01*
X143032480Y-93400880D02*
X143032480Y-91661878D01*
X142264502Y-90893900D02*
X132626100Y-90893900D01*
X132626100Y-90893900D02*
X131691380Y-89959180D01*
X131691380Y-89959180D02*
X127642620Y-89959180D01*
X127642620Y-89959180D02*
X127642620Y-89959180D01*
X144322800Y-97231200D02*
X143052800Y-95961200D01*
X138717020Y-95961200D02*
X136712960Y-93957140D01*
X143052800Y-95961200D02*
X138717020Y-95961200D01*
X135836660Y-94843600D02*
X139451080Y-98458020D01*
X143009620Y-98458020D02*
X144322800Y-99771200D01*
X139451080Y-98458020D02*
X143009620Y-98458020D01*
X144322800Y-102311200D02*
X143040100Y-101028500D01*
X143040100Y-101028500D02*
X140865860Y-101028500D01*
X135864600Y-96027240D02*
X135511540Y-96027240D01*
X140865860Y-101028500D02*
X135864600Y-96027240D01*
X135371840Y-98544380D02*
X135371840Y-99588320D01*
X135371840Y-99588320D02*
X139346940Y-103563420D01*
X143035020Y-103563420D02*
X144322800Y-104851200D01*
X139346940Y-103563420D02*
X143035020Y-103563420D01*
X126243080Y-107226100D02*
X132547360Y-113530380D01*
X132547360Y-113530380D02*
X139684760Y-113530380D01*
X139684760Y-113530380D02*
X139938760Y-113784380D01*
X139938760Y-113784380D02*
X145303240Y-113784380D01*
X145303240Y-113784380D02*
X145902680Y-113184940D01*
X145902680Y-108971080D02*
X144322800Y-107391200D01*
X145902680Y-113184940D02*
X145902680Y-108971080D01*
X135277860Y-105529380D02*
X137055860Y-105529380D01*
X137055860Y-105529380D02*
X140182600Y-108656120D01*
X143047720Y-108656120D02*
X144322800Y-109931200D01*
X140182600Y-108656120D02*
X143047720Y-108656120D01*
X135646160Y-100934520D02*
X134231380Y-102349300D01*
X134231380Y-105555902D02*
X134223760Y-105563522D01*
X134231380Y-102349300D02*
X134231380Y-105555902D01*
X134223760Y-105563522D02*
X134223760Y-106461560D01*
X134223760Y-106461560D02*
X135666480Y-107904280D01*
X135666480Y-107904280D02*
X138107420Y-107904280D01*
X138107420Y-107904280D02*
X140106400Y-109903260D01*
X140106400Y-109903260D02*
X140106400Y-110563660D01*
X140106400Y-110563660D02*
X140733780Y-111191040D01*
X143042640Y-111191040D02*
X144322800Y-112471200D01*
X140733780Y-111191040D02*
X143042640Y-111191040D01*
X137548620Y-99489260D02*
X138546840Y-99489260D01*
X141368780Y-102311200D02*
X141782800Y-102311200D01*
X138546840Y-99489260D02*
X141368780Y-102311200D01*
X103531921Y-98499679D02*
X103534461Y-98499679D01*
X102362000Y-99669600D02*
X103531921Y-98499679D01*
X103534461Y-98499679D02*
X103629460Y-98404680D01*
X107215940Y-98404680D02*
X110431580Y-95189040D01*
X103629460Y-98404680D02*
X107215940Y-98404680D01*
X102362000Y-102209600D02*
X103659940Y-100911660D01*
X107025440Y-100911660D02*
X110761780Y-97175320D01*
X103659940Y-100911660D02*
X107025440Y-100911660D01*
X102362000Y-104749600D02*
X103611680Y-103499920D01*
X109809280Y-103499920D02*
X116161820Y-97147380D01*
X103611680Y-103499920D02*
X109809280Y-103499920D01*
X102362000Y-107289600D02*
X103614220Y-106037380D01*
X103614220Y-106037380D02*
X108582460Y-106037380D01*
X116075460Y-98544380D02*
X116171980Y-98544380D01*
X108582460Y-106037380D02*
X116075460Y-98544380D01*
X102362000Y-112369600D02*
X103619300Y-111112300D01*
X106365040Y-111112300D02*
X116138960Y-101338380D01*
X103619300Y-111112300D02*
X106365040Y-111112300D01*
X124630180Y-104338120D02*
X119545100Y-104338120D01*
X136817100Y-92151200D02*
X124630180Y-104338120D01*
X141782800Y-92151200D02*
X136817100Y-92151200D01*
X102362000Y-109829600D02*
X103642160Y-108549440D01*
X107553760Y-108549440D02*
X116161820Y-99941380D01*
X103642160Y-108549440D02*
X107553760Y-108549440D01*
X102362000Y-92049600D02*
X103616760Y-90794840D01*
X103616760Y-90794840D02*
X106357420Y-90794840D01*
X106357420Y-90794840D02*
X108094350Y-92531770D01*
X108094350Y-92531770D02*
X111221950Y-92531770D01*
X111221950Y-92531770D02*
X114056160Y-89697560D01*
X114056160Y-89697560D02*
X121312940Y-89697560D01*
X121312940Y-89697560D02*
X121589800Y-89974420D01*
X121589800Y-89974420D02*
X121589800Y-89974420D01*
X128981200Y-95356680D02*
X128981200Y-93974920D01*
X128981200Y-93974920D02*
X128529080Y-93522800D01*
X128529080Y-93522800D02*
X122986800Y-93522800D01*
X122986800Y-93522800D02*
X122445780Y-92981780D01*
X105841800Y-92981780D02*
X104914700Y-92054680D01*
X122445780Y-92981780D02*
X105841800Y-92981780D01*
X104914700Y-94594680D02*
X105557320Y-93952060D01*
X105557320Y-93952060D02*
X122217180Y-93952060D01*
X122740420Y-94475300D02*
X127788660Y-94475300D01*
X122217180Y-93952060D02*
X122740420Y-94475300D01*
X104914700Y-102214680D02*
X109313980Y-102214680D01*
X109313980Y-102214680D02*
X116189760Y-95338900D01*
X116189760Y-95338900D02*
X116189760Y-95338900D01*
M02*
