G04 #@! TF.GenerationSoftware,KiCad,Pcbnew,(5.1.10)-1*
G04 #@! TF.CreationDate,2021-10-06T11:05:37+02:00*
G04 #@! TF.ProjectId,ProtoBoard_v2.0,50726f74-6f42-46f6-9172-645f76322e30,rev?*
G04 #@! TF.SameCoordinates,Original*
G04 #@! TF.FileFunction,Soldermask,Top*
G04 #@! TF.FilePolarity,Negative*
%FSLAX46Y46*%
G04 Gerber Fmt 4.6, Leading zero omitted, Abs format (unit mm)*
G04 Created by KiCad (PCBNEW (5.1.10)-1) date 2021-10-06 11:05:37*
%MOMM*%
%LPD*%
G01*
G04 APERTURE LIST*
%ADD10C,1.802000*%
%ADD11O,1.802000X1.802000*%
%ADD12C,2.802000*%
%ADD13C,0.100000*%
G04 APERTURE END LIST*
D10*
X144322800Y-89611200D03*
D11*
X144322800Y-92151200D03*
X144322800Y-94691200D03*
X144322800Y-97231200D03*
X144322800Y-99771200D03*
X144322800Y-102311200D03*
X144322800Y-104851200D03*
X144322800Y-107391200D03*
X144322800Y-109931200D03*
X144322800Y-112471200D03*
X141782800Y-112471200D03*
X141782800Y-109931200D03*
X141782800Y-107391200D03*
X141782800Y-104851200D03*
X141782800Y-102311200D03*
X141782800Y-99771200D03*
X141782800Y-97231200D03*
X141782800Y-94691200D03*
X141782800Y-92151200D03*
D10*
X141782800Y-89611200D03*
D11*
X104914700Y-89514680D03*
X104914700Y-92054680D03*
X104914700Y-94594680D03*
X104914700Y-97134680D03*
X104914700Y-99674680D03*
X104914700Y-102214680D03*
X104914700Y-104754680D03*
X104914700Y-107294680D03*
X104914700Y-109834680D03*
D10*
X104914700Y-112374680D03*
X102362000Y-112369600D03*
D11*
X102362000Y-109829600D03*
X102362000Y-107289600D03*
X102362000Y-104749600D03*
X102362000Y-102209600D03*
X102362000Y-99669600D03*
X102362000Y-97129600D03*
X102362000Y-94589600D03*
X102362000Y-92049600D03*
X102362000Y-89509600D03*
D12*
X137693400Y-111226600D03*
X109347000Y-90627200D03*
G36*
G01*
X112353980Y-93506380D02*
X112353980Y-92406380D01*
G75*
G02*
X112404980Y-92355380I51000J0D01*
G01*
X114604980Y-92355380D01*
G75*
G02*
X114655980Y-92406380I0J-51000D01*
G01*
X114655980Y-93506380D01*
G75*
G02*
X114604980Y-93557380I-51000J0D01*
G01*
X112404980Y-93557380D01*
G75*
G02*
X112353980Y-93506380I0J51000D01*
G01*
G37*
G36*
G01*
X112353980Y-94903380D02*
X112353980Y-93803380D01*
G75*
G02*
X112404980Y-93752380I51000J0D01*
G01*
X114604980Y-93752380D01*
G75*
G02*
X114655980Y-93803380I0J-51000D01*
G01*
X114655980Y-94903380D01*
G75*
G02*
X114604980Y-94954380I-51000J0D01*
G01*
X112404980Y-94954380D01*
G75*
G02*
X112353980Y-94903380I0J51000D01*
G01*
G37*
G36*
G01*
X112353980Y-96300380D02*
X112353980Y-95200380D01*
G75*
G02*
X112404980Y-95149380I51000J0D01*
G01*
X114604980Y-95149380D01*
G75*
G02*
X114655980Y-95200380I0J-51000D01*
G01*
X114655980Y-96300380D01*
G75*
G02*
X114604980Y-96351380I-51000J0D01*
G01*
X112404980Y-96351380D01*
G75*
G02*
X112353980Y-96300380I0J51000D01*
G01*
G37*
G36*
G01*
X112353980Y-97697380D02*
X112353980Y-96597380D01*
G75*
G02*
X112404980Y-96546380I51000J0D01*
G01*
X114604980Y-96546380D01*
G75*
G02*
X114655980Y-96597380I0J-51000D01*
G01*
X114655980Y-97697380D01*
G75*
G02*
X114604980Y-97748380I-51000J0D01*
G01*
X112404980Y-97748380D01*
G75*
G02*
X112353980Y-97697380I0J51000D01*
G01*
G37*
G36*
G01*
X112353980Y-99094380D02*
X112353980Y-97994380D01*
G75*
G02*
X112404980Y-97943380I51000J0D01*
G01*
X114604980Y-97943380D01*
G75*
G02*
X114655980Y-97994380I0J-51000D01*
G01*
X114655980Y-99094380D01*
G75*
G02*
X114604980Y-99145380I-51000J0D01*
G01*
X112404980Y-99145380D01*
G75*
G02*
X112353980Y-99094380I0J51000D01*
G01*
G37*
G36*
G01*
X112353980Y-101888380D02*
X112353980Y-100788380D01*
G75*
G02*
X112404980Y-100737380I51000J0D01*
G01*
X114604980Y-100737380D01*
G75*
G02*
X114655980Y-100788380I0J-51000D01*
G01*
X114655980Y-101888380D01*
G75*
G02*
X114604980Y-101939380I-51000J0D01*
G01*
X112404980Y-101939380D01*
G75*
G02*
X112353980Y-101888380I0J51000D01*
G01*
G37*
G36*
G01*
X112353980Y-103285380D02*
X112353980Y-102185380D01*
G75*
G02*
X112404980Y-102134380I51000J0D01*
G01*
X114604980Y-102134380D01*
G75*
G02*
X114655980Y-102185380I0J-51000D01*
G01*
X114655980Y-103285380D01*
G75*
G02*
X114604980Y-103336380I-51000J0D01*
G01*
X112404980Y-103336380D01*
G75*
G02*
X112353980Y-103285380I0J51000D01*
G01*
G37*
G36*
G01*
X112353980Y-100491380D02*
X112353980Y-99391380D01*
G75*
G02*
X112404980Y-99340380I51000J0D01*
G01*
X114604980Y-99340380D01*
G75*
G02*
X114655980Y-99391380I0J-51000D01*
G01*
X114655980Y-100491380D01*
G75*
G02*
X114604980Y-100542380I-51000J0D01*
G01*
X112404980Y-100542380D01*
G75*
G02*
X112353980Y-100491380I0J51000D01*
G01*
G37*
G36*
G01*
X112353980Y-104682380D02*
X112353980Y-103582380D01*
G75*
G02*
X112404980Y-103531380I51000J0D01*
G01*
X114604980Y-103531380D01*
G75*
G02*
X114655980Y-103582380I0J-51000D01*
G01*
X114655980Y-104682380D01*
G75*
G02*
X114604980Y-104733380I-51000J0D01*
G01*
X112404980Y-104733380D01*
G75*
G02*
X112353980Y-104682380I0J51000D01*
G01*
G37*
G36*
G01*
X112353980Y-107476380D02*
X112353980Y-106376380D01*
G75*
G02*
X112404980Y-106325380I51000J0D01*
G01*
X114604980Y-106325380D01*
G75*
G02*
X114655980Y-106376380I0J-51000D01*
G01*
X114655980Y-107476380D01*
G75*
G02*
X114604980Y-107527380I-51000J0D01*
G01*
X112404980Y-107527380D01*
G75*
G02*
X112353980Y-107476380I0J51000D01*
G01*
G37*
G36*
G01*
X112353980Y-108873380D02*
X112353980Y-107773380D01*
G75*
G02*
X112404980Y-107722380I51000J0D01*
G01*
X114604980Y-107722380D01*
G75*
G02*
X114655980Y-107773380I0J-51000D01*
G01*
X114655980Y-108873380D01*
G75*
G02*
X114604980Y-108924380I-51000J0D01*
G01*
X112404980Y-108924380D01*
G75*
G02*
X112353980Y-108873380I0J51000D01*
G01*
G37*
G36*
G01*
X112353980Y-106079380D02*
X112353980Y-104979380D01*
G75*
G02*
X112404980Y-104928380I51000J0D01*
G01*
X114604980Y-104928380D01*
G75*
G02*
X114655980Y-104979380I0J-51000D01*
G01*
X114655980Y-106079380D01*
G75*
G02*
X114604980Y-106130380I-51000J0D01*
G01*
X112404980Y-106130380D01*
G75*
G02*
X112353980Y-106079380I0J51000D01*
G01*
G37*
G36*
G01*
X112353980Y-111667380D02*
X112353980Y-110567380D01*
G75*
G02*
X112404980Y-110516380I51000J0D01*
G01*
X114604980Y-110516380D01*
G75*
G02*
X114655980Y-110567380I0J-51000D01*
G01*
X114655980Y-111667380D01*
G75*
G02*
X114604980Y-111718380I-51000J0D01*
G01*
X112404980Y-111718380D01*
G75*
G02*
X112353980Y-111667380I0J51000D01*
G01*
G37*
G36*
G01*
X112353980Y-110270380D02*
X112353980Y-109170380D01*
G75*
G02*
X112404980Y-109119380I51000J0D01*
G01*
X114604980Y-109119380D01*
G75*
G02*
X114655980Y-109170380I0J-51000D01*
G01*
X114655980Y-110270380D01*
G75*
G02*
X114604980Y-110321380I-51000J0D01*
G01*
X112404980Y-110321380D01*
G75*
G02*
X112353980Y-110270380I0J51000D01*
G01*
G37*
G36*
G01*
X131632580Y-93506380D02*
X131632580Y-92406380D01*
G75*
G02*
X131683580Y-92355380I51000J0D01*
G01*
X133883580Y-92355380D01*
G75*
G02*
X133934580Y-92406380I0J-51000D01*
G01*
X133934580Y-93506380D01*
G75*
G02*
X133883580Y-93557380I-51000J0D01*
G01*
X131683580Y-93557380D01*
G75*
G02*
X131632580Y-93506380I0J51000D01*
G01*
G37*
G36*
G01*
X131632580Y-106079380D02*
X131632580Y-104979380D01*
G75*
G02*
X131683580Y-104928380I51000J0D01*
G01*
X133883580Y-104928380D01*
G75*
G02*
X133934580Y-104979380I0J-51000D01*
G01*
X133934580Y-106079380D01*
G75*
G02*
X133883580Y-106130380I-51000J0D01*
G01*
X131683580Y-106130380D01*
G75*
G02*
X131632580Y-106079380I0J51000D01*
G01*
G37*
G36*
G01*
X131632580Y-108873380D02*
X131632580Y-107773380D01*
G75*
G02*
X131683580Y-107722380I51000J0D01*
G01*
X133883580Y-107722380D01*
G75*
G02*
X133934580Y-107773380I0J-51000D01*
G01*
X133934580Y-108873380D01*
G75*
G02*
X133883580Y-108924380I-51000J0D01*
G01*
X131683580Y-108924380D01*
G75*
G02*
X131632580Y-108873380I0J51000D01*
G01*
G37*
G36*
G01*
X131632580Y-107476380D02*
X131632580Y-106376380D01*
G75*
G02*
X131683580Y-106325380I51000J0D01*
G01*
X133883580Y-106325380D01*
G75*
G02*
X133934580Y-106376380I0J-51000D01*
G01*
X133934580Y-107476380D01*
G75*
G02*
X133883580Y-107527380I-51000J0D01*
G01*
X131683580Y-107527380D01*
G75*
G02*
X131632580Y-107476380I0J51000D01*
G01*
G37*
G36*
G01*
X131632580Y-104682380D02*
X131632580Y-103582380D01*
G75*
G02*
X131683580Y-103531380I51000J0D01*
G01*
X133883580Y-103531380D01*
G75*
G02*
X133934580Y-103582380I0J-51000D01*
G01*
X133934580Y-104682380D01*
G75*
G02*
X133883580Y-104733380I-51000J0D01*
G01*
X131683580Y-104733380D01*
G75*
G02*
X131632580Y-104682380I0J51000D01*
G01*
G37*
G36*
G01*
X131632580Y-111667380D02*
X131632580Y-110567380D01*
G75*
G02*
X131683580Y-110516380I51000J0D01*
G01*
X133883580Y-110516380D01*
G75*
G02*
X133934580Y-110567380I0J-51000D01*
G01*
X133934580Y-111667380D01*
G75*
G02*
X133883580Y-111718380I-51000J0D01*
G01*
X131683580Y-111718380D01*
G75*
G02*
X131632580Y-111667380I0J51000D01*
G01*
G37*
G36*
G01*
X131632580Y-110270380D02*
X131632580Y-109170380D01*
G75*
G02*
X131683580Y-109119380I51000J0D01*
G01*
X133883580Y-109119380D01*
G75*
G02*
X133934580Y-109170380I0J-51000D01*
G01*
X133934580Y-110270380D01*
G75*
G02*
X133883580Y-110321380I-51000J0D01*
G01*
X131683580Y-110321380D01*
G75*
G02*
X131632580Y-110270380I0J51000D01*
G01*
G37*
G36*
G01*
X131632580Y-96300380D02*
X131632580Y-95200380D01*
G75*
G02*
X131683580Y-95149380I51000J0D01*
G01*
X133883580Y-95149380D01*
G75*
G02*
X133934580Y-95200380I0J-51000D01*
G01*
X133934580Y-96300380D01*
G75*
G02*
X133883580Y-96351380I-51000J0D01*
G01*
X131683580Y-96351380D01*
G75*
G02*
X131632580Y-96300380I0J51000D01*
G01*
G37*
G36*
G01*
X131632580Y-97697380D02*
X131632580Y-96597380D01*
G75*
G02*
X131683580Y-96546380I51000J0D01*
G01*
X133883580Y-96546380D01*
G75*
G02*
X133934580Y-96597380I0J-51000D01*
G01*
X133934580Y-97697380D01*
G75*
G02*
X133883580Y-97748380I-51000J0D01*
G01*
X131683580Y-97748380D01*
G75*
G02*
X131632580Y-97697380I0J51000D01*
G01*
G37*
G36*
G01*
X131632580Y-100491380D02*
X131632580Y-99391380D01*
G75*
G02*
X131683580Y-99340380I51000J0D01*
G01*
X133883580Y-99340380D01*
G75*
G02*
X133934580Y-99391380I0J-51000D01*
G01*
X133934580Y-100491380D01*
G75*
G02*
X133883580Y-100542380I-51000J0D01*
G01*
X131683580Y-100542380D01*
G75*
G02*
X131632580Y-100491380I0J51000D01*
G01*
G37*
G36*
G01*
X131632580Y-103285380D02*
X131632580Y-102185380D01*
G75*
G02*
X131683580Y-102134380I51000J0D01*
G01*
X133883580Y-102134380D01*
G75*
G02*
X133934580Y-102185380I0J-51000D01*
G01*
X133934580Y-103285380D01*
G75*
G02*
X133883580Y-103336380I-51000J0D01*
G01*
X131683580Y-103336380D01*
G75*
G02*
X131632580Y-103285380I0J51000D01*
G01*
G37*
G36*
G01*
X131632580Y-101888380D02*
X131632580Y-100788380D01*
G75*
G02*
X131683580Y-100737380I51000J0D01*
G01*
X133883580Y-100737380D01*
G75*
G02*
X133934580Y-100788380I0J-51000D01*
G01*
X133934580Y-101888380D01*
G75*
G02*
X133883580Y-101939380I-51000J0D01*
G01*
X131683580Y-101939380D01*
G75*
G02*
X131632580Y-101888380I0J51000D01*
G01*
G37*
G36*
G01*
X131632580Y-99094380D02*
X131632580Y-97994380D01*
G75*
G02*
X131683580Y-97943380I51000J0D01*
G01*
X133883580Y-97943380D01*
G75*
G02*
X133934580Y-97994380I0J-51000D01*
G01*
X133934580Y-99094380D01*
G75*
G02*
X133883580Y-99145380I-51000J0D01*
G01*
X131683580Y-99145380D01*
G75*
G02*
X131632580Y-99094380I0J51000D01*
G01*
G37*
G36*
G01*
X131632580Y-94903380D02*
X131632580Y-93803380D01*
G75*
G02*
X131683580Y-93752380I51000J0D01*
G01*
X133883580Y-93752380D01*
G75*
G02*
X133934580Y-93803380I0J-51000D01*
G01*
X133934580Y-94903380D01*
G75*
G02*
X133883580Y-94954380I-51000J0D01*
G01*
X131683580Y-94954380D01*
G75*
G02*
X131632580Y-94903380I0J51000D01*
G01*
G37*
G36*
G01*
X119490580Y-93345380D02*
X118390580Y-93345380D01*
G75*
G02*
X118339580Y-93294380I0J51000D01*
G01*
X118339580Y-91094380D01*
G75*
G02*
X118390580Y-91043380I51000J0D01*
G01*
X119490580Y-91043380D01*
G75*
G02*
X119541580Y-91094380I0J-51000D01*
G01*
X119541580Y-93294380D01*
G75*
G02*
X119490580Y-93345380I-51000J0D01*
G01*
G37*
G36*
G01*
X126475580Y-93345380D02*
X125375580Y-93345380D01*
G75*
G02*
X125324580Y-93294380I0J51000D01*
G01*
X125324580Y-91094380D01*
G75*
G02*
X125375580Y-91043380I51000J0D01*
G01*
X126475580Y-91043380D01*
G75*
G02*
X126526580Y-91094380I0J-51000D01*
G01*
X126526580Y-93294380D01*
G75*
G02*
X126475580Y-93345380I-51000J0D01*
G01*
G37*
G36*
G01*
X122284580Y-93345380D02*
X121184580Y-93345380D01*
G75*
G02*
X121133580Y-93294380I0J51000D01*
G01*
X121133580Y-91094380D01*
G75*
G02*
X121184580Y-91043380I51000J0D01*
G01*
X122284580Y-91043380D01*
G75*
G02*
X122335580Y-91094380I0J-51000D01*
G01*
X122335580Y-93294380D01*
G75*
G02*
X122284580Y-93345380I-51000J0D01*
G01*
G37*
G36*
G01*
X123681580Y-93345380D02*
X122581580Y-93345380D01*
G75*
G02*
X122530580Y-93294380I0J51000D01*
G01*
X122530580Y-91094380D01*
G75*
G02*
X122581580Y-91043380I51000J0D01*
G01*
X123681580Y-91043380D01*
G75*
G02*
X123732580Y-91094380I0J-51000D01*
G01*
X123732580Y-93294380D01*
G75*
G02*
X123681580Y-93345380I-51000J0D01*
G01*
G37*
G36*
G01*
X125078580Y-93345380D02*
X123978580Y-93345380D01*
G75*
G02*
X123927580Y-93294380I0J51000D01*
G01*
X123927580Y-91094380D01*
G75*
G02*
X123978580Y-91043380I51000J0D01*
G01*
X125078580Y-91043380D01*
G75*
G02*
X125129580Y-91094380I0J-51000D01*
G01*
X125129580Y-93294380D01*
G75*
G02*
X125078580Y-93345380I-51000J0D01*
G01*
G37*
G36*
G01*
X129269580Y-93345380D02*
X128169580Y-93345380D01*
G75*
G02*
X128118580Y-93294380I0J51000D01*
G01*
X128118580Y-91094380D01*
G75*
G02*
X128169580Y-91043380I51000J0D01*
G01*
X129269580Y-91043380D01*
G75*
G02*
X129320580Y-91094380I0J-51000D01*
G01*
X129320580Y-93294380D01*
G75*
G02*
X129269580Y-93345380I-51000J0D01*
G01*
G37*
G36*
G01*
X120887580Y-93345380D02*
X119787580Y-93345380D01*
G75*
G02*
X119736580Y-93294380I0J51000D01*
G01*
X119736580Y-91094380D01*
G75*
G02*
X119787580Y-91043380I51000J0D01*
G01*
X120887580Y-91043380D01*
G75*
G02*
X120938580Y-91094380I0J-51000D01*
G01*
X120938580Y-93294380D01*
G75*
G02*
X120887580Y-93345380I-51000J0D01*
G01*
G37*
G36*
G01*
X116696580Y-93345380D02*
X115596580Y-93345380D01*
G75*
G02*
X115545580Y-93294380I0J51000D01*
G01*
X115545580Y-91094380D01*
G75*
G02*
X115596580Y-91043380I51000J0D01*
G01*
X116696580Y-91043380D01*
G75*
G02*
X116747580Y-91094380I0J-51000D01*
G01*
X116747580Y-93294380D01*
G75*
G02*
X116696580Y-93345380I-51000J0D01*
G01*
G37*
G36*
G01*
X118093580Y-93345380D02*
X116993580Y-93345380D01*
G75*
G02*
X116942580Y-93294380I0J51000D01*
G01*
X116942580Y-91094380D01*
G75*
G02*
X116993580Y-91043380I51000J0D01*
G01*
X118093580Y-91043380D01*
G75*
G02*
X118144580Y-91094380I0J-51000D01*
G01*
X118144580Y-93294380D01*
G75*
G02*
X118093580Y-93345380I-51000J0D01*
G01*
G37*
G36*
G01*
X130666580Y-93345380D02*
X129566580Y-93345380D01*
G75*
G02*
X129515580Y-93294380I0J51000D01*
G01*
X129515580Y-91094380D01*
G75*
G02*
X129566580Y-91043380I51000J0D01*
G01*
X130666580Y-91043380D01*
G75*
G02*
X130717580Y-91094380I0J-51000D01*
G01*
X130717580Y-93294380D01*
G75*
G02*
X130666580Y-93345380I-51000J0D01*
G01*
G37*
G36*
G01*
X127872580Y-93345380D02*
X126772580Y-93345380D01*
G75*
G02*
X126721580Y-93294380I0J51000D01*
G01*
X126721580Y-91094380D01*
G75*
G02*
X126772580Y-91043380I51000J0D01*
G01*
X127872580Y-91043380D01*
G75*
G02*
X127923580Y-91094380I0J-51000D01*
G01*
X127923580Y-93294380D01*
G75*
G02*
X127872580Y-93345380I-51000J0D01*
G01*
G37*
D13*
G36*
X114657712Y-110320380D02*
G01*
X114657980Y-110321380D01*
X114657980Y-110516380D01*
X114656980Y-110518112D01*
X114655980Y-110518380D01*
X112353980Y-110518380D01*
X112352248Y-110517380D01*
X112351980Y-110516380D01*
X112351980Y-110321380D01*
X112352980Y-110319648D01*
X112353980Y-110319380D01*
X114655980Y-110319380D01*
X114657712Y-110320380D01*
G37*
G36*
X133936312Y-110320380D02*
G01*
X133936580Y-110321380D01*
X133936580Y-110516380D01*
X133935580Y-110518112D01*
X133934580Y-110518380D01*
X131632580Y-110518380D01*
X131630848Y-110517380D01*
X131630580Y-110516380D01*
X131630580Y-110321380D01*
X131631580Y-110319648D01*
X131632580Y-110319380D01*
X133934580Y-110319380D01*
X133936312Y-110320380D01*
G37*
G36*
X133936312Y-108923380D02*
G01*
X133936580Y-108924380D01*
X133936580Y-109119380D01*
X133935580Y-109121112D01*
X133934580Y-109121380D01*
X131632580Y-109121380D01*
X131630848Y-109120380D01*
X131630580Y-109119380D01*
X131630580Y-108924380D01*
X131631580Y-108922648D01*
X131632580Y-108922380D01*
X133934580Y-108922380D01*
X133936312Y-108923380D01*
G37*
G36*
X114657712Y-108923380D02*
G01*
X114657980Y-108924380D01*
X114657980Y-109119380D01*
X114656980Y-109121112D01*
X114655980Y-109121380D01*
X112353980Y-109121380D01*
X112352248Y-109120380D01*
X112351980Y-109119380D01*
X112351980Y-108924380D01*
X112352980Y-108922648D01*
X112353980Y-108922380D01*
X114655980Y-108922380D01*
X114657712Y-108923380D01*
G37*
G36*
X114657712Y-107526380D02*
G01*
X114657980Y-107527380D01*
X114657980Y-107722380D01*
X114656980Y-107724112D01*
X114655980Y-107724380D01*
X112353980Y-107724380D01*
X112352248Y-107723380D01*
X112351980Y-107722380D01*
X112351980Y-107527380D01*
X112352980Y-107525648D01*
X112353980Y-107525380D01*
X114655980Y-107525380D01*
X114657712Y-107526380D01*
G37*
G36*
X133936312Y-107526380D02*
G01*
X133936580Y-107527380D01*
X133936580Y-107722380D01*
X133935580Y-107724112D01*
X133934580Y-107724380D01*
X131632580Y-107724380D01*
X131630848Y-107723380D01*
X131630580Y-107722380D01*
X131630580Y-107527380D01*
X131631580Y-107525648D01*
X131632580Y-107525380D01*
X133934580Y-107525380D01*
X133936312Y-107526380D01*
G37*
G36*
X133936312Y-106129380D02*
G01*
X133936580Y-106130380D01*
X133936580Y-106325380D01*
X133935580Y-106327112D01*
X133934580Y-106327380D01*
X131632580Y-106327380D01*
X131630848Y-106326380D01*
X131630580Y-106325380D01*
X131630580Y-106130380D01*
X131631580Y-106128648D01*
X131632580Y-106128380D01*
X133934580Y-106128380D01*
X133936312Y-106129380D01*
G37*
G36*
X114657712Y-106129380D02*
G01*
X114657980Y-106130380D01*
X114657980Y-106325380D01*
X114656980Y-106327112D01*
X114655980Y-106327380D01*
X112353980Y-106327380D01*
X112352248Y-106326380D01*
X112351980Y-106325380D01*
X112351980Y-106130380D01*
X112352980Y-106128648D01*
X112353980Y-106128380D01*
X114655980Y-106128380D01*
X114657712Y-106129380D01*
G37*
G36*
X114657712Y-104732380D02*
G01*
X114657980Y-104733380D01*
X114657980Y-104928380D01*
X114656980Y-104930112D01*
X114655980Y-104930380D01*
X112353980Y-104930380D01*
X112352248Y-104929380D01*
X112351980Y-104928380D01*
X112351980Y-104733380D01*
X112352980Y-104731648D01*
X112353980Y-104731380D01*
X114655980Y-104731380D01*
X114657712Y-104732380D01*
G37*
G36*
X133936312Y-104732380D02*
G01*
X133936580Y-104733380D01*
X133936580Y-104928380D01*
X133935580Y-104930112D01*
X133934580Y-104930380D01*
X131632580Y-104930380D01*
X131630848Y-104929380D01*
X131630580Y-104928380D01*
X131630580Y-104733380D01*
X131631580Y-104731648D01*
X131632580Y-104731380D01*
X133934580Y-104731380D01*
X133936312Y-104732380D01*
G37*
G36*
X133936312Y-103335380D02*
G01*
X133936580Y-103336380D01*
X133936580Y-103531380D01*
X133935580Y-103533112D01*
X133934580Y-103533380D01*
X131632580Y-103533380D01*
X131630848Y-103532380D01*
X131630580Y-103531380D01*
X131630580Y-103336380D01*
X131631580Y-103334648D01*
X131632580Y-103334380D01*
X133934580Y-103334380D01*
X133936312Y-103335380D01*
G37*
G36*
X114657712Y-103335380D02*
G01*
X114657980Y-103336380D01*
X114657980Y-103531380D01*
X114656980Y-103533112D01*
X114655980Y-103533380D01*
X112353980Y-103533380D01*
X112352248Y-103532380D01*
X112351980Y-103531380D01*
X112351980Y-103336380D01*
X112352980Y-103334648D01*
X112353980Y-103334380D01*
X114655980Y-103334380D01*
X114657712Y-103335380D01*
G37*
G36*
X133936312Y-101938380D02*
G01*
X133936580Y-101939380D01*
X133936580Y-102134380D01*
X133935580Y-102136112D01*
X133934580Y-102136380D01*
X131632580Y-102136380D01*
X131630848Y-102135380D01*
X131630580Y-102134380D01*
X131630580Y-101939380D01*
X131631580Y-101937648D01*
X131632580Y-101937380D01*
X133934580Y-101937380D01*
X133936312Y-101938380D01*
G37*
G36*
X114657712Y-101938380D02*
G01*
X114657980Y-101939380D01*
X114657980Y-102134380D01*
X114656980Y-102136112D01*
X114655980Y-102136380D01*
X112353980Y-102136380D01*
X112352248Y-102135380D01*
X112351980Y-102134380D01*
X112351980Y-101939380D01*
X112352980Y-101937648D01*
X112353980Y-101937380D01*
X114655980Y-101937380D01*
X114657712Y-101938380D01*
G37*
G36*
X114657712Y-100541380D02*
G01*
X114657980Y-100542380D01*
X114657980Y-100737380D01*
X114656980Y-100739112D01*
X114655980Y-100739380D01*
X112353980Y-100739380D01*
X112352248Y-100738380D01*
X112351980Y-100737380D01*
X112351980Y-100542380D01*
X112352980Y-100540648D01*
X112353980Y-100540380D01*
X114655980Y-100540380D01*
X114657712Y-100541380D01*
G37*
G36*
X133936312Y-100541380D02*
G01*
X133936580Y-100542380D01*
X133936580Y-100737380D01*
X133935580Y-100739112D01*
X133934580Y-100739380D01*
X131632580Y-100739380D01*
X131630848Y-100738380D01*
X131630580Y-100737380D01*
X131630580Y-100542380D01*
X131631580Y-100540648D01*
X131632580Y-100540380D01*
X133934580Y-100540380D01*
X133936312Y-100541380D01*
G37*
G36*
X114657712Y-99144380D02*
G01*
X114657980Y-99145380D01*
X114657980Y-99340380D01*
X114656980Y-99342112D01*
X114655980Y-99342380D01*
X112353980Y-99342380D01*
X112352248Y-99341380D01*
X112351980Y-99340380D01*
X112351980Y-99145380D01*
X112352980Y-99143648D01*
X112353980Y-99143380D01*
X114655980Y-99143380D01*
X114657712Y-99144380D01*
G37*
G36*
X133936312Y-99144380D02*
G01*
X133936580Y-99145380D01*
X133936580Y-99340380D01*
X133935580Y-99342112D01*
X133934580Y-99342380D01*
X131632580Y-99342380D01*
X131630848Y-99341380D01*
X131630580Y-99340380D01*
X131630580Y-99145380D01*
X131631580Y-99143648D01*
X131632580Y-99143380D01*
X133934580Y-99143380D01*
X133936312Y-99144380D01*
G37*
G36*
X114657712Y-97747380D02*
G01*
X114657980Y-97748380D01*
X114657980Y-97943380D01*
X114656980Y-97945112D01*
X114655980Y-97945380D01*
X112353980Y-97945380D01*
X112352248Y-97944380D01*
X112351980Y-97943380D01*
X112351980Y-97748380D01*
X112352980Y-97746648D01*
X112353980Y-97746380D01*
X114655980Y-97746380D01*
X114657712Y-97747380D01*
G37*
G36*
X133936312Y-97747380D02*
G01*
X133936580Y-97748380D01*
X133936580Y-97943380D01*
X133935580Y-97945112D01*
X133934580Y-97945380D01*
X131632580Y-97945380D01*
X131630848Y-97944380D01*
X131630580Y-97943380D01*
X131630580Y-97748380D01*
X131631580Y-97746648D01*
X131632580Y-97746380D01*
X133934580Y-97746380D01*
X133936312Y-97747380D01*
G37*
G36*
X133936312Y-96350380D02*
G01*
X133936580Y-96351380D01*
X133936580Y-96546380D01*
X133935580Y-96548112D01*
X133934580Y-96548380D01*
X131632580Y-96548380D01*
X131630848Y-96547380D01*
X131630580Y-96546380D01*
X131630580Y-96351380D01*
X131631580Y-96349648D01*
X131632580Y-96349380D01*
X133934580Y-96349380D01*
X133936312Y-96350380D01*
G37*
G36*
X114657712Y-96350380D02*
G01*
X114657980Y-96351380D01*
X114657980Y-96546380D01*
X114656980Y-96548112D01*
X114655980Y-96548380D01*
X112353980Y-96548380D01*
X112352248Y-96547380D01*
X112351980Y-96546380D01*
X112351980Y-96351380D01*
X112352980Y-96349648D01*
X112353980Y-96349380D01*
X114655980Y-96349380D01*
X114657712Y-96350380D01*
G37*
G36*
X133936312Y-94953380D02*
G01*
X133936580Y-94954380D01*
X133936580Y-95149380D01*
X133935580Y-95151112D01*
X133934580Y-95151380D01*
X131632580Y-95151380D01*
X131630848Y-95150380D01*
X131630580Y-95149380D01*
X131630580Y-94954380D01*
X131631580Y-94952648D01*
X131632580Y-94952380D01*
X133934580Y-94952380D01*
X133936312Y-94953380D01*
G37*
G36*
X114657712Y-94953380D02*
G01*
X114657980Y-94954380D01*
X114657980Y-95149380D01*
X114656980Y-95151112D01*
X114655980Y-95151380D01*
X112353980Y-95151380D01*
X112352248Y-95150380D01*
X112351980Y-95149380D01*
X112351980Y-94954380D01*
X112352980Y-94952648D01*
X112353980Y-94952380D01*
X114655980Y-94952380D01*
X114657712Y-94953380D01*
G37*
G36*
X133936312Y-93556380D02*
G01*
X133936580Y-93557380D01*
X133936580Y-93752380D01*
X133935580Y-93754112D01*
X133934580Y-93754380D01*
X131632580Y-93754380D01*
X131630848Y-93753380D01*
X131630580Y-93752380D01*
X131630580Y-93557380D01*
X131631580Y-93555648D01*
X131632580Y-93555380D01*
X133934580Y-93555380D01*
X133936312Y-93556380D01*
G37*
G36*
X114657712Y-93556380D02*
G01*
X114657980Y-93557380D01*
X114657980Y-93752380D01*
X114656980Y-93754112D01*
X114655980Y-93754380D01*
X112353980Y-93754380D01*
X112352248Y-93753380D01*
X112351980Y-93752380D01*
X112351980Y-93557380D01*
X112352980Y-93555648D01*
X112353980Y-93555380D01*
X114655980Y-93555380D01*
X114657712Y-93556380D01*
G37*
G36*
X129517312Y-91042380D02*
G01*
X129517580Y-91043380D01*
X129517580Y-93345380D01*
X129516580Y-93347112D01*
X129515580Y-93347380D01*
X129320580Y-93347380D01*
X129318848Y-93346380D01*
X129318580Y-93345380D01*
X129318580Y-91043380D01*
X129319580Y-91041648D01*
X129320580Y-91041380D01*
X129515580Y-91041380D01*
X129517312Y-91042380D01*
G37*
G36*
X128120312Y-91042380D02*
G01*
X128120580Y-91043380D01*
X128120580Y-93345380D01*
X128119580Y-93347112D01*
X128118580Y-93347380D01*
X127923580Y-93347380D01*
X127921848Y-93346380D01*
X127921580Y-93345380D01*
X127921580Y-91043380D01*
X127922580Y-91041648D01*
X127923580Y-91041380D01*
X128118580Y-91041380D01*
X128120312Y-91042380D01*
G37*
G36*
X126723312Y-91042380D02*
G01*
X126723580Y-91043380D01*
X126723580Y-93345380D01*
X126722580Y-93347112D01*
X126721580Y-93347380D01*
X126526580Y-93347380D01*
X126524848Y-93346380D01*
X126524580Y-93345380D01*
X126524580Y-91043380D01*
X126525580Y-91041648D01*
X126526580Y-91041380D01*
X126721580Y-91041380D01*
X126723312Y-91042380D01*
G37*
G36*
X125326312Y-91042380D02*
G01*
X125326580Y-91043380D01*
X125326580Y-93345380D01*
X125325580Y-93347112D01*
X125324580Y-93347380D01*
X125129580Y-93347380D01*
X125127848Y-93346380D01*
X125127580Y-93345380D01*
X125127580Y-91043380D01*
X125128580Y-91041648D01*
X125129580Y-91041380D01*
X125324580Y-91041380D01*
X125326312Y-91042380D01*
G37*
G36*
X123929312Y-91042380D02*
G01*
X123929580Y-91043380D01*
X123929580Y-93345380D01*
X123928580Y-93347112D01*
X123927580Y-93347380D01*
X123732580Y-93347380D01*
X123730848Y-93346380D01*
X123730580Y-93345380D01*
X123730580Y-91043380D01*
X123731580Y-91041648D01*
X123732580Y-91041380D01*
X123927580Y-91041380D01*
X123929312Y-91042380D01*
G37*
G36*
X122532312Y-91042380D02*
G01*
X122532580Y-91043380D01*
X122532580Y-93345380D01*
X122531580Y-93347112D01*
X122530580Y-93347380D01*
X122335580Y-93347380D01*
X122333848Y-93346380D01*
X122333580Y-93345380D01*
X122333580Y-91043380D01*
X122334580Y-91041648D01*
X122335580Y-91041380D01*
X122530580Y-91041380D01*
X122532312Y-91042380D01*
G37*
G36*
X121135312Y-91042380D02*
G01*
X121135580Y-91043380D01*
X121135580Y-93345380D01*
X121134580Y-93347112D01*
X121133580Y-93347380D01*
X120938580Y-93347380D01*
X120936848Y-93346380D01*
X120936580Y-93345380D01*
X120936580Y-91043380D01*
X120937580Y-91041648D01*
X120938580Y-91041380D01*
X121133580Y-91041380D01*
X121135312Y-91042380D01*
G37*
G36*
X119738312Y-91042380D02*
G01*
X119738580Y-91043380D01*
X119738580Y-93345380D01*
X119737580Y-93347112D01*
X119736580Y-93347380D01*
X119541580Y-93347380D01*
X119539848Y-93346380D01*
X119539580Y-93345380D01*
X119539580Y-91043380D01*
X119540580Y-91041648D01*
X119541580Y-91041380D01*
X119736580Y-91041380D01*
X119738312Y-91042380D01*
G37*
G36*
X118341312Y-91042380D02*
G01*
X118341580Y-91043380D01*
X118341580Y-93345380D01*
X118340580Y-93347112D01*
X118339580Y-93347380D01*
X118144580Y-93347380D01*
X118142848Y-93346380D01*
X118142580Y-93345380D01*
X118142580Y-91043380D01*
X118143580Y-91041648D01*
X118144580Y-91041380D01*
X118339580Y-91041380D01*
X118341312Y-91042380D01*
G37*
G36*
X116944312Y-91042380D02*
G01*
X116944580Y-91043380D01*
X116944580Y-93345380D01*
X116943580Y-93347112D01*
X116942580Y-93347380D01*
X116747580Y-93347380D01*
X116745848Y-93346380D01*
X116745580Y-93345380D01*
X116745580Y-91043380D01*
X116746580Y-91041648D01*
X116747580Y-91041380D01*
X116942580Y-91041380D01*
X116944312Y-91042380D01*
G37*
M02*
