G04 #@! TF.GenerationSoftware,KiCad,Pcbnew,(5.1.10)-1*
G04 #@! TF.CreationDate,2021-10-06T11:05:37+02:00*
G04 #@! TF.ProjectId,ProtoBoard_v2.0,50726f74-6f42-46f6-9172-645f76322e30,rev?*
G04 #@! TF.SameCoordinates,Original*
G04 #@! TF.FileFunction,Soldermask,Bot*
G04 #@! TF.FilePolarity,Negative*
%FSLAX46Y46*%
G04 Gerber Fmt 4.6, Leading zero omitted, Abs format (unit mm)*
G04 Created by KiCad (PCBNEW (5.1.10)-1) date 2021-10-06 11:05:37*
%MOMM*%
%LPD*%
G01*
G04 APERTURE LIST*
%ADD10C,1.802000*%
%ADD11O,1.802000X1.802000*%
%ADD12C,2.802000*%
G04 APERTURE END LIST*
D10*
X144322800Y-89611200D03*
D11*
X144322800Y-92151200D03*
X144322800Y-94691200D03*
X144322800Y-97231200D03*
X144322800Y-99771200D03*
X144322800Y-102311200D03*
X144322800Y-104851200D03*
X144322800Y-107391200D03*
X144322800Y-109931200D03*
X144322800Y-112471200D03*
X141782800Y-112471200D03*
X141782800Y-109931200D03*
X141782800Y-107391200D03*
X141782800Y-104851200D03*
X141782800Y-102311200D03*
X141782800Y-99771200D03*
X141782800Y-97231200D03*
X141782800Y-94691200D03*
X141782800Y-92151200D03*
D10*
X141782800Y-89611200D03*
D11*
X104914700Y-89514680D03*
X104914700Y-92054680D03*
X104914700Y-94594680D03*
X104914700Y-97134680D03*
X104914700Y-99674680D03*
X104914700Y-102214680D03*
X104914700Y-104754680D03*
X104914700Y-107294680D03*
X104914700Y-109834680D03*
D10*
X104914700Y-112374680D03*
X102362000Y-112369600D03*
D11*
X102362000Y-109829600D03*
X102362000Y-107289600D03*
X102362000Y-104749600D03*
X102362000Y-102209600D03*
X102362000Y-99669600D03*
X102362000Y-97129600D03*
X102362000Y-94589600D03*
X102362000Y-92049600D03*
X102362000Y-89509600D03*
D12*
X137693400Y-111226600D03*
X109347000Y-90627200D03*
M02*
