G04 #@! TF.GenerationSoftware,KiCad,Pcbnew,(5.1.10)-1*
G04 #@! TF.CreationDate,2021-10-06T11:05:37+02:00*
G04 #@! TF.ProjectId,ProtoBoard_v2.0,50726f74-6f42-46f6-9172-645f76322e30,rev?*
G04 #@! TF.SameCoordinates,Original*
G04 #@! TF.FileFunction,Copper,L1,Top*
G04 #@! TF.FilePolarity,Positive*
%FSLAX46Y46*%
G04 Gerber Fmt 4.6, Leading zero omitted, Abs format (unit mm)*
G04 Created by KiCad (PCBNEW (5.1.10)-1) date 2021-10-06 11:05:37*
%MOMM*%
%LPD*%
G01*
G04 APERTURE LIST*
G04 #@! TA.AperFunction,ComponentPad*
%ADD10C,1.700000*%
G04 #@! TD*
G04 #@! TA.AperFunction,ComponentPad*
%ADD11O,1.700000X1.700000*%
G04 #@! TD*
G04 #@! TA.AperFunction,SMDPad,CuDef*
%ADD12R,2.200000X1.100000*%
G04 #@! TD*
G04 #@! TA.AperFunction,SMDPad,CuDef*
%ADD13R,1.100000X2.200000*%
G04 #@! TD*
G04 #@! TA.AperFunction,ViaPad*
%ADD14C,0.800000*%
G04 #@! TD*
G04 #@! TA.AperFunction,Conductor*
%ADD15C,0.250000*%
G04 #@! TD*
G04 #@! TA.AperFunction,Conductor*
%ADD16C,0.254000*%
G04 #@! TD*
G04 #@! TA.AperFunction,Conductor*
%ADD17C,0.100000*%
G04 #@! TD*
G04 APERTURE END LIST*
D10*
X144322800Y-89611200D03*
D11*
X144322800Y-92151200D03*
X144322800Y-94691200D03*
X144322800Y-97231200D03*
X144322800Y-99771200D03*
X144322800Y-102311200D03*
X144322800Y-104851200D03*
X144322800Y-107391200D03*
X144322800Y-109931200D03*
X144322800Y-112471200D03*
X141782800Y-112471200D03*
X141782800Y-109931200D03*
X141782800Y-107391200D03*
X141782800Y-104851200D03*
X141782800Y-102311200D03*
X141782800Y-99771200D03*
X141782800Y-97231200D03*
X141782800Y-94691200D03*
X141782800Y-92151200D03*
D10*
X141782800Y-89611200D03*
D11*
X104914700Y-89514680D03*
X104914700Y-92054680D03*
X104914700Y-94594680D03*
X104914700Y-97134680D03*
X104914700Y-99674680D03*
X104914700Y-102214680D03*
X104914700Y-104754680D03*
X104914700Y-107294680D03*
X104914700Y-109834680D03*
D10*
X104914700Y-112374680D03*
X102362000Y-112369600D03*
D11*
X102362000Y-109829600D03*
X102362000Y-107289600D03*
X102362000Y-104749600D03*
X102362000Y-102209600D03*
X102362000Y-99669600D03*
X102362000Y-97129600D03*
X102362000Y-94589600D03*
X102362000Y-92049600D03*
X102362000Y-89509600D03*
D12*
X113504980Y-92956380D03*
X113504980Y-94353380D03*
X113504980Y-95750380D03*
X113504980Y-97147380D03*
X113504980Y-98544380D03*
X113504980Y-101338380D03*
X113504980Y-102735380D03*
X113504980Y-99941380D03*
X113504980Y-104132380D03*
X113504980Y-106926380D03*
X113504980Y-108323380D03*
X113504980Y-105529380D03*
X113504980Y-111117380D03*
X113504980Y-109720380D03*
X132783580Y-92956380D03*
X132783580Y-105529380D03*
X132783580Y-108323380D03*
X132783580Y-106926380D03*
X132783580Y-104132380D03*
X132783580Y-111117380D03*
X132783580Y-109720380D03*
X132783580Y-95750380D03*
X132783580Y-97147380D03*
X132783580Y-99941380D03*
X132783580Y-102735380D03*
X132783580Y-101338380D03*
X132783580Y-98544380D03*
X132783580Y-94353380D03*
D13*
X118940580Y-92194380D03*
X125925580Y-92194380D03*
X121734580Y-92194380D03*
X123131580Y-92194380D03*
X124528580Y-92194380D03*
X128719580Y-92194380D03*
X120337580Y-92194380D03*
X116146580Y-92194380D03*
X117543580Y-92194380D03*
X130116580Y-92194380D03*
X127322580Y-92194380D03*
D14*
X123182380Y-89951560D03*
X127642620Y-89959180D03*
X136712960Y-93957140D03*
X135836660Y-94843600D03*
X135511540Y-96027240D03*
X135371840Y-98544380D03*
X126243080Y-107226100D03*
X135277860Y-105529380D03*
X135646160Y-100934520D03*
X137548620Y-99489260D03*
X110431580Y-95189040D03*
X110761780Y-97175320D03*
X116161820Y-97147380D03*
X116171980Y-98544380D03*
X116138960Y-101338380D03*
X119545100Y-104338120D03*
X116161820Y-99941380D03*
X121589800Y-89974420D03*
X128981200Y-95356680D03*
X127788660Y-94475300D03*
X116189760Y-95338900D03*
D15*
X123182380Y-92143580D02*
X123131580Y-92194380D01*
X123182380Y-89951560D02*
X123182380Y-92143580D01*
X143101060Y-90929460D02*
X144322800Y-92151200D01*
X135293100Y-90929460D02*
X143101060Y-90929460D01*
X133217920Y-88854280D02*
X135293100Y-90929460D01*
X125801120Y-88854280D02*
X133217920Y-88854280D01*
X124528580Y-90126820D02*
X125801120Y-88854280D01*
X124528580Y-92194380D02*
X124528580Y-90126820D01*
X127322580Y-90279220D02*
X127642620Y-89959180D01*
X127322580Y-92194380D02*
X127322580Y-90279220D01*
X132783580Y-92956380D02*
X135712200Y-92956380D01*
X135712200Y-92956380D02*
X136712960Y-93957140D01*
X136712960Y-93957140D02*
X136712960Y-93957140D01*
X132783580Y-94353380D02*
X135346440Y-94353380D01*
X135346440Y-94353380D02*
X135836660Y-94843600D01*
X135836660Y-94843600D02*
X135836660Y-94843600D01*
X132783580Y-95750380D02*
X135234680Y-95750380D01*
X135234680Y-95750380D02*
X135511540Y-96027240D01*
X135511540Y-96027240D02*
X135511540Y-96027240D01*
X132783580Y-98544380D02*
X135371840Y-98544380D01*
X135371840Y-98544380D02*
X135371840Y-98544380D01*
X118940580Y-92194380D02*
X118940580Y-99923600D01*
X118940580Y-99923600D02*
X126243080Y-107226100D01*
X126243080Y-107226100D02*
X126243080Y-107226100D01*
X132783580Y-105529380D02*
X135277860Y-105529380D01*
X135277860Y-105529380D02*
X135277860Y-105529380D01*
X132783580Y-101338380D02*
X135242300Y-101338380D01*
X135242300Y-101338380D02*
X135646160Y-100934520D01*
X135646160Y-100934520D02*
X135646160Y-100934520D01*
X136278620Y-102735380D02*
X141782800Y-97231200D01*
X132783580Y-102735380D02*
X136278620Y-102735380D01*
X132783580Y-104132380D02*
X135874760Y-104132380D01*
X140235940Y-99771200D02*
X141782800Y-99771200D01*
X135874760Y-104132380D02*
X140235940Y-99771200D01*
X132783580Y-99941380D02*
X136715500Y-99941380D01*
X136715500Y-99941380D02*
X136715500Y-99941380D01*
X136715500Y-99941380D02*
X137096500Y-99941380D01*
X137096500Y-99941380D02*
X137548620Y-99489260D01*
X137548620Y-99489260D02*
X137548620Y-99489260D01*
X132783580Y-106926380D02*
X137675620Y-106926380D01*
X139750800Y-104851200D02*
X141782800Y-104851200D01*
X137675620Y-106926380D02*
X139750800Y-104851200D01*
X132783580Y-108323380D02*
X138069320Y-108323380D01*
X139001500Y-107391200D02*
X141782800Y-107391200D01*
X138069320Y-108323380D02*
X139001500Y-107391200D01*
X132783580Y-109720380D02*
X135376920Y-109720380D01*
X135376920Y-109720380D02*
X136034780Y-109062520D01*
X136034780Y-109062520D02*
X139301220Y-109062520D01*
X140169900Y-109931200D02*
X141782800Y-109931200D01*
X139301220Y-109062520D02*
X140169900Y-109931200D01*
X132783580Y-111117380D02*
X134239000Y-111117380D01*
X134239000Y-111117380D02*
X136316720Y-113195100D01*
X136316720Y-113195100D02*
X139700000Y-113195100D01*
X140423900Y-112471200D02*
X141782800Y-112471200D01*
X139700000Y-113195100D02*
X140423900Y-112471200D01*
X116146580Y-92194380D02*
X115757960Y-91805760D01*
X115757960Y-91805760D02*
X111414560Y-91805760D01*
X111414560Y-91805760D02*
X109931200Y-93289120D01*
X103662480Y-93289120D02*
X102362000Y-94589600D01*
X109931200Y-93289120D02*
X103662480Y-93289120D01*
X111267240Y-92956380D02*
X113504980Y-92956380D01*
X108358940Y-95864680D02*
X111267240Y-92956380D01*
X103626920Y-95864680D02*
X108358940Y-95864680D01*
X102362000Y-97129600D02*
X103626920Y-95864680D01*
X113504980Y-94353380D02*
X111267240Y-94353380D01*
X111267240Y-94353380D02*
X110431580Y-95189040D01*
X110431580Y-95189040D02*
X110431580Y-95189040D01*
X113504980Y-95750380D02*
X112186720Y-95750380D01*
X112186720Y-95750380D02*
X110761780Y-97175320D01*
X110761780Y-97175320D02*
X110761780Y-97175320D01*
X113504980Y-97147380D02*
X116161820Y-97147380D01*
X116161820Y-97147380D02*
X116161820Y-97147380D01*
X113504980Y-98544380D02*
X116171980Y-98544380D01*
X116171980Y-98544380D02*
X116171980Y-98544380D01*
X113504980Y-101338380D02*
X116138960Y-101338380D01*
X116138960Y-101338380D02*
X116138960Y-101338380D01*
X113504980Y-104132380D02*
X110850680Y-104132380D01*
X106392980Y-99674680D02*
X104914700Y-99674680D01*
X110850680Y-104132380D02*
X106392980Y-99674680D01*
X113504980Y-106926380D02*
X108917740Y-106926380D01*
X106746040Y-104754680D02*
X104914700Y-104754680D01*
X108917740Y-106926380D02*
X106746040Y-104754680D01*
X113504980Y-108323380D02*
X108356400Y-108323380D01*
X107327700Y-107294680D02*
X104914700Y-107294680D01*
X108356400Y-108323380D02*
X107327700Y-107294680D01*
X113390680Y-109834680D02*
X113504980Y-109720380D01*
X104914700Y-109834680D02*
X113390680Y-109834680D01*
X104914700Y-112374680D02*
X109087920Y-112374680D01*
X110345220Y-111117380D02*
X113504980Y-111117380D01*
X109087920Y-112374680D02*
X110345220Y-111117380D01*
X132783580Y-97147380D02*
X136784080Y-97147380D01*
X139240260Y-94691200D02*
X141782800Y-94691200D01*
X136784080Y-97147380D02*
X139240260Y-94691200D01*
X113504980Y-105529380D02*
X118353840Y-105529380D01*
X118353840Y-105529380D02*
X119545100Y-104338120D01*
X119545100Y-104338120D02*
X119545100Y-104338120D01*
X113504980Y-99941380D02*
X116161820Y-99941380D01*
X116161820Y-99941380D02*
X116161820Y-99941380D01*
X121734580Y-90119200D02*
X121589800Y-89974420D01*
X121734580Y-92194380D02*
X121734580Y-90119200D01*
X130116580Y-92194380D02*
X130116580Y-94221300D01*
X130116580Y-94221300D02*
X128981200Y-95356680D01*
X128981200Y-95356680D02*
X128981200Y-95356680D01*
X128719580Y-93544380D02*
X127788660Y-94475300D01*
X128719580Y-92194380D02*
X128719580Y-93544380D01*
X127788660Y-94475300D02*
X127788660Y-94475300D01*
X110515400Y-102735380D02*
X104914700Y-97134680D01*
X113504980Y-102735380D02*
X110515400Y-102735380D01*
X117543580Y-93985080D02*
X116189760Y-95338900D01*
X117543580Y-92194380D02*
X117543580Y-93985080D01*
D16*
X104787698Y-88193865D02*
X104557809Y-88073199D01*
X104283448Y-88170523D01*
X104033345Y-88319502D01*
X103817112Y-88514411D01*
X103643059Y-88747760D01*
X103517875Y-89010581D01*
X103505129Y-89052602D01*
X103452898Y-88926503D01*
X103318180Y-88724883D01*
X103146717Y-88553420D01*
X102945097Y-88418702D01*
X102721069Y-88325907D01*
X102483243Y-88278600D01*
X102240757Y-88278600D01*
X102002931Y-88325907D01*
X101778903Y-88418702D01*
X101577283Y-88553420D01*
X101405820Y-88724883D01*
X101271102Y-88926503D01*
X101178307Y-89150531D01*
X101131000Y-89388357D01*
X101131000Y-89630843D01*
X101178307Y-89868669D01*
X101271102Y-90092697D01*
X101405820Y-90294317D01*
X101577283Y-90465780D01*
X101778903Y-90600498D01*
X102002931Y-90693293D01*
X102240757Y-90740600D01*
X102483243Y-90740600D01*
X102721069Y-90693293D01*
X102945097Y-90600498D01*
X103146717Y-90465780D01*
X103318180Y-90294317D01*
X103452898Y-90092697D01*
X103503350Y-89970893D01*
X103517875Y-90018779D01*
X103643059Y-90281600D01*
X103817112Y-90514949D01*
X104033345Y-90709858D01*
X104283448Y-90858837D01*
X104445868Y-90916452D01*
X104331603Y-90963782D01*
X104129983Y-91098500D01*
X103958520Y-91269963D01*
X103823802Y-91471583D01*
X103731007Y-91695611D01*
X103683700Y-91933437D01*
X103683700Y-92175923D01*
X103731007Y-92413749D01*
X103823802Y-92637777D01*
X103920917Y-92783120D01*
X103687325Y-92783120D01*
X103662479Y-92780673D01*
X103637633Y-92783120D01*
X103637626Y-92783120D01*
X103573174Y-92789468D01*
X103563286Y-92790442D01*
X103541087Y-92797176D01*
X103467905Y-92819375D01*
X103380001Y-92866361D01*
X103302953Y-92929593D01*
X103287109Y-92948899D01*
X102798167Y-93437842D01*
X102721069Y-93405907D01*
X102483243Y-93358600D01*
X102240757Y-93358600D01*
X102002931Y-93405907D01*
X101778903Y-93498702D01*
X101577283Y-93633420D01*
X101405820Y-93804883D01*
X101271102Y-94006503D01*
X101178307Y-94230531D01*
X101131000Y-94468357D01*
X101131000Y-94710843D01*
X101178307Y-94948669D01*
X101271102Y-95172697D01*
X101405820Y-95374317D01*
X101577283Y-95545780D01*
X101778903Y-95680498D01*
X102002931Y-95773293D01*
X102240757Y-95820600D01*
X102483243Y-95820600D01*
X102721069Y-95773293D01*
X102945097Y-95680498D01*
X103146717Y-95545780D01*
X103318180Y-95374317D01*
X103452898Y-95172697D01*
X103545693Y-94948669D01*
X103593000Y-94710843D01*
X103593000Y-94468357D01*
X103545693Y-94230531D01*
X103513758Y-94153433D01*
X103872072Y-93795120D01*
X103973363Y-93795120D01*
X103958520Y-93809963D01*
X103823802Y-94011583D01*
X103731007Y-94235611D01*
X103683700Y-94473437D01*
X103683700Y-94715923D01*
X103731007Y-94953749D01*
X103823802Y-95177777D01*
X103944677Y-95358680D01*
X103651765Y-95358680D01*
X103626919Y-95356233D01*
X103602073Y-95358680D01*
X103602066Y-95358680D01*
X103527727Y-95366002D01*
X103432345Y-95394935D01*
X103344441Y-95441921D01*
X103267393Y-95505153D01*
X103251549Y-95524459D01*
X102798167Y-95977842D01*
X102721069Y-95945907D01*
X102483243Y-95898600D01*
X102240757Y-95898600D01*
X102002931Y-95945907D01*
X101778903Y-96038702D01*
X101577283Y-96173420D01*
X101405820Y-96344883D01*
X101271102Y-96546503D01*
X101178307Y-96770531D01*
X101131000Y-97008357D01*
X101131000Y-97250843D01*
X101178307Y-97488669D01*
X101271102Y-97712697D01*
X101405820Y-97914317D01*
X101577283Y-98085780D01*
X101778903Y-98220498D01*
X102002931Y-98313293D01*
X102240757Y-98360600D01*
X102483243Y-98360600D01*
X102721069Y-98313293D01*
X102945097Y-98220498D01*
X103146717Y-98085780D01*
X103318180Y-97914317D01*
X103452898Y-97712697D01*
X103545693Y-97488669D01*
X103593000Y-97250843D01*
X103593000Y-97008357D01*
X103545693Y-96770531D01*
X103513758Y-96693433D01*
X103836512Y-96370680D01*
X103944677Y-96370680D01*
X103823802Y-96551583D01*
X103731007Y-96775611D01*
X103683700Y-97013437D01*
X103683700Y-97255923D01*
X103731007Y-97493749D01*
X103823802Y-97717777D01*
X103958520Y-97919397D01*
X104129983Y-98090860D01*
X104331603Y-98225578D01*
X104555631Y-98318373D01*
X104793457Y-98365680D01*
X105035943Y-98365680D01*
X105273769Y-98318373D01*
X105350867Y-98286438D01*
X106233109Y-99168680D01*
X106037532Y-99168680D01*
X106005598Y-99091583D01*
X105870880Y-98889963D01*
X105699417Y-98718500D01*
X105497797Y-98583782D01*
X105273769Y-98490987D01*
X105035943Y-98443680D01*
X104793457Y-98443680D01*
X104555631Y-98490987D01*
X104331603Y-98583782D01*
X104129983Y-98718500D01*
X103958520Y-98889963D01*
X103823802Y-99091583D01*
X103731007Y-99315611D01*
X103683700Y-99553437D01*
X103683700Y-99795923D01*
X103731007Y-100033749D01*
X103823802Y-100257777D01*
X103958520Y-100459397D01*
X104129983Y-100630860D01*
X104331603Y-100765578D01*
X104555631Y-100858373D01*
X104793457Y-100905680D01*
X105035943Y-100905680D01*
X105273769Y-100858373D01*
X105497797Y-100765578D01*
X105699417Y-100630860D01*
X105870880Y-100459397D01*
X106005598Y-100257777D01*
X106037532Y-100180680D01*
X106183389Y-100180680D01*
X110475308Y-104472600D01*
X110491153Y-104491907D01*
X110568201Y-104555139D01*
X110645651Y-104596537D01*
X110656105Y-104602125D01*
X110751487Y-104631058D01*
X110850680Y-104640828D01*
X110875534Y-104638380D01*
X112022137Y-104638380D01*
X112022137Y-104682380D01*
X112029493Y-104757069D01*
X112051279Y-104828888D01*
X112052344Y-104830880D01*
X112051279Y-104832872D01*
X112029493Y-104904691D01*
X112022137Y-104979380D01*
X112022137Y-106079380D01*
X112029493Y-106154069D01*
X112051279Y-106225888D01*
X112052344Y-106227880D01*
X112051279Y-106229872D01*
X112029493Y-106301691D01*
X112022137Y-106376380D01*
X112022137Y-106420380D01*
X109127332Y-106420380D01*
X107121416Y-104414465D01*
X107105567Y-104395153D01*
X107028519Y-104331921D01*
X106940615Y-104284935D01*
X106845233Y-104256002D01*
X106770894Y-104248680D01*
X106770886Y-104248680D01*
X106746040Y-104246233D01*
X106721194Y-104248680D01*
X106037532Y-104248680D01*
X106005598Y-104171583D01*
X105870880Y-103969963D01*
X105699417Y-103798500D01*
X105497797Y-103663782D01*
X105273769Y-103570987D01*
X105035943Y-103523680D01*
X104793457Y-103523680D01*
X104555631Y-103570987D01*
X104331603Y-103663782D01*
X104129983Y-103798500D01*
X103958520Y-103969963D01*
X103823802Y-104171583D01*
X103731007Y-104395611D01*
X103683700Y-104633437D01*
X103683700Y-104875923D01*
X103731007Y-105113749D01*
X103823802Y-105337777D01*
X103958520Y-105539397D01*
X104129983Y-105710860D01*
X104331603Y-105845578D01*
X104555631Y-105938373D01*
X104793457Y-105985680D01*
X105035943Y-105985680D01*
X105273769Y-105938373D01*
X105497797Y-105845578D01*
X105699417Y-105710860D01*
X105870880Y-105539397D01*
X106005598Y-105337777D01*
X106037532Y-105260680D01*
X106536449Y-105260680D01*
X108542368Y-107266600D01*
X108558213Y-107285907D01*
X108635261Y-107349139D01*
X108712711Y-107390537D01*
X108723165Y-107396125D01*
X108818547Y-107425058D01*
X108917740Y-107434828D01*
X108942594Y-107432380D01*
X112022137Y-107432380D01*
X112022137Y-107476380D01*
X112029493Y-107551069D01*
X112051279Y-107622888D01*
X112052344Y-107624880D01*
X112051279Y-107626872D01*
X112029493Y-107698691D01*
X112022137Y-107773380D01*
X112022137Y-107817380D01*
X108565992Y-107817380D01*
X107703076Y-106954465D01*
X107687227Y-106935153D01*
X107610179Y-106871921D01*
X107522275Y-106824935D01*
X107426893Y-106796002D01*
X107352554Y-106788680D01*
X107352546Y-106788680D01*
X107327700Y-106786233D01*
X107302854Y-106788680D01*
X106037532Y-106788680D01*
X106005598Y-106711583D01*
X105870880Y-106509963D01*
X105699417Y-106338500D01*
X105497797Y-106203782D01*
X105273769Y-106110987D01*
X105035943Y-106063680D01*
X104793457Y-106063680D01*
X104555631Y-106110987D01*
X104331603Y-106203782D01*
X104129983Y-106338500D01*
X103958520Y-106509963D01*
X103823802Y-106711583D01*
X103731007Y-106935611D01*
X103683700Y-107173437D01*
X103683700Y-107415923D01*
X103731007Y-107653749D01*
X103823802Y-107877777D01*
X103958520Y-108079397D01*
X104129983Y-108250860D01*
X104331603Y-108385578D01*
X104555631Y-108478373D01*
X104793457Y-108525680D01*
X105035943Y-108525680D01*
X105273769Y-108478373D01*
X105497797Y-108385578D01*
X105699417Y-108250860D01*
X105870880Y-108079397D01*
X106005598Y-107877777D01*
X106037532Y-107800680D01*
X107118109Y-107800680D01*
X107981028Y-108663600D01*
X107996873Y-108682907D01*
X108073921Y-108746139D01*
X108161825Y-108793125D01*
X108235007Y-108815324D01*
X108257206Y-108822058D01*
X108267094Y-108823032D01*
X108331546Y-108829380D01*
X108331553Y-108829380D01*
X108356399Y-108831827D01*
X108381245Y-108829380D01*
X112022137Y-108829380D01*
X112022137Y-108873380D01*
X112029493Y-108948069D01*
X112051279Y-109019888D01*
X112052344Y-109021880D01*
X112051279Y-109023872D01*
X112029493Y-109095691D01*
X112022137Y-109170380D01*
X112022137Y-109328680D01*
X106037532Y-109328680D01*
X106005598Y-109251583D01*
X105870880Y-109049963D01*
X105699417Y-108878500D01*
X105497797Y-108743782D01*
X105273769Y-108650987D01*
X105035943Y-108603680D01*
X104793457Y-108603680D01*
X104555631Y-108650987D01*
X104331603Y-108743782D01*
X104129983Y-108878500D01*
X103958520Y-109049963D01*
X103823802Y-109251583D01*
X103731007Y-109475611D01*
X103683700Y-109713437D01*
X103683700Y-109955923D01*
X103731007Y-110193749D01*
X103823802Y-110417777D01*
X103958520Y-110619397D01*
X104129983Y-110790860D01*
X104331603Y-110925578D01*
X104555631Y-111018373D01*
X104793457Y-111065680D01*
X105035943Y-111065680D01*
X105273769Y-111018373D01*
X105497797Y-110925578D01*
X105699417Y-110790860D01*
X105870880Y-110619397D01*
X106005598Y-110417777D01*
X106037532Y-110340680D01*
X112029061Y-110340680D01*
X112029493Y-110345069D01*
X112051279Y-110416888D01*
X112052344Y-110418880D01*
X112051279Y-110420872D01*
X112029493Y-110492691D01*
X112022137Y-110567380D01*
X112022137Y-110611380D01*
X110370074Y-110611380D01*
X110345220Y-110608932D01*
X110320366Y-110611380D01*
X110246027Y-110618702D01*
X110150645Y-110647635D01*
X110062741Y-110694621D01*
X109985693Y-110757853D01*
X109969848Y-110777160D01*
X108878329Y-111868680D01*
X106037532Y-111868680D01*
X106005598Y-111791583D01*
X105870880Y-111589963D01*
X105699417Y-111418500D01*
X105497797Y-111283782D01*
X105273769Y-111190987D01*
X105035943Y-111143680D01*
X104793457Y-111143680D01*
X104555631Y-111190987D01*
X104331603Y-111283782D01*
X104129983Y-111418500D01*
X103958520Y-111589963D01*
X103823802Y-111791583D01*
X103731007Y-112015611D01*
X103683700Y-112253437D01*
X103683700Y-112495923D01*
X103731007Y-112733749D01*
X103823802Y-112957777D01*
X103958520Y-113159397D01*
X104129983Y-113330860D01*
X104331603Y-113465578D01*
X104555631Y-113558373D01*
X104793457Y-113605680D01*
X105035943Y-113605680D01*
X105273769Y-113558373D01*
X105497797Y-113465578D01*
X105699417Y-113330860D01*
X105870880Y-113159397D01*
X106005598Y-112957777D01*
X106037532Y-112880680D01*
X109063074Y-112880680D01*
X109087920Y-112883127D01*
X109112766Y-112880680D01*
X109112774Y-112880680D01*
X109187113Y-112873358D01*
X109282495Y-112844425D01*
X109370399Y-112797439D01*
X109447447Y-112734207D01*
X109463296Y-112714895D01*
X110554812Y-111623380D01*
X112022137Y-111623380D01*
X112022137Y-111667380D01*
X112029493Y-111742069D01*
X112051279Y-111813888D01*
X112086658Y-111880076D01*
X112134269Y-111938091D01*
X112192284Y-111985702D01*
X112258472Y-112021081D01*
X112330291Y-112042867D01*
X112404980Y-112050223D01*
X114604980Y-112050223D01*
X114679669Y-112042867D01*
X114751488Y-112021081D01*
X114817676Y-111985702D01*
X114875691Y-111938091D01*
X114923302Y-111880076D01*
X114958681Y-111813888D01*
X114980467Y-111742069D01*
X114987823Y-111667380D01*
X114987823Y-110567380D01*
X114980467Y-110492691D01*
X114958681Y-110420872D01*
X114957616Y-110418880D01*
X114958681Y-110416888D01*
X114980467Y-110345069D01*
X114987823Y-110270380D01*
X114987823Y-109170380D01*
X114980467Y-109095691D01*
X114958681Y-109023872D01*
X114957616Y-109021880D01*
X114958681Y-109019888D01*
X114980467Y-108948069D01*
X114987823Y-108873380D01*
X114987823Y-107773380D01*
X114980467Y-107698691D01*
X114958681Y-107626872D01*
X114957616Y-107624880D01*
X114958681Y-107622888D01*
X114980467Y-107551069D01*
X114987823Y-107476380D01*
X114987823Y-106376380D01*
X114980467Y-106301691D01*
X114958681Y-106229872D01*
X114957616Y-106227880D01*
X114958681Y-106225888D01*
X114980467Y-106154069D01*
X114987823Y-106079380D01*
X114987823Y-106035380D01*
X118328994Y-106035380D01*
X118353840Y-106037827D01*
X118378686Y-106035380D01*
X118378694Y-106035380D01*
X118453033Y-106028058D01*
X118548415Y-105999125D01*
X118636319Y-105952139D01*
X118713367Y-105888907D01*
X118729216Y-105869595D01*
X119479692Y-105119120D01*
X119622022Y-105119120D01*
X119772909Y-105089107D01*
X119915042Y-105030233D01*
X120042959Y-104944762D01*
X120151742Y-104835979D01*
X120237213Y-104708062D01*
X120296087Y-104565929D01*
X120326100Y-104415042D01*
X120326100Y-104261198D01*
X120296087Y-104110311D01*
X120237213Y-103968178D01*
X120151742Y-103840261D01*
X120042959Y-103731478D01*
X119915042Y-103646007D01*
X119772909Y-103587133D01*
X119622022Y-103557120D01*
X119468178Y-103557120D01*
X119317291Y-103587133D01*
X119175158Y-103646007D01*
X119047241Y-103731478D01*
X118938458Y-103840261D01*
X118852987Y-103968178D01*
X118794113Y-104110311D01*
X118764100Y-104261198D01*
X118764100Y-104403528D01*
X118144249Y-105023380D01*
X114987823Y-105023380D01*
X114987823Y-104979380D01*
X114980467Y-104904691D01*
X114958681Y-104832872D01*
X114957616Y-104830880D01*
X114958681Y-104828888D01*
X114980467Y-104757069D01*
X114987823Y-104682380D01*
X114987823Y-103582380D01*
X114980467Y-103507691D01*
X114958681Y-103435872D01*
X114957616Y-103433880D01*
X114958681Y-103431888D01*
X114980467Y-103360069D01*
X114987823Y-103285380D01*
X114987823Y-102185380D01*
X114980467Y-102110691D01*
X114958681Y-102038872D01*
X114957616Y-102036880D01*
X114958681Y-102034888D01*
X114980467Y-101963069D01*
X114987823Y-101888380D01*
X114987823Y-101844380D01*
X115540459Y-101844380D01*
X115641101Y-101945022D01*
X115769018Y-102030493D01*
X115911151Y-102089367D01*
X116062038Y-102119380D01*
X116215882Y-102119380D01*
X116366769Y-102089367D01*
X116508902Y-102030493D01*
X116636819Y-101945022D01*
X116745602Y-101836239D01*
X116831073Y-101708322D01*
X116889947Y-101566189D01*
X116919960Y-101415302D01*
X116919960Y-101261458D01*
X116889947Y-101110571D01*
X116831073Y-100968438D01*
X116745602Y-100840521D01*
X116636819Y-100731738D01*
X116508902Y-100646267D01*
X116504913Y-100644615D01*
X116531762Y-100633493D01*
X116659679Y-100548022D01*
X116768462Y-100439239D01*
X116853933Y-100311322D01*
X116912807Y-100169189D01*
X116942820Y-100018302D01*
X116942820Y-99864458D01*
X116912807Y-99713571D01*
X116853933Y-99571438D01*
X116768462Y-99443521D01*
X116659679Y-99334738D01*
X116531762Y-99249267D01*
X116521423Y-99244984D01*
X116541922Y-99236493D01*
X116669839Y-99151022D01*
X116778622Y-99042239D01*
X116864093Y-98914322D01*
X116922967Y-98772189D01*
X116952980Y-98621302D01*
X116952980Y-98467458D01*
X116922967Y-98316571D01*
X116864093Y-98174438D01*
X116778622Y-98046521D01*
X116669839Y-97937738D01*
X116541922Y-97852267D01*
X116521423Y-97843776D01*
X116531762Y-97839493D01*
X116659679Y-97754022D01*
X116768462Y-97645239D01*
X116853933Y-97517322D01*
X116912807Y-97375189D01*
X116942820Y-97224302D01*
X116942820Y-97070458D01*
X116912807Y-96919571D01*
X116853933Y-96777438D01*
X116768462Y-96649521D01*
X116659679Y-96540738D01*
X116531762Y-96455267D01*
X116389629Y-96396393D01*
X116238742Y-96366380D01*
X116084898Y-96366380D01*
X115934011Y-96396393D01*
X115791878Y-96455267D01*
X115663961Y-96540738D01*
X115563319Y-96641380D01*
X114987823Y-96641380D01*
X114987823Y-96597380D01*
X114980467Y-96522691D01*
X114958681Y-96450872D01*
X114957616Y-96448880D01*
X114958681Y-96446888D01*
X114980467Y-96375069D01*
X114987823Y-96300380D01*
X114987823Y-95200380D01*
X114980467Y-95125691D01*
X114958681Y-95053872D01*
X114957616Y-95051880D01*
X114958681Y-95049888D01*
X114980467Y-94978069D01*
X114987823Y-94903380D01*
X114987823Y-93803380D01*
X114980467Y-93728691D01*
X114958681Y-93656872D01*
X114957616Y-93654880D01*
X114958681Y-93652888D01*
X114980467Y-93581069D01*
X114987823Y-93506380D01*
X114987823Y-92406380D01*
X114980467Y-92331691D01*
X114974421Y-92311760D01*
X115213737Y-92311760D01*
X115213737Y-93294380D01*
X115221093Y-93369069D01*
X115242879Y-93440888D01*
X115278258Y-93507076D01*
X115325869Y-93565091D01*
X115383884Y-93612702D01*
X115450072Y-93648081D01*
X115521891Y-93669867D01*
X115596580Y-93677223D01*
X116696580Y-93677223D01*
X116771269Y-93669867D01*
X116843088Y-93648081D01*
X116845080Y-93647016D01*
X116847072Y-93648081D01*
X116918891Y-93669867D01*
X116993580Y-93677223D01*
X117037581Y-93677223D01*
X117037581Y-93775487D01*
X116255169Y-94557900D01*
X116112838Y-94557900D01*
X115961951Y-94587913D01*
X115819818Y-94646787D01*
X115691901Y-94732258D01*
X115583118Y-94841041D01*
X115497647Y-94968958D01*
X115438773Y-95111091D01*
X115408760Y-95261978D01*
X115408760Y-95415822D01*
X115438773Y-95566709D01*
X115497647Y-95708842D01*
X115583118Y-95836759D01*
X115691901Y-95945542D01*
X115819818Y-96031013D01*
X115961951Y-96089887D01*
X116112838Y-96119900D01*
X116266682Y-96119900D01*
X116417569Y-96089887D01*
X116559702Y-96031013D01*
X116687619Y-95945542D01*
X116796402Y-95836759D01*
X116881873Y-95708842D01*
X116940747Y-95566709D01*
X116970760Y-95415822D01*
X116970760Y-95273491D01*
X117883800Y-94360452D01*
X117903107Y-94344607D01*
X117966339Y-94267559D01*
X118013325Y-94179655D01*
X118042258Y-94084273D01*
X118049580Y-94009934D01*
X118052028Y-93985080D01*
X118049580Y-93960226D01*
X118049580Y-93677223D01*
X118093580Y-93677223D01*
X118168269Y-93669867D01*
X118240088Y-93648081D01*
X118242080Y-93647016D01*
X118244072Y-93648081D01*
X118315891Y-93669867D01*
X118390580Y-93677223D01*
X118434580Y-93677223D01*
X118434581Y-99898744D01*
X118432133Y-99923600D01*
X118441902Y-100022792D01*
X118470835Y-100118174D01*
X118484867Y-100144425D01*
X118517822Y-100206079D01*
X118581054Y-100283127D01*
X118600361Y-100298972D01*
X125462080Y-107160692D01*
X125462080Y-107303022D01*
X125492093Y-107453909D01*
X125550967Y-107596042D01*
X125636438Y-107723959D01*
X125745221Y-107832742D01*
X125873138Y-107918213D01*
X126015271Y-107977087D01*
X126166158Y-108007100D01*
X126320002Y-108007100D01*
X126470889Y-107977087D01*
X126613022Y-107918213D01*
X126740939Y-107832742D01*
X126849722Y-107723959D01*
X126935193Y-107596042D01*
X126994067Y-107453909D01*
X127024080Y-107303022D01*
X127024080Y-107149178D01*
X126994067Y-106998291D01*
X126935193Y-106856158D01*
X126849722Y-106728241D01*
X126740939Y-106619458D01*
X126613022Y-106533987D01*
X126470889Y-106475113D01*
X126320002Y-106445100D01*
X126177672Y-106445100D01*
X119446580Y-99714009D01*
X119446580Y-93832130D01*
X119543400Y-93883882D01*
X119663098Y-93920192D01*
X119787580Y-93932452D01*
X120051830Y-93929380D01*
X120210580Y-93770630D01*
X120210580Y-92321380D01*
X120190580Y-92321380D01*
X120190580Y-92067380D01*
X120210580Y-92067380D01*
X120210580Y-90618130D01*
X120464580Y-90618130D01*
X120464580Y-92067380D01*
X120484580Y-92067380D01*
X120484580Y-92321380D01*
X120464580Y-92321380D01*
X120464580Y-93770630D01*
X120623330Y-93929380D01*
X120887580Y-93932452D01*
X121012062Y-93920192D01*
X121131760Y-93883882D01*
X121242074Y-93824917D01*
X121338765Y-93745565D01*
X121394852Y-93677223D01*
X122284580Y-93677223D01*
X122359269Y-93669867D01*
X122431088Y-93648081D01*
X122433080Y-93647016D01*
X122435072Y-93648081D01*
X122506891Y-93669867D01*
X122581580Y-93677223D01*
X123681580Y-93677223D01*
X123756269Y-93669867D01*
X123828088Y-93648081D01*
X123830080Y-93647016D01*
X123832072Y-93648081D01*
X123903891Y-93669867D01*
X123978580Y-93677223D01*
X124868308Y-93677223D01*
X124924395Y-93745565D01*
X125021086Y-93824917D01*
X125131400Y-93883882D01*
X125251098Y-93920192D01*
X125375580Y-93932452D01*
X125639830Y-93929380D01*
X125798580Y-93770630D01*
X125798580Y-92321380D01*
X125778580Y-92321380D01*
X125778580Y-92067380D01*
X125798580Y-92067380D01*
X125798580Y-90618130D01*
X125639830Y-90459380D01*
X125375580Y-90456308D01*
X125251098Y-90468568D01*
X125131400Y-90504878D01*
X125034580Y-90556630D01*
X125034580Y-90336411D01*
X126010712Y-89360280D01*
X127137019Y-89360280D01*
X127035978Y-89461321D01*
X126950507Y-89589238D01*
X126891633Y-89731371D01*
X126861620Y-89882258D01*
X126861620Y-90036102D01*
X126866275Y-90059503D01*
X126852835Y-90084646D01*
X126823902Y-90180028D01*
X126814133Y-90279220D01*
X126816581Y-90304076D01*
X126816581Y-90556631D01*
X126719760Y-90504878D01*
X126600062Y-90468568D01*
X126475580Y-90456308D01*
X126211330Y-90459380D01*
X126052580Y-90618130D01*
X126052580Y-92067380D01*
X126072580Y-92067380D01*
X126072580Y-92321380D01*
X126052580Y-92321380D01*
X126052580Y-93770630D01*
X126211330Y-93929380D01*
X126475580Y-93932452D01*
X126600062Y-93920192D01*
X126719760Y-93883882D01*
X126830074Y-93824917D01*
X126926765Y-93745565D01*
X126982852Y-93677223D01*
X127871146Y-93677223D01*
X127854069Y-93694300D01*
X127711738Y-93694300D01*
X127560851Y-93724313D01*
X127418718Y-93783187D01*
X127290801Y-93868658D01*
X127182018Y-93977441D01*
X127096547Y-94105358D01*
X127037673Y-94247491D01*
X127007660Y-94398378D01*
X127007660Y-94552222D01*
X127037673Y-94703109D01*
X127096547Y-94845242D01*
X127182018Y-94973159D01*
X127290801Y-95081942D01*
X127418718Y-95167413D01*
X127560851Y-95226287D01*
X127711738Y-95256300D01*
X127865582Y-95256300D01*
X128016469Y-95226287D01*
X128158602Y-95167413D01*
X128235543Y-95116003D01*
X128230213Y-95128871D01*
X128200200Y-95279758D01*
X128200200Y-95433602D01*
X128230213Y-95584489D01*
X128289087Y-95726622D01*
X128374558Y-95854539D01*
X128483341Y-95963322D01*
X128611258Y-96048793D01*
X128753391Y-96107667D01*
X128904278Y-96137680D01*
X129058122Y-96137680D01*
X129209009Y-96107667D01*
X129351142Y-96048793D01*
X129479059Y-95963322D01*
X129587842Y-95854539D01*
X129673313Y-95726622D01*
X129732187Y-95584489D01*
X129762200Y-95433602D01*
X129762200Y-95291271D01*
X130456800Y-94596672D01*
X130476107Y-94580827D01*
X130539339Y-94503779D01*
X130586325Y-94415875D01*
X130615258Y-94320493D01*
X130622580Y-94246154D01*
X130625028Y-94221300D01*
X130622580Y-94196446D01*
X130622580Y-93677223D01*
X130666580Y-93677223D01*
X130741269Y-93669867D01*
X130813088Y-93648081D01*
X130879276Y-93612702D01*
X130937291Y-93565091D01*
X130984902Y-93507076D01*
X131020281Y-93440888D01*
X131042067Y-93369069D01*
X131049423Y-93294380D01*
X131049423Y-92406380D01*
X131300737Y-92406380D01*
X131300737Y-93506380D01*
X131308093Y-93581069D01*
X131329879Y-93652888D01*
X131330944Y-93654880D01*
X131329879Y-93656872D01*
X131308093Y-93728691D01*
X131300737Y-93803380D01*
X131300737Y-94903380D01*
X131308093Y-94978069D01*
X131329879Y-95049888D01*
X131330944Y-95051880D01*
X131329879Y-95053872D01*
X131308093Y-95125691D01*
X131300737Y-95200380D01*
X131300737Y-96300380D01*
X131308093Y-96375069D01*
X131329879Y-96446888D01*
X131330944Y-96448880D01*
X131329879Y-96450872D01*
X131308093Y-96522691D01*
X131300737Y-96597380D01*
X131300737Y-97697380D01*
X131308093Y-97772069D01*
X131329879Y-97843888D01*
X131330944Y-97845880D01*
X131329879Y-97847872D01*
X131308093Y-97919691D01*
X131300737Y-97994380D01*
X131300737Y-99094380D01*
X131308093Y-99169069D01*
X131329879Y-99240888D01*
X131330944Y-99242880D01*
X131329879Y-99244872D01*
X131308093Y-99316691D01*
X131300737Y-99391380D01*
X131300737Y-100491380D01*
X131308093Y-100566069D01*
X131329879Y-100637888D01*
X131330944Y-100639880D01*
X131329879Y-100641872D01*
X131308093Y-100713691D01*
X131300737Y-100788380D01*
X131300737Y-101888380D01*
X131308093Y-101963069D01*
X131329879Y-102034888D01*
X131330944Y-102036880D01*
X131329879Y-102038872D01*
X131308093Y-102110691D01*
X131300737Y-102185380D01*
X131300737Y-103285380D01*
X131308093Y-103360069D01*
X131329879Y-103431888D01*
X131330944Y-103433880D01*
X131329879Y-103435872D01*
X131308093Y-103507691D01*
X131300737Y-103582380D01*
X131300737Y-104682380D01*
X131308093Y-104757069D01*
X131329879Y-104828888D01*
X131330944Y-104830880D01*
X131329879Y-104832872D01*
X131308093Y-104904691D01*
X131300737Y-104979380D01*
X131300737Y-106079380D01*
X131308093Y-106154069D01*
X131329879Y-106225888D01*
X131330944Y-106227880D01*
X131329879Y-106229872D01*
X131308093Y-106301691D01*
X131300737Y-106376380D01*
X131300737Y-107476380D01*
X131308093Y-107551069D01*
X131329879Y-107622888D01*
X131330944Y-107624880D01*
X131329879Y-107626872D01*
X131308093Y-107698691D01*
X131300737Y-107773380D01*
X131300737Y-108873380D01*
X131308093Y-108948069D01*
X131329879Y-109019888D01*
X131330944Y-109021880D01*
X131329879Y-109023872D01*
X131308093Y-109095691D01*
X131300737Y-109170380D01*
X131300737Y-110270380D01*
X131308093Y-110345069D01*
X131329879Y-110416888D01*
X131330944Y-110418880D01*
X131329879Y-110420872D01*
X131308093Y-110492691D01*
X131300737Y-110567380D01*
X131300737Y-111667380D01*
X131308093Y-111742069D01*
X131329879Y-111813888D01*
X131365258Y-111880076D01*
X131412869Y-111938091D01*
X131470884Y-111985702D01*
X131537072Y-112021081D01*
X131608891Y-112042867D01*
X131683580Y-112050223D01*
X133883580Y-112050223D01*
X133958269Y-112042867D01*
X134030088Y-112021081D01*
X134096276Y-111985702D01*
X134154291Y-111938091D01*
X134201902Y-111880076D01*
X134231233Y-111825204D01*
X135941348Y-113535320D01*
X135957193Y-113554627D01*
X136034241Y-113617859D01*
X136122145Y-113664845D01*
X136217527Y-113693778D01*
X136316720Y-113703548D01*
X136341574Y-113701100D01*
X139675154Y-113701100D01*
X139700000Y-113703547D01*
X139724846Y-113701100D01*
X139724854Y-113701100D01*
X139799193Y-113693778D01*
X139894575Y-113664845D01*
X139982479Y-113617859D01*
X140059527Y-113554627D01*
X140075376Y-113535315D01*
X140633492Y-112977200D01*
X140659968Y-112977200D01*
X140691902Y-113054297D01*
X140826620Y-113255917D01*
X140998083Y-113427380D01*
X141199703Y-113562098D01*
X141423731Y-113654893D01*
X141661557Y-113702200D01*
X141904043Y-113702200D01*
X142141869Y-113654893D01*
X142365897Y-113562098D01*
X142567517Y-113427380D01*
X142738980Y-113255917D01*
X142873698Y-113054297D01*
X142966493Y-112830269D01*
X143013800Y-112592443D01*
X143013800Y-112349957D01*
X143091800Y-112349957D01*
X143091800Y-112592443D01*
X143139107Y-112830269D01*
X143231902Y-113054297D01*
X143366620Y-113255917D01*
X143538083Y-113427380D01*
X143739703Y-113562098D01*
X143963731Y-113654893D01*
X144201557Y-113702200D01*
X144444043Y-113702200D01*
X144681869Y-113654893D01*
X144905897Y-113562098D01*
X145107517Y-113427380D01*
X145278980Y-113255917D01*
X145413698Y-113054297D01*
X145506493Y-112830269D01*
X145553800Y-112592443D01*
X145553800Y-112349957D01*
X145506493Y-112112131D01*
X145413698Y-111888103D01*
X145278980Y-111686483D01*
X145107517Y-111515020D01*
X144905897Y-111380302D01*
X144681869Y-111287507D01*
X144444043Y-111240200D01*
X144201557Y-111240200D01*
X143963731Y-111287507D01*
X143739703Y-111380302D01*
X143538083Y-111515020D01*
X143366620Y-111686483D01*
X143231902Y-111888103D01*
X143139107Y-112112131D01*
X143091800Y-112349957D01*
X143013800Y-112349957D01*
X142966493Y-112112131D01*
X142873698Y-111888103D01*
X142738980Y-111686483D01*
X142567517Y-111515020D01*
X142365897Y-111380302D01*
X142141869Y-111287507D01*
X141904043Y-111240200D01*
X141661557Y-111240200D01*
X141423731Y-111287507D01*
X141199703Y-111380302D01*
X140998083Y-111515020D01*
X140826620Y-111686483D01*
X140691902Y-111888103D01*
X140659968Y-111965200D01*
X140448745Y-111965200D01*
X140423899Y-111962753D01*
X140399053Y-111965200D01*
X140399046Y-111965200D01*
X140334594Y-111971548D01*
X140324706Y-111972522D01*
X140281257Y-111985702D01*
X140229325Y-112001455D01*
X140141421Y-112048441D01*
X140064373Y-112111673D01*
X140048528Y-112130980D01*
X139490409Y-112689100D01*
X138620333Y-112689100D01*
X138796848Y-112571156D01*
X139037956Y-112330048D01*
X139227393Y-112046536D01*
X139357879Y-111731514D01*
X139424400Y-111397089D01*
X139424400Y-111056111D01*
X139357879Y-110721686D01*
X139227393Y-110406664D01*
X139037956Y-110123152D01*
X138796848Y-109882044D01*
X138513336Y-109692607D01*
X138213763Y-109568520D01*
X139091629Y-109568520D01*
X139794528Y-110271420D01*
X139810373Y-110290727D01*
X139887421Y-110353959D01*
X139975325Y-110400945D01*
X140070707Y-110429878D01*
X140145046Y-110437200D01*
X140145053Y-110437200D01*
X140169899Y-110439647D01*
X140194745Y-110437200D01*
X140659968Y-110437200D01*
X140691902Y-110514297D01*
X140826620Y-110715917D01*
X140998083Y-110887380D01*
X141199703Y-111022098D01*
X141423731Y-111114893D01*
X141661557Y-111162200D01*
X141904043Y-111162200D01*
X142141869Y-111114893D01*
X142365897Y-111022098D01*
X142567517Y-110887380D01*
X142738980Y-110715917D01*
X142873698Y-110514297D01*
X142966493Y-110290269D01*
X143013800Y-110052443D01*
X143013800Y-109809957D01*
X143091800Y-109809957D01*
X143091800Y-110052443D01*
X143139107Y-110290269D01*
X143231902Y-110514297D01*
X143366620Y-110715917D01*
X143538083Y-110887380D01*
X143739703Y-111022098D01*
X143963731Y-111114893D01*
X144201557Y-111162200D01*
X144444043Y-111162200D01*
X144681869Y-111114893D01*
X144905897Y-111022098D01*
X145107517Y-110887380D01*
X145278980Y-110715917D01*
X145413698Y-110514297D01*
X145506493Y-110290269D01*
X145553800Y-110052443D01*
X145553800Y-109809957D01*
X145506493Y-109572131D01*
X145413698Y-109348103D01*
X145278980Y-109146483D01*
X145107517Y-108975020D01*
X144905897Y-108840302D01*
X144681869Y-108747507D01*
X144444043Y-108700200D01*
X144201557Y-108700200D01*
X143963731Y-108747507D01*
X143739703Y-108840302D01*
X143538083Y-108975020D01*
X143366620Y-109146483D01*
X143231902Y-109348103D01*
X143139107Y-109572131D01*
X143091800Y-109809957D01*
X143013800Y-109809957D01*
X142966493Y-109572131D01*
X142873698Y-109348103D01*
X142738980Y-109146483D01*
X142567517Y-108975020D01*
X142365897Y-108840302D01*
X142141869Y-108747507D01*
X141904043Y-108700200D01*
X141661557Y-108700200D01*
X141423731Y-108747507D01*
X141199703Y-108840302D01*
X140998083Y-108975020D01*
X140826620Y-109146483D01*
X140691902Y-109348103D01*
X140659968Y-109425200D01*
X140379492Y-109425200D01*
X139676596Y-108722305D01*
X139660747Y-108702993D01*
X139583699Y-108639761D01*
X139495795Y-108592775D01*
X139400413Y-108563842D01*
X139326074Y-108556520D01*
X139326066Y-108556520D01*
X139301220Y-108554073D01*
X139276374Y-108556520D01*
X138551771Y-108556520D01*
X139211092Y-107897200D01*
X140659968Y-107897200D01*
X140691902Y-107974297D01*
X140826620Y-108175917D01*
X140998083Y-108347380D01*
X141199703Y-108482098D01*
X141423731Y-108574893D01*
X141661557Y-108622200D01*
X141904043Y-108622200D01*
X142141869Y-108574893D01*
X142365897Y-108482098D01*
X142567517Y-108347380D01*
X142738980Y-108175917D01*
X142873698Y-107974297D01*
X142966493Y-107750269D01*
X143013800Y-107512443D01*
X143013800Y-107269957D01*
X143091800Y-107269957D01*
X143091800Y-107512443D01*
X143139107Y-107750269D01*
X143231902Y-107974297D01*
X143366620Y-108175917D01*
X143538083Y-108347380D01*
X143739703Y-108482098D01*
X143963731Y-108574893D01*
X144201557Y-108622200D01*
X144444043Y-108622200D01*
X144681869Y-108574893D01*
X144905897Y-108482098D01*
X145107517Y-108347380D01*
X145278980Y-108175917D01*
X145413698Y-107974297D01*
X145506493Y-107750269D01*
X145553800Y-107512443D01*
X145553800Y-107269957D01*
X145506493Y-107032131D01*
X145413698Y-106808103D01*
X145278980Y-106606483D01*
X145107517Y-106435020D01*
X144905897Y-106300302D01*
X144681869Y-106207507D01*
X144444043Y-106160200D01*
X144201557Y-106160200D01*
X143963731Y-106207507D01*
X143739703Y-106300302D01*
X143538083Y-106435020D01*
X143366620Y-106606483D01*
X143231902Y-106808103D01*
X143139107Y-107032131D01*
X143091800Y-107269957D01*
X143013800Y-107269957D01*
X142966493Y-107032131D01*
X142873698Y-106808103D01*
X142738980Y-106606483D01*
X142567517Y-106435020D01*
X142365897Y-106300302D01*
X142141869Y-106207507D01*
X141904043Y-106160200D01*
X141661557Y-106160200D01*
X141423731Y-106207507D01*
X141199703Y-106300302D01*
X140998083Y-106435020D01*
X140826620Y-106606483D01*
X140691902Y-106808103D01*
X140659968Y-106885200D01*
X139026354Y-106885200D01*
X139001500Y-106882752D01*
X138976646Y-106885200D01*
X138902307Y-106892522D01*
X138806925Y-106921455D01*
X138719021Y-106968441D01*
X138641973Y-107031673D01*
X138626128Y-107050980D01*
X137859729Y-107817380D01*
X134266423Y-107817380D01*
X134266423Y-107773380D01*
X134259067Y-107698691D01*
X134237281Y-107626872D01*
X134236216Y-107624880D01*
X134237281Y-107622888D01*
X134259067Y-107551069D01*
X134266423Y-107476380D01*
X134266423Y-107432380D01*
X137650774Y-107432380D01*
X137675620Y-107434827D01*
X137700466Y-107432380D01*
X137700474Y-107432380D01*
X137774813Y-107425058D01*
X137870195Y-107396125D01*
X137958099Y-107349139D01*
X138035147Y-107285907D01*
X138050996Y-107266595D01*
X139960392Y-105357200D01*
X140659968Y-105357200D01*
X140691902Y-105434297D01*
X140826620Y-105635917D01*
X140998083Y-105807380D01*
X141199703Y-105942098D01*
X141423731Y-106034893D01*
X141661557Y-106082200D01*
X141904043Y-106082200D01*
X142141869Y-106034893D01*
X142365897Y-105942098D01*
X142567517Y-105807380D01*
X142738980Y-105635917D01*
X142873698Y-105434297D01*
X142966493Y-105210269D01*
X143013800Y-104972443D01*
X143013800Y-104729957D01*
X143091800Y-104729957D01*
X143091800Y-104972443D01*
X143139107Y-105210269D01*
X143231902Y-105434297D01*
X143366620Y-105635917D01*
X143538083Y-105807380D01*
X143739703Y-105942098D01*
X143963731Y-106034893D01*
X144201557Y-106082200D01*
X144444043Y-106082200D01*
X144681869Y-106034893D01*
X144905897Y-105942098D01*
X145107517Y-105807380D01*
X145278980Y-105635917D01*
X145413698Y-105434297D01*
X145506493Y-105210269D01*
X145553800Y-104972443D01*
X145553800Y-104729957D01*
X145506493Y-104492131D01*
X145413698Y-104268103D01*
X145278980Y-104066483D01*
X145107517Y-103895020D01*
X144905897Y-103760302D01*
X144681869Y-103667507D01*
X144444043Y-103620200D01*
X144201557Y-103620200D01*
X143963731Y-103667507D01*
X143739703Y-103760302D01*
X143538083Y-103895020D01*
X143366620Y-104066483D01*
X143231902Y-104268103D01*
X143139107Y-104492131D01*
X143091800Y-104729957D01*
X143013800Y-104729957D01*
X142966493Y-104492131D01*
X142873698Y-104268103D01*
X142738980Y-104066483D01*
X142567517Y-103895020D01*
X142365897Y-103760302D01*
X142141869Y-103667507D01*
X141904043Y-103620200D01*
X141661557Y-103620200D01*
X141423731Y-103667507D01*
X141199703Y-103760302D01*
X140998083Y-103895020D01*
X140826620Y-104066483D01*
X140691902Y-104268103D01*
X140659968Y-104345200D01*
X139775654Y-104345200D01*
X139750800Y-104342752D01*
X139725946Y-104345200D01*
X139651607Y-104352522D01*
X139556225Y-104381455D01*
X139468321Y-104428441D01*
X139391273Y-104491673D01*
X139375428Y-104510980D01*
X137466029Y-106420380D01*
X134266423Y-106420380D01*
X134266423Y-106376380D01*
X134259067Y-106301691D01*
X134237281Y-106229872D01*
X134236216Y-106227880D01*
X134237281Y-106225888D01*
X134259067Y-106154069D01*
X134266423Y-106079380D01*
X134266423Y-106035380D01*
X134679359Y-106035380D01*
X134780001Y-106136022D01*
X134907918Y-106221493D01*
X135050051Y-106280367D01*
X135200938Y-106310380D01*
X135354782Y-106310380D01*
X135505669Y-106280367D01*
X135647802Y-106221493D01*
X135775719Y-106136022D01*
X135884502Y-106027239D01*
X135969973Y-105899322D01*
X136028847Y-105757189D01*
X136058860Y-105606302D01*
X136058860Y-105452458D01*
X136028847Y-105301571D01*
X135969973Y-105159438D01*
X135884502Y-105031521D01*
X135775719Y-104922738D01*
X135647802Y-104837267D01*
X135505669Y-104778393D01*
X135354782Y-104748380D01*
X135200938Y-104748380D01*
X135050051Y-104778393D01*
X134907918Y-104837267D01*
X134780001Y-104922738D01*
X134679359Y-105023380D01*
X134266423Y-105023380D01*
X134266423Y-104979380D01*
X134259067Y-104904691D01*
X134237281Y-104832872D01*
X134236216Y-104830880D01*
X134237281Y-104828888D01*
X134259067Y-104757069D01*
X134266423Y-104682380D01*
X134266423Y-104638380D01*
X135849914Y-104638380D01*
X135874760Y-104640827D01*
X135899606Y-104638380D01*
X135899614Y-104638380D01*
X135973953Y-104631058D01*
X136069335Y-104602125D01*
X136157239Y-104555139D01*
X136234287Y-104491907D01*
X136250136Y-104472595D01*
X138532774Y-102189957D01*
X140551800Y-102189957D01*
X140551800Y-102432443D01*
X140599107Y-102670269D01*
X140691902Y-102894297D01*
X140826620Y-103095917D01*
X140998083Y-103267380D01*
X141199703Y-103402098D01*
X141423731Y-103494893D01*
X141661557Y-103542200D01*
X141904043Y-103542200D01*
X142141869Y-103494893D01*
X142365897Y-103402098D01*
X142567517Y-103267380D01*
X142738980Y-103095917D01*
X142873698Y-102894297D01*
X142966493Y-102670269D01*
X143013800Y-102432443D01*
X143013800Y-102189957D01*
X143091800Y-102189957D01*
X143091800Y-102432443D01*
X143139107Y-102670269D01*
X143231902Y-102894297D01*
X143366620Y-103095917D01*
X143538083Y-103267380D01*
X143739703Y-103402098D01*
X143963731Y-103494893D01*
X144201557Y-103542200D01*
X144444043Y-103542200D01*
X144681869Y-103494893D01*
X144905897Y-103402098D01*
X145107517Y-103267380D01*
X145278980Y-103095917D01*
X145413698Y-102894297D01*
X145506493Y-102670269D01*
X145553800Y-102432443D01*
X145553800Y-102189957D01*
X145506493Y-101952131D01*
X145413698Y-101728103D01*
X145278980Y-101526483D01*
X145107517Y-101355020D01*
X144905897Y-101220302D01*
X144681869Y-101127507D01*
X144444043Y-101080200D01*
X144201557Y-101080200D01*
X143963731Y-101127507D01*
X143739703Y-101220302D01*
X143538083Y-101355020D01*
X143366620Y-101526483D01*
X143231902Y-101728103D01*
X143139107Y-101952131D01*
X143091800Y-102189957D01*
X143013800Y-102189957D01*
X142966493Y-101952131D01*
X142873698Y-101728103D01*
X142738980Y-101526483D01*
X142567517Y-101355020D01*
X142365897Y-101220302D01*
X142141869Y-101127507D01*
X141904043Y-101080200D01*
X141661557Y-101080200D01*
X141423731Y-101127507D01*
X141199703Y-101220302D01*
X140998083Y-101355020D01*
X140826620Y-101526483D01*
X140691902Y-101728103D01*
X140599107Y-101952131D01*
X140551800Y-102189957D01*
X138532774Y-102189957D01*
X140445532Y-100277200D01*
X140659968Y-100277200D01*
X140691902Y-100354297D01*
X140826620Y-100555917D01*
X140998083Y-100727380D01*
X141199703Y-100862098D01*
X141423731Y-100954893D01*
X141661557Y-101002200D01*
X141904043Y-101002200D01*
X142141869Y-100954893D01*
X142365897Y-100862098D01*
X142567517Y-100727380D01*
X142738980Y-100555917D01*
X142873698Y-100354297D01*
X142966493Y-100130269D01*
X143013800Y-99892443D01*
X143013800Y-99649957D01*
X143091800Y-99649957D01*
X143091800Y-99892443D01*
X143139107Y-100130269D01*
X143231902Y-100354297D01*
X143366620Y-100555917D01*
X143538083Y-100727380D01*
X143739703Y-100862098D01*
X143963731Y-100954893D01*
X144201557Y-101002200D01*
X144444043Y-101002200D01*
X144681869Y-100954893D01*
X144905897Y-100862098D01*
X145107517Y-100727380D01*
X145278980Y-100555917D01*
X145413698Y-100354297D01*
X145506493Y-100130269D01*
X145553800Y-99892443D01*
X145553800Y-99649957D01*
X145506493Y-99412131D01*
X145413698Y-99188103D01*
X145278980Y-98986483D01*
X145107517Y-98815020D01*
X144905897Y-98680302D01*
X144681869Y-98587507D01*
X144444043Y-98540200D01*
X144201557Y-98540200D01*
X143963731Y-98587507D01*
X143739703Y-98680302D01*
X143538083Y-98815020D01*
X143366620Y-98986483D01*
X143231902Y-99188103D01*
X143139107Y-99412131D01*
X143091800Y-99649957D01*
X143013800Y-99649957D01*
X142966493Y-99412131D01*
X142873698Y-99188103D01*
X142738980Y-98986483D01*
X142567517Y-98815020D01*
X142365897Y-98680302D01*
X142141869Y-98587507D01*
X141904043Y-98540200D01*
X141661557Y-98540200D01*
X141423731Y-98587507D01*
X141199703Y-98680302D01*
X140998083Y-98815020D01*
X140826620Y-98986483D01*
X140691902Y-99188103D01*
X140659968Y-99265200D01*
X140464392Y-99265200D01*
X141346634Y-98382958D01*
X141423731Y-98414893D01*
X141661557Y-98462200D01*
X141904043Y-98462200D01*
X142141869Y-98414893D01*
X142365897Y-98322098D01*
X142567517Y-98187380D01*
X142738980Y-98015917D01*
X142873698Y-97814297D01*
X142966493Y-97590269D01*
X143013800Y-97352443D01*
X143013800Y-97109957D01*
X143091800Y-97109957D01*
X143091800Y-97352443D01*
X143139107Y-97590269D01*
X143231902Y-97814297D01*
X143366620Y-98015917D01*
X143538083Y-98187380D01*
X143739703Y-98322098D01*
X143963731Y-98414893D01*
X144201557Y-98462200D01*
X144444043Y-98462200D01*
X144681869Y-98414893D01*
X144905897Y-98322098D01*
X145107517Y-98187380D01*
X145278980Y-98015917D01*
X145413698Y-97814297D01*
X145506493Y-97590269D01*
X145553800Y-97352443D01*
X145553800Y-97109957D01*
X145506493Y-96872131D01*
X145413698Y-96648103D01*
X145278980Y-96446483D01*
X145107517Y-96275020D01*
X144905897Y-96140302D01*
X144681869Y-96047507D01*
X144444043Y-96000200D01*
X144201557Y-96000200D01*
X143963731Y-96047507D01*
X143739703Y-96140302D01*
X143538083Y-96275020D01*
X143366620Y-96446483D01*
X143231902Y-96648103D01*
X143139107Y-96872131D01*
X143091800Y-97109957D01*
X143013800Y-97109957D01*
X142966493Y-96872131D01*
X142873698Y-96648103D01*
X142738980Y-96446483D01*
X142567517Y-96275020D01*
X142365897Y-96140302D01*
X142141869Y-96047507D01*
X141904043Y-96000200D01*
X141661557Y-96000200D01*
X141423731Y-96047507D01*
X141199703Y-96140302D01*
X140998083Y-96275020D01*
X140826620Y-96446483D01*
X140691902Y-96648103D01*
X140599107Y-96872131D01*
X140551800Y-97109957D01*
X140551800Y-97352443D01*
X140599107Y-97590269D01*
X140631042Y-97667366D01*
X136069029Y-102229380D01*
X134266423Y-102229380D01*
X134266423Y-102185380D01*
X134259067Y-102110691D01*
X134237281Y-102038872D01*
X134236216Y-102036880D01*
X134237281Y-102034888D01*
X134259067Y-101963069D01*
X134266423Y-101888380D01*
X134266423Y-101844380D01*
X135217454Y-101844380D01*
X135242300Y-101846827D01*
X135267146Y-101844380D01*
X135267154Y-101844380D01*
X135341493Y-101837058D01*
X135436875Y-101808125D01*
X135524779Y-101761139D01*
X135580366Y-101715520D01*
X135723082Y-101715520D01*
X135873969Y-101685507D01*
X136016102Y-101626633D01*
X136144019Y-101541162D01*
X136252802Y-101432379D01*
X136338273Y-101304462D01*
X136397147Y-101162329D01*
X136427160Y-101011442D01*
X136427160Y-100857598D01*
X136397147Y-100706711D01*
X136338273Y-100564578D01*
X136259964Y-100447380D01*
X137071654Y-100447380D01*
X137096500Y-100449827D01*
X137121346Y-100447380D01*
X137121354Y-100447380D01*
X137195693Y-100440058D01*
X137291075Y-100411125D01*
X137378979Y-100364139D01*
X137456027Y-100300907D01*
X137471876Y-100281595D01*
X137483211Y-100270260D01*
X137625542Y-100270260D01*
X137776429Y-100240247D01*
X137918562Y-100181373D01*
X138046479Y-100095902D01*
X138155262Y-99987119D01*
X138240733Y-99859202D01*
X138299607Y-99717069D01*
X138329620Y-99566182D01*
X138329620Y-99412338D01*
X138299607Y-99261451D01*
X138240733Y-99119318D01*
X138155262Y-98991401D01*
X138046479Y-98882618D01*
X137918562Y-98797147D01*
X137776429Y-98738273D01*
X137625542Y-98708260D01*
X137471698Y-98708260D01*
X137320811Y-98738273D01*
X137178678Y-98797147D01*
X137050761Y-98882618D01*
X136941978Y-98991401D01*
X136856507Y-99119318D01*
X136797633Y-99261451D01*
X136767620Y-99412338D01*
X136767620Y-99435380D01*
X134266423Y-99435380D01*
X134266423Y-99391380D01*
X134259067Y-99316691D01*
X134237281Y-99244872D01*
X134236216Y-99242880D01*
X134237281Y-99240888D01*
X134259067Y-99169069D01*
X134266423Y-99094380D01*
X134266423Y-99050380D01*
X134773339Y-99050380D01*
X134873981Y-99151022D01*
X135001898Y-99236493D01*
X135144031Y-99295367D01*
X135294918Y-99325380D01*
X135448762Y-99325380D01*
X135599649Y-99295367D01*
X135741782Y-99236493D01*
X135869699Y-99151022D01*
X135978482Y-99042239D01*
X136063953Y-98914322D01*
X136122827Y-98772189D01*
X136152840Y-98621302D01*
X136152840Y-98467458D01*
X136122827Y-98316571D01*
X136063953Y-98174438D01*
X135978482Y-98046521D01*
X135869699Y-97937738D01*
X135741782Y-97852267D01*
X135599649Y-97793393D01*
X135448762Y-97763380D01*
X135294918Y-97763380D01*
X135144031Y-97793393D01*
X135001898Y-97852267D01*
X134873981Y-97937738D01*
X134773339Y-98038380D01*
X134266423Y-98038380D01*
X134266423Y-97994380D01*
X134259067Y-97919691D01*
X134237281Y-97847872D01*
X134236216Y-97845880D01*
X134237281Y-97843888D01*
X134259067Y-97772069D01*
X134266423Y-97697380D01*
X134266423Y-97653380D01*
X136759234Y-97653380D01*
X136784080Y-97655827D01*
X136808926Y-97653380D01*
X136808934Y-97653380D01*
X136883273Y-97646058D01*
X136978655Y-97617125D01*
X137066559Y-97570139D01*
X137143607Y-97506907D01*
X137159456Y-97487595D01*
X139449852Y-95197200D01*
X140659968Y-95197200D01*
X140691902Y-95274297D01*
X140826620Y-95475917D01*
X140998083Y-95647380D01*
X141199703Y-95782098D01*
X141423731Y-95874893D01*
X141661557Y-95922200D01*
X141904043Y-95922200D01*
X142141869Y-95874893D01*
X142365897Y-95782098D01*
X142567517Y-95647380D01*
X142738980Y-95475917D01*
X142873698Y-95274297D01*
X142966493Y-95050269D01*
X143013800Y-94812443D01*
X143013800Y-94569957D01*
X143091800Y-94569957D01*
X143091800Y-94812443D01*
X143139107Y-95050269D01*
X143231902Y-95274297D01*
X143366620Y-95475917D01*
X143538083Y-95647380D01*
X143739703Y-95782098D01*
X143963731Y-95874893D01*
X144201557Y-95922200D01*
X144444043Y-95922200D01*
X144681869Y-95874893D01*
X144905897Y-95782098D01*
X145107517Y-95647380D01*
X145278980Y-95475917D01*
X145413698Y-95274297D01*
X145506493Y-95050269D01*
X145553800Y-94812443D01*
X145553800Y-94569957D01*
X145506493Y-94332131D01*
X145413698Y-94108103D01*
X145278980Y-93906483D01*
X145107517Y-93735020D01*
X144905897Y-93600302D01*
X144681869Y-93507507D01*
X144444043Y-93460200D01*
X144201557Y-93460200D01*
X143963731Y-93507507D01*
X143739703Y-93600302D01*
X143538083Y-93735020D01*
X143366620Y-93906483D01*
X143231902Y-94108103D01*
X143139107Y-94332131D01*
X143091800Y-94569957D01*
X143013800Y-94569957D01*
X142966493Y-94332131D01*
X142873698Y-94108103D01*
X142738980Y-93906483D01*
X142567517Y-93735020D01*
X142365897Y-93600302D01*
X142141869Y-93507507D01*
X141904043Y-93460200D01*
X141661557Y-93460200D01*
X141423731Y-93507507D01*
X141199703Y-93600302D01*
X140998083Y-93735020D01*
X140826620Y-93906483D01*
X140691902Y-94108103D01*
X140659968Y-94185200D01*
X139265105Y-94185200D01*
X139240259Y-94182753D01*
X139215413Y-94185200D01*
X139215406Y-94185200D01*
X139141067Y-94192522D01*
X139045685Y-94221455D01*
X138957781Y-94268441D01*
X138880733Y-94331673D01*
X138864888Y-94350980D01*
X136574489Y-96641380D01*
X135998177Y-96641380D01*
X136009399Y-96633882D01*
X136118182Y-96525099D01*
X136203653Y-96397182D01*
X136262527Y-96255049D01*
X136292540Y-96104162D01*
X136292540Y-95950318D01*
X136262527Y-95799431D01*
X136203653Y-95657298D01*
X136140663Y-95563026D01*
X136206602Y-95535713D01*
X136334519Y-95450242D01*
X136443302Y-95341459D01*
X136528773Y-95213542D01*
X136587647Y-95071409D01*
X136617660Y-94920522D01*
X136617660Y-94766678D01*
X136610993Y-94733158D01*
X136636038Y-94738140D01*
X136789882Y-94738140D01*
X136940769Y-94708127D01*
X137082902Y-94649253D01*
X137210819Y-94563782D01*
X137319602Y-94454999D01*
X137405073Y-94327082D01*
X137463947Y-94184949D01*
X137493960Y-94034062D01*
X137493960Y-93880218D01*
X137463947Y-93729331D01*
X137405073Y-93587198D01*
X137319602Y-93459281D01*
X137210819Y-93350498D01*
X137082902Y-93265027D01*
X136940769Y-93206153D01*
X136789882Y-93176140D01*
X136647552Y-93176140D01*
X136087576Y-92616165D01*
X136071727Y-92596853D01*
X135994679Y-92533621D01*
X135906775Y-92486635D01*
X135811393Y-92457702D01*
X135737054Y-92450380D01*
X135737046Y-92450380D01*
X135712200Y-92447933D01*
X135687354Y-92450380D01*
X134266423Y-92450380D01*
X134266423Y-92406380D01*
X134259067Y-92331691D01*
X134237281Y-92259872D01*
X134201902Y-92193684D01*
X134154291Y-92135669D01*
X134096276Y-92088058D01*
X134030088Y-92052679D01*
X133958269Y-92030893D01*
X133883580Y-92023537D01*
X131683580Y-92023537D01*
X131608891Y-92030893D01*
X131537072Y-92052679D01*
X131470884Y-92088058D01*
X131412869Y-92135669D01*
X131365258Y-92193684D01*
X131329879Y-92259872D01*
X131308093Y-92331691D01*
X131300737Y-92406380D01*
X131049423Y-92406380D01*
X131049423Y-91094380D01*
X131042067Y-91019691D01*
X131020281Y-90947872D01*
X130984902Y-90881684D01*
X130937291Y-90823669D01*
X130879276Y-90776058D01*
X130813088Y-90740679D01*
X130741269Y-90718893D01*
X130666580Y-90711537D01*
X129566580Y-90711537D01*
X129491891Y-90718893D01*
X129420072Y-90740679D01*
X129418080Y-90741744D01*
X129416088Y-90740679D01*
X129344269Y-90718893D01*
X129269580Y-90711537D01*
X128169580Y-90711537D01*
X128094891Y-90718893D01*
X128023072Y-90740679D01*
X128021080Y-90741744D01*
X128019088Y-90740679D01*
X127947269Y-90718893D01*
X127872580Y-90711537D01*
X127863541Y-90711537D01*
X127870429Y-90710167D01*
X128012562Y-90651293D01*
X128140479Y-90565822D01*
X128249262Y-90457039D01*
X128334733Y-90329122D01*
X128393607Y-90186989D01*
X128423620Y-90036102D01*
X128423620Y-89882258D01*
X128393607Y-89731371D01*
X128334733Y-89589238D01*
X128249262Y-89461321D01*
X128148221Y-89360280D01*
X133008329Y-89360280D01*
X134917728Y-91269680D01*
X134933573Y-91288987D01*
X135010621Y-91352219D01*
X135068210Y-91383001D01*
X135098525Y-91399205D01*
X135193907Y-91428138D01*
X135293100Y-91437908D01*
X135317954Y-91435460D01*
X140780531Y-91435460D01*
X140691902Y-91568103D01*
X140599107Y-91792131D01*
X140551800Y-92029957D01*
X140551800Y-92272443D01*
X140599107Y-92510269D01*
X140691902Y-92734297D01*
X140826620Y-92935917D01*
X140998083Y-93107380D01*
X141199703Y-93242098D01*
X141423731Y-93334893D01*
X141661557Y-93382200D01*
X141904043Y-93382200D01*
X142141869Y-93334893D01*
X142365897Y-93242098D01*
X142567517Y-93107380D01*
X142738980Y-92935917D01*
X142873698Y-92734297D01*
X142966493Y-92510269D01*
X143013800Y-92272443D01*
X143013800Y-92029957D01*
X142966493Y-91792131D01*
X142873698Y-91568103D01*
X142785069Y-91435460D01*
X142891469Y-91435460D01*
X143171042Y-91715033D01*
X143139107Y-91792131D01*
X143091800Y-92029957D01*
X143091800Y-92272443D01*
X143139107Y-92510269D01*
X143231902Y-92734297D01*
X143366620Y-92935917D01*
X143538083Y-93107380D01*
X143739703Y-93242098D01*
X143963731Y-93334893D01*
X144201557Y-93382200D01*
X144444043Y-93382200D01*
X144681869Y-93334893D01*
X144905897Y-93242098D01*
X145107517Y-93107380D01*
X145278980Y-92935917D01*
X145413698Y-92734297D01*
X145506493Y-92510269D01*
X145553800Y-92272443D01*
X145553800Y-92029957D01*
X145506493Y-91792131D01*
X145413698Y-91568103D01*
X145278980Y-91366483D01*
X145107517Y-91195020D01*
X144905897Y-91060302D01*
X144681869Y-90967507D01*
X144444043Y-90920200D01*
X144201557Y-90920200D01*
X143963731Y-90967507D01*
X143886633Y-90999442D01*
X143476436Y-90589245D01*
X143460587Y-90569933D01*
X143383539Y-90506701D01*
X143295635Y-90459715D01*
X143200253Y-90430782D01*
X143125914Y-90423460D01*
X143125906Y-90423460D01*
X143101060Y-90421013D01*
X143076214Y-90423460D01*
X142928402Y-90423460D01*
X143060272Y-90382357D01*
X143186171Y-90118317D01*
X143191589Y-90096972D01*
X143231902Y-90194297D01*
X143366620Y-90395917D01*
X143538083Y-90567380D01*
X143739703Y-90702098D01*
X143963731Y-90794893D01*
X144201557Y-90842200D01*
X144444043Y-90842200D01*
X144681869Y-90794893D01*
X144905897Y-90702098D01*
X145107517Y-90567380D01*
X145278980Y-90395917D01*
X145413698Y-90194297D01*
X145506493Y-89970269D01*
X145553800Y-89732443D01*
X145553800Y-89489957D01*
X145506493Y-89252131D01*
X145413698Y-89028103D01*
X145278980Y-88826483D01*
X145107517Y-88655020D01*
X144905897Y-88520302D01*
X144681869Y-88427507D01*
X144444043Y-88380200D01*
X144201557Y-88380200D01*
X143963731Y-88427507D01*
X143739703Y-88520302D01*
X143538083Y-88655020D01*
X143366620Y-88826483D01*
X143231902Y-89028103D01*
X143188652Y-89132517D01*
X143133719Y-88977453D01*
X143060272Y-88840043D01*
X142811197Y-88762408D01*
X141962405Y-89611200D01*
X141976548Y-89625343D01*
X141796943Y-89804948D01*
X141782800Y-89790805D01*
X141768658Y-89804948D01*
X141589053Y-89625343D01*
X141603195Y-89611200D01*
X140754403Y-88762408D01*
X140505328Y-88840043D01*
X140379429Y-89104083D01*
X140307461Y-89387611D01*
X140292189Y-89679731D01*
X140334201Y-89969219D01*
X140431881Y-90244947D01*
X140505328Y-90382357D01*
X140637198Y-90423460D01*
X135502692Y-90423460D01*
X133662035Y-88582803D01*
X140934008Y-88582803D01*
X141782800Y-89431595D01*
X142631592Y-88582803D01*
X142553957Y-88333728D01*
X142289917Y-88207829D01*
X142006389Y-88135861D01*
X141714269Y-88120589D01*
X141424781Y-88162601D01*
X141149053Y-88260281D01*
X141011643Y-88333728D01*
X140934008Y-88582803D01*
X133662035Y-88582803D01*
X133593296Y-88514065D01*
X133577447Y-88494753D01*
X133500399Y-88431521D01*
X133412495Y-88384535D01*
X133317113Y-88355602D01*
X133242774Y-88348280D01*
X133242766Y-88348280D01*
X133217920Y-88345833D01*
X133193074Y-88348280D01*
X125825965Y-88348280D01*
X125801119Y-88345833D01*
X125776273Y-88348280D01*
X125776266Y-88348280D01*
X125711814Y-88354628D01*
X125701926Y-88355602D01*
X125694562Y-88357836D01*
X125606545Y-88384535D01*
X125518641Y-88431521D01*
X125441593Y-88494753D01*
X125425748Y-88514060D01*
X124188360Y-89751449D01*
X124169054Y-89767293D01*
X124105822Y-89844341D01*
X124088852Y-89876089D01*
X124058835Y-89932246D01*
X124029902Y-90027628D01*
X124020133Y-90126820D01*
X124022581Y-90151676D01*
X124022581Y-90711537D01*
X123978580Y-90711537D01*
X123903891Y-90718893D01*
X123832072Y-90740679D01*
X123830080Y-90741744D01*
X123828088Y-90740679D01*
X123756269Y-90718893D01*
X123688380Y-90712207D01*
X123688380Y-90550061D01*
X123789022Y-90449419D01*
X123874493Y-90321502D01*
X123933367Y-90179369D01*
X123963380Y-90028482D01*
X123963380Y-89874638D01*
X123933367Y-89723751D01*
X123874493Y-89581618D01*
X123789022Y-89453701D01*
X123680239Y-89344918D01*
X123552322Y-89259447D01*
X123410189Y-89200573D01*
X123259302Y-89170560D01*
X123105458Y-89170560D01*
X122954571Y-89200573D01*
X122812438Y-89259447D01*
X122684521Y-89344918D01*
X122575738Y-89453701D01*
X122490267Y-89581618D01*
X122431393Y-89723751D01*
X122401380Y-89874638D01*
X122401380Y-90028482D01*
X122431393Y-90179369D01*
X122490267Y-90321502D01*
X122575738Y-90449419D01*
X122676380Y-90550061D01*
X122676380Y-90711537D01*
X122581580Y-90711537D01*
X122506891Y-90718893D01*
X122435072Y-90740679D01*
X122433080Y-90741744D01*
X122431088Y-90740679D01*
X122359269Y-90718893D01*
X122284580Y-90711537D01*
X122240580Y-90711537D01*
X122240580Y-90406222D01*
X122281913Y-90344362D01*
X122340787Y-90202229D01*
X122370800Y-90051342D01*
X122370800Y-89897498D01*
X122340787Y-89746611D01*
X122281913Y-89604478D01*
X122196442Y-89476561D01*
X122087659Y-89367778D01*
X121959742Y-89282307D01*
X121817609Y-89223433D01*
X121666722Y-89193420D01*
X121512878Y-89193420D01*
X121361991Y-89223433D01*
X121219858Y-89282307D01*
X121091941Y-89367778D01*
X120983158Y-89476561D01*
X120897687Y-89604478D01*
X120838813Y-89746611D01*
X120808800Y-89897498D01*
X120808800Y-90051342D01*
X120838813Y-90202229D01*
X120897687Y-90344362D01*
X120978468Y-90465259D01*
X120887580Y-90456308D01*
X120623330Y-90459380D01*
X120464580Y-90618130D01*
X120210580Y-90618130D01*
X120051830Y-90459380D01*
X119787580Y-90456308D01*
X119663098Y-90468568D01*
X119543400Y-90504878D01*
X119433086Y-90563843D01*
X119336395Y-90643195D01*
X119280308Y-90711537D01*
X118390580Y-90711537D01*
X118315891Y-90718893D01*
X118244072Y-90740679D01*
X118242080Y-90741744D01*
X118240088Y-90740679D01*
X118168269Y-90718893D01*
X118093580Y-90711537D01*
X116993580Y-90711537D01*
X116918891Y-90718893D01*
X116847072Y-90740679D01*
X116845080Y-90741744D01*
X116843088Y-90740679D01*
X116771269Y-90718893D01*
X116696580Y-90711537D01*
X115596580Y-90711537D01*
X115521891Y-90718893D01*
X115450072Y-90740679D01*
X115383884Y-90776058D01*
X115325869Y-90823669D01*
X115278258Y-90881684D01*
X115242879Y-90947872D01*
X115221093Y-91019691D01*
X115213737Y-91094380D01*
X115213737Y-91299760D01*
X111439414Y-91299760D01*
X111414560Y-91297312D01*
X111389706Y-91299760D01*
X111315367Y-91307082D01*
X111219985Y-91336015D01*
X111132081Y-91383001D01*
X111055033Y-91446233D01*
X111039188Y-91465540D01*
X109721609Y-92783120D01*
X105908483Y-92783120D01*
X106005598Y-92637777D01*
X106098393Y-92413749D01*
X106145700Y-92175923D01*
X106145700Y-91933437D01*
X106098393Y-91695611D01*
X106005598Y-91471583D01*
X105870880Y-91269963D01*
X105699417Y-91098500D01*
X105497797Y-90963782D01*
X105383532Y-90916452D01*
X105545952Y-90858837D01*
X105796055Y-90709858D01*
X106012288Y-90514949D01*
X106055727Y-90456711D01*
X107616000Y-90456711D01*
X107616000Y-90797689D01*
X107682521Y-91132114D01*
X107813007Y-91447136D01*
X108002444Y-91730648D01*
X108243552Y-91971756D01*
X108527064Y-92161193D01*
X108842086Y-92291679D01*
X109176511Y-92358200D01*
X109517489Y-92358200D01*
X109851914Y-92291679D01*
X110166936Y-92161193D01*
X110450448Y-91971756D01*
X110691556Y-91730648D01*
X110880993Y-91447136D01*
X111011479Y-91132114D01*
X111078000Y-90797689D01*
X111078000Y-90456711D01*
X111011479Y-90122286D01*
X110880993Y-89807264D01*
X110691556Y-89523752D01*
X110450448Y-89282644D01*
X110166936Y-89093207D01*
X109851914Y-88962721D01*
X109517489Y-88896200D01*
X109176511Y-88896200D01*
X108842086Y-88962721D01*
X108527064Y-89093207D01*
X108243552Y-89282644D01*
X108002444Y-89523752D01*
X107813007Y-89807264D01*
X107682521Y-90122286D01*
X107616000Y-90456711D01*
X106055727Y-90456711D01*
X106186341Y-90281600D01*
X106311525Y-90018779D01*
X106356176Y-89871570D01*
X106234855Y-89641680D01*
X105041700Y-89641680D01*
X105041700Y-89661680D01*
X104787700Y-89661680D01*
X104787700Y-89641680D01*
X104767700Y-89641680D01*
X104767700Y-89387680D01*
X104787700Y-89387680D01*
X104787700Y-89367680D01*
X105041700Y-89367680D01*
X105041700Y-89387680D01*
X106234855Y-89387680D01*
X106356176Y-89157790D01*
X106311525Y-89010581D01*
X106186341Y-88747760D01*
X106012288Y-88514411D01*
X105796055Y-88319502D01*
X105545952Y-88170523D01*
X105271591Y-88073199D01*
X105041702Y-88193865D01*
X105041702Y-88036000D01*
X152195261Y-88036000D01*
X152262119Y-88064654D01*
X152349169Y-88083159D01*
X152355502Y-88083824D01*
X152755026Y-88122998D01*
X153096527Y-88226103D01*
X153411496Y-88393575D01*
X153687941Y-88619038D01*
X153915324Y-88893897D01*
X154084994Y-89207695D01*
X154190481Y-89548468D01*
X154232442Y-89947706D01*
X154233669Y-89953682D01*
X154238998Y-90006140D01*
X154265019Y-90091246D01*
X154280000Y-90119184D01*
X154280001Y-111809259D01*
X154251345Y-111876119D01*
X154232841Y-111963170D01*
X154232176Y-111969502D01*
X154193002Y-112369025D01*
X154089897Y-112710527D01*
X153922425Y-113025496D01*
X153696962Y-113301941D01*
X153422101Y-113529325D01*
X153108304Y-113698994D01*
X152767533Y-113804481D01*
X152368294Y-113846442D01*
X152362318Y-113847669D01*
X152309860Y-113852998D01*
X152224754Y-113879019D01*
X152196816Y-113894000D01*
X94692738Y-113894000D01*
X94625881Y-113865345D01*
X94538830Y-113846841D01*
X94532498Y-113846176D01*
X94132975Y-113807002D01*
X93791473Y-113703897D01*
X93476504Y-113536425D01*
X93200059Y-113310962D01*
X92972675Y-113036101D01*
X92803006Y-112722304D01*
X92697519Y-112381533D01*
X92683522Y-112248357D01*
X101131000Y-112248357D01*
X101131000Y-112490843D01*
X101178307Y-112728669D01*
X101271102Y-112952697D01*
X101405820Y-113154317D01*
X101577283Y-113325780D01*
X101778903Y-113460498D01*
X102002931Y-113553293D01*
X102240757Y-113600600D01*
X102483243Y-113600600D01*
X102721069Y-113553293D01*
X102945097Y-113460498D01*
X103146717Y-113325780D01*
X103318180Y-113154317D01*
X103452898Y-112952697D01*
X103545693Y-112728669D01*
X103593000Y-112490843D01*
X103593000Y-112248357D01*
X103545693Y-112010531D01*
X103452898Y-111786503D01*
X103318180Y-111584883D01*
X103146717Y-111413420D01*
X102945097Y-111278702D01*
X102721069Y-111185907D01*
X102483243Y-111138600D01*
X102240757Y-111138600D01*
X102002931Y-111185907D01*
X101778903Y-111278702D01*
X101577283Y-111413420D01*
X101405820Y-111584883D01*
X101271102Y-111786503D01*
X101178307Y-112010531D01*
X101131000Y-112248357D01*
X92683522Y-112248357D01*
X92655558Y-111982294D01*
X92654331Y-111976318D01*
X92649002Y-111923860D01*
X92622981Y-111838754D01*
X92608000Y-111810816D01*
X92608000Y-109708357D01*
X101131000Y-109708357D01*
X101131000Y-109950843D01*
X101178307Y-110188669D01*
X101271102Y-110412697D01*
X101405820Y-110614317D01*
X101577283Y-110785780D01*
X101778903Y-110920498D01*
X102002931Y-111013293D01*
X102240757Y-111060600D01*
X102483243Y-111060600D01*
X102721069Y-111013293D01*
X102945097Y-110920498D01*
X103146717Y-110785780D01*
X103318180Y-110614317D01*
X103452898Y-110412697D01*
X103545693Y-110188669D01*
X103593000Y-109950843D01*
X103593000Y-109708357D01*
X103545693Y-109470531D01*
X103452898Y-109246503D01*
X103318180Y-109044883D01*
X103146717Y-108873420D01*
X102945097Y-108738702D01*
X102721069Y-108645907D01*
X102483243Y-108598600D01*
X102240757Y-108598600D01*
X102002931Y-108645907D01*
X101778903Y-108738702D01*
X101577283Y-108873420D01*
X101405820Y-109044883D01*
X101271102Y-109246503D01*
X101178307Y-109470531D01*
X101131000Y-109708357D01*
X92608000Y-109708357D01*
X92608000Y-107168357D01*
X101131000Y-107168357D01*
X101131000Y-107410843D01*
X101178307Y-107648669D01*
X101271102Y-107872697D01*
X101405820Y-108074317D01*
X101577283Y-108245780D01*
X101778903Y-108380498D01*
X102002931Y-108473293D01*
X102240757Y-108520600D01*
X102483243Y-108520600D01*
X102721069Y-108473293D01*
X102945097Y-108380498D01*
X103146717Y-108245780D01*
X103318180Y-108074317D01*
X103452898Y-107872697D01*
X103545693Y-107648669D01*
X103593000Y-107410843D01*
X103593000Y-107168357D01*
X103545693Y-106930531D01*
X103452898Y-106706503D01*
X103318180Y-106504883D01*
X103146717Y-106333420D01*
X102945097Y-106198702D01*
X102721069Y-106105907D01*
X102483243Y-106058600D01*
X102240757Y-106058600D01*
X102002931Y-106105907D01*
X101778903Y-106198702D01*
X101577283Y-106333420D01*
X101405820Y-106504883D01*
X101271102Y-106706503D01*
X101178307Y-106930531D01*
X101131000Y-107168357D01*
X92608000Y-107168357D01*
X92608000Y-104628357D01*
X101131000Y-104628357D01*
X101131000Y-104870843D01*
X101178307Y-105108669D01*
X101271102Y-105332697D01*
X101405820Y-105534317D01*
X101577283Y-105705780D01*
X101778903Y-105840498D01*
X102002931Y-105933293D01*
X102240757Y-105980600D01*
X102483243Y-105980600D01*
X102721069Y-105933293D01*
X102945097Y-105840498D01*
X103146717Y-105705780D01*
X103318180Y-105534317D01*
X103452898Y-105332697D01*
X103545693Y-105108669D01*
X103593000Y-104870843D01*
X103593000Y-104628357D01*
X103545693Y-104390531D01*
X103452898Y-104166503D01*
X103318180Y-103964883D01*
X103146717Y-103793420D01*
X102945097Y-103658702D01*
X102721069Y-103565907D01*
X102483243Y-103518600D01*
X102240757Y-103518600D01*
X102002931Y-103565907D01*
X101778903Y-103658702D01*
X101577283Y-103793420D01*
X101405820Y-103964883D01*
X101271102Y-104166503D01*
X101178307Y-104390531D01*
X101131000Y-104628357D01*
X92608000Y-104628357D01*
X92608000Y-102088357D01*
X101131000Y-102088357D01*
X101131000Y-102330843D01*
X101178307Y-102568669D01*
X101271102Y-102792697D01*
X101405820Y-102994317D01*
X101577283Y-103165780D01*
X101778903Y-103300498D01*
X102002931Y-103393293D01*
X102240757Y-103440600D01*
X102483243Y-103440600D01*
X102721069Y-103393293D01*
X102945097Y-103300498D01*
X103146717Y-103165780D01*
X103318180Y-102994317D01*
X103452898Y-102792697D01*
X103545693Y-102568669D01*
X103593000Y-102330843D01*
X103593000Y-102093437D01*
X103683700Y-102093437D01*
X103683700Y-102335923D01*
X103731007Y-102573749D01*
X103823802Y-102797777D01*
X103958520Y-102999397D01*
X104129983Y-103170860D01*
X104331603Y-103305578D01*
X104555631Y-103398373D01*
X104793457Y-103445680D01*
X105035943Y-103445680D01*
X105273769Y-103398373D01*
X105497797Y-103305578D01*
X105699417Y-103170860D01*
X105870880Y-102999397D01*
X106005598Y-102797777D01*
X106098393Y-102573749D01*
X106145700Y-102335923D01*
X106145700Y-102093437D01*
X106098393Y-101855611D01*
X106005598Y-101631583D01*
X105870880Y-101429963D01*
X105699417Y-101258500D01*
X105497797Y-101123782D01*
X105273769Y-101030987D01*
X105035943Y-100983680D01*
X104793457Y-100983680D01*
X104555631Y-101030987D01*
X104331603Y-101123782D01*
X104129983Y-101258500D01*
X103958520Y-101429963D01*
X103823802Y-101631583D01*
X103731007Y-101855611D01*
X103683700Y-102093437D01*
X103593000Y-102093437D01*
X103593000Y-102088357D01*
X103545693Y-101850531D01*
X103452898Y-101626503D01*
X103318180Y-101424883D01*
X103146717Y-101253420D01*
X102945097Y-101118702D01*
X102721069Y-101025907D01*
X102483243Y-100978600D01*
X102240757Y-100978600D01*
X102002931Y-101025907D01*
X101778903Y-101118702D01*
X101577283Y-101253420D01*
X101405820Y-101424883D01*
X101271102Y-101626503D01*
X101178307Y-101850531D01*
X101131000Y-102088357D01*
X92608000Y-102088357D01*
X92608000Y-99548357D01*
X101131000Y-99548357D01*
X101131000Y-99790843D01*
X101178307Y-100028669D01*
X101271102Y-100252697D01*
X101405820Y-100454317D01*
X101577283Y-100625780D01*
X101778903Y-100760498D01*
X102002931Y-100853293D01*
X102240757Y-100900600D01*
X102483243Y-100900600D01*
X102721069Y-100853293D01*
X102945097Y-100760498D01*
X103146717Y-100625780D01*
X103318180Y-100454317D01*
X103452898Y-100252697D01*
X103545693Y-100028669D01*
X103593000Y-99790843D01*
X103593000Y-99548357D01*
X103545693Y-99310531D01*
X103452898Y-99086503D01*
X103318180Y-98884883D01*
X103146717Y-98713420D01*
X102945097Y-98578702D01*
X102721069Y-98485907D01*
X102483243Y-98438600D01*
X102240757Y-98438600D01*
X102002931Y-98485907D01*
X101778903Y-98578702D01*
X101577283Y-98713420D01*
X101405820Y-98884883D01*
X101271102Y-99086503D01*
X101178307Y-99310531D01*
X101131000Y-99548357D01*
X92608000Y-99548357D01*
X92608000Y-91928357D01*
X101131000Y-91928357D01*
X101131000Y-92170843D01*
X101178307Y-92408669D01*
X101271102Y-92632697D01*
X101405820Y-92834317D01*
X101577283Y-93005780D01*
X101778903Y-93140498D01*
X102002931Y-93233293D01*
X102240757Y-93280600D01*
X102483243Y-93280600D01*
X102721069Y-93233293D01*
X102945097Y-93140498D01*
X103146717Y-93005780D01*
X103318180Y-92834317D01*
X103452898Y-92632697D01*
X103545693Y-92408669D01*
X103593000Y-92170843D01*
X103593000Y-91928357D01*
X103545693Y-91690531D01*
X103452898Y-91466503D01*
X103318180Y-91264883D01*
X103146717Y-91093420D01*
X102945097Y-90958702D01*
X102721069Y-90865907D01*
X102483243Y-90818600D01*
X102240757Y-90818600D01*
X102002931Y-90865907D01*
X101778903Y-90958702D01*
X101577283Y-91093420D01*
X101405820Y-91264883D01*
X101271102Y-91466503D01*
X101178307Y-91690531D01*
X101131000Y-91928357D01*
X92608000Y-91928357D01*
X92608000Y-90120739D01*
X92636654Y-90053881D01*
X92655159Y-89966831D01*
X92655824Y-89960498D01*
X92694998Y-89560974D01*
X92798103Y-89219473D01*
X92965575Y-88904504D01*
X93191038Y-88628059D01*
X93465897Y-88400676D01*
X93779695Y-88231006D01*
X94120468Y-88125519D01*
X94519706Y-88083558D01*
X94525682Y-88082331D01*
X94578140Y-88077002D01*
X94663246Y-88050981D01*
X94691184Y-88036000D01*
X104787698Y-88036000D01*
X104787698Y-88193865D01*
G04 #@! TA.AperFunction,Conductor*
D17*
G36*
X104787698Y-88193865D02*
G01*
X104557809Y-88073199D01*
X104283448Y-88170523D01*
X104033345Y-88319502D01*
X103817112Y-88514411D01*
X103643059Y-88747760D01*
X103517875Y-89010581D01*
X103505129Y-89052602D01*
X103452898Y-88926503D01*
X103318180Y-88724883D01*
X103146717Y-88553420D01*
X102945097Y-88418702D01*
X102721069Y-88325907D01*
X102483243Y-88278600D01*
X102240757Y-88278600D01*
X102002931Y-88325907D01*
X101778903Y-88418702D01*
X101577283Y-88553420D01*
X101405820Y-88724883D01*
X101271102Y-88926503D01*
X101178307Y-89150531D01*
X101131000Y-89388357D01*
X101131000Y-89630843D01*
X101178307Y-89868669D01*
X101271102Y-90092697D01*
X101405820Y-90294317D01*
X101577283Y-90465780D01*
X101778903Y-90600498D01*
X102002931Y-90693293D01*
X102240757Y-90740600D01*
X102483243Y-90740600D01*
X102721069Y-90693293D01*
X102945097Y-90600498D01*
X103146717Y-90465780D01*
X103318180Y-90294317D01*
X103452898Y-90092697D01*
X103503350Y-89970893D01*
X103517875Y-90018779D01*
X103643059Y-90281600D01*
X103817112Y-90514949D01*
X104033345Y-90709858D01*
X104283448Y-90858837D01*
X104445868Y-90916452D01*
X104331603Y-90963782D01*
X104129983Y-91098500D01*
X103958520Y-91269963D01*
X103823802Y-91471583D01*
X103731007Y-91695611D01*
X103683700Y-91933437D01*
X103683700Y-92175923D01*
X103731007Y-92413749D01*
X103823802Y-92637777D01*
X103920917Y-92783120D01*
X103687325Y-92783120D01*
X103662479Y-92780673D01*
X103637633Y-92783120D01*
X103637626Y-92783120D01*
X103573174Y-92789468D01*
X103563286Y-92790442D01*
X103541087Y-92797176D01*
X103467905Y-92819375D01*
X103380001Y-92866361D01*
X103302953Y-92929593D01*
X103287109Y-92948899D01*
X102798167Y-93437842D01*
X102721069Y-93405907D01*
X102483243Y-93358600D01*
X102240757Y-93358600D01*
X102002931Y-93405907D01*
X101778903Y-93498702D01*
X101577283Y-93633420D01*
X101405820Y-93804883D01*
X101271102Y-94006503D01*
X101178307Y-94230531D01*
X101131000Y-94468357D01*
X101131000Y-94710843D01*
X101178307Y-94948669D01*
X101271102Y-95172697D01*
X101405820Y-95374317D01*
X101577283Y-95545780D01*
X101778903Y-95680498D01*
X102002931Y-95773293D01*
X102240757Y-95820600D01*
X102483243Y-95820600D01*
X102721069Y-95773293D01*
X102945097Y-95680498D01*
X103146717Y-95545780D01*
X103318180Y-95374317D01*
X103452898Y-95172697D01*
X103545693Y-94948669D01*
X103593000Y-94710843D01*
X103593000Y-94468357D01*
X103545693Y-94230531D01*
X103513758Y-94153433D01*
X103872072Y-93795120D01*
X103973363Y-93795120D01*
X103958520Y-93809963D01*
X103823802Y-94011583D01*
X103731007Y-94235611D01*
X103683700Y-94473437D01*
X103683700Y-94715923D01*
X103731007Y-94953749D01*
X103823802Y-95177777D01*
X103944677Y-95358680D01*
X103651765Y-95358680D01*
X103626919Y-95356233D01*
X103602073Y-95358680D01*
X103602066Y-95358680D01*
X103527727Y-95366002D01*
X103432345Y-95394935D01*
X103344441Y-95441921D01*
X103267393Y-95505153D01*
X103251549Y-95524459D01*
X102798167Y-95977842D01*
X102721069Y-95945907D01*
X102483243Y-95898600D01*
X102240757Y-95898600D01*
X102002931Y-95945907D01*
X101778903Y-96038702D01*
X101577283Y-96173420D01*
X101405820Y-96344883D01*
X101271102Y-96546503D01*
X101178307Y-96770531D01*
X101131000Y-97008357D01*
X101131000Y-97250843D01*
X101178307Y-97488669D01*
X101271102Y-97712697D01*
X101405820Y-97914317D01*
X101577283Y-98085780D01*
X101778903Y-98220498D01*
X102002931Y-98313293D01*
X102240757Y-98360600D01*
X102483243Y-98360600D01*
X102721069Y-98313293D01*
X102945097Y-98220498D01*
X103146717Y-98085780D01*
X103318180Y-97914317D01*
X103452898Y-97712697D01*
X103545693Y-97488669D01*
X103593000Y-97250843D01*
X103593000Y-97008357D01*
X103545693Y-96770531D01*
X103513758Y-96693433D01*
X103836512Y-96370680D01*
X103944677Y-96370680D01*
X103823802Y-96551583D01*
X103731007Y-96775611D01*
X103683700Y-97013437D01*
X103683700Y-97255923D01*
X103731007Y-97493749D01*
X103823802Y-97717777D01*
X103958520Y-97919397D01*
X104129983Y-98090860D01*
X104331603Y-98225578D01*
X104555631Y-98318373D01*
X104793457Y-98365680D01*
X105035943Y-98365680D01*
X105273769Y-98318373D01*
X105350867Y-98286438D01*
X106233109Y-99168680D01*
X106037532Y-99168680D01*
X106005598Y-99091583D01*
X105870880Y-98889963D01*
X105699417Y-98718500D01*
X105497797Y-98583782D01*
X105273769Y-98490987D01*
X105035943Y-98443680D01*
X104793457Y-98443680D01*
X104555631Y-98490987D01*
X104331603Y-98583782D01*
X104129983Y-98718500D01*
X103958520Y-98889963D01*
X103823802Y-99091583D01*
X103731007Y-99315611D01*
X103683700Y-99553437D01*
X103683700Y-99795923D01*
X103731007Y-100033749D01*
X103823802Y-100257777D01*
X103958520Y-100459397D01*
X104129983Y-100630860D01*
X104331603Y-100765578D01*
X104555631Y-100858373D01*
X104793457Y-100905680D01*
X105035943Y-100905680D01*
X105273769Y-100858373D01*
X105497797Y-100765578D01*
X105699417Y-100630860D01*
X105870880Y-100459397D01*
X106005598Y-100257777D01*
X106037532Y-100180680D01*
X106183389Y-100180680D01*
X110475308Y-104472600D01*
X110491153Y-104491907D01*
X110568201Y-104555139D01*
X110645651Y-104596537D01*
X110656105Y-104602125D01*
X110751487Y-104631058D01*
X110850680Y-104640828D01*
X110875534Y-104638380D01*
X112022137Y-104638380D01*
X112022137Y-104682380D01*
X112029493Y-104757069D01*
X112051279Y-104828888D01*
X112052344Y-104830880D01*
X112051279Y-104832872D01*
X112029493Y-104904691D01*
X112022137Y-104979380D01*
X112022137Y-106079380D01*
X112029493Y-106154069D01*
X112051279Y-106225888D01*
X112052344Y-106227880D01*
X112051279Y-106229872D01*
X112029493Y-106301691D01*
X112022137Y-106376380D01*
X112022137Y-106420380D01*
X109127332Y-106420380D01*
X107121416Y-104414465D01*
X107105567Y-104395153D01*
X107028519Y-104331921D01*
X106940615Y-104284935D01*
X106845233Y-104256002D01*
X106770894Y-104248680D01*
X106770886Y-104248680D01*
X106746040Y-104246233D01*
X106721194Y-104248680D01*
X106037532Y-104248680D01*
X106005598Y-104171583D01*
X105870880Y-103969963D01*
X105699417Y-103798500D01*
X105497797Y-103663782D01*
X105273769Y-103570987D01*
X105035943Y-103523680D01*
X104793457Y-103523680D01*
X104555631Y-103570987D01*
X104331603Y-103663782D01*
X104129983Y-103798500D01*
X103958520Y-103969963D01*
X103823802Y-104171583D01*
X103731007Y-104395611D01*
X103683700Y-104633437D01*
X103683700Y-104875923D01*
X103731007Y-105113749D01*
X103823802Y-105337777D01*
X103958520Y-105539397D01*
X104129983Y-105710860D01*
X104331603Y-105845578D01*
X104555631Y-105938373D01*
X104793457Y-105985680D01*
X105035943Y-105985680D01*
X105273769Y-105938373D01*
X105497797Y-105845578D01*
X105699417Y-105710860D01*
X105870880Y-105539397D01*
X106005598Y-105337777D01*
X106037532Y-105260680D01*
X106536449Y-105260680D01*
X108542368Y-107266600D01*
X108558213Y-107285907D01*
X108635261Y-107349139D01*
X108712711Y-107390537D01*
X108723165Y-107396125D01*
X108818547Y-107425058D01*
X108917740Y-107434828D01*
X108942594Y-107432380D01*
X112022137Y-107432380D01*
X112022137Y-107476380D01*
X112029493Y-107551069D01*
X112051279Y-107622888D01*
X112052344Y-107624880D01*
X112051279Y-107626872D01*
X112029493Y-107698691D01*
X112022137Y-107773380D01*
X112022137Y-107817380D01*
X108565992Y-107817380D01*
X107703076Y-106954465D01*
X107687227Y-106935153D01*
X107610179Y-106871921D01*
X107522275Y-106824935D01*
X107426893Y-106796002D01*
X107352554Y-106788680D01*
X107352546Y-106788680D01*
X107327700Y-106786233D01*
X107302854Y-106788680D01*
X106037532Y-106788680D01*
X106005598Y-106711583D01*
X105870880Y-106509963D01*
X105699417Y-106338500D01*
X105497797Y-106203782D01*
X105273769Y-106110987D01*
X105035943Y-106063680D01*
X104793457Y-106063680D01*
X104555631Y-106110987D01*
X104331603Y-106203782D01*
X104129983Y-106338500D01*
X103958520Y-106509963D01*
X103823802Y-106711583D01*
X103731007Y-106935611D01*
X103683700Y-107173437D01*
X103683700Y-107415923D01*
X103731007Y-107653749D01*
X103823802Y-107877777D01*
X103958520Y-108079397D01*
X104129983Y-108250860D01*
X104331603Y-108385578D01*
X104555631Y-108478373D01*
X104793457Y-108525680D01*
X105035943Y-108525680D01*
X105273769Y-108478373D01*
X105497797Y-108385578D01*
X105699417Y-108250860D01*
X105870880Y-108079397D01*
X106005598Y-107877777D01*
X106037532Y-107800680D01*
X107118109Y-107800680D01*
X107981028Y-108663600D01*
X107996873Y-108682907D01*
X108073921Y-108746139D01*
X108161825Y-108793125D01*
X108235007Y-108815324D01*
X108257206Y-108822058D01*
X108267094Y-108823032D01*
X108331546Y-108829380D01*
X108331553Y-108829380D01*
X108356399Y-108831827D01*
X108381245Y-108829380D01*
X112022137Y-108829380D01*
X112022137Y-108873380D01*
X112029493Y-108948069D01*
X112051279Y-109019888D01*
X112052344Y-109021880D01*
X112051279Y-109023872D01*
X112029493Y-109095691D01*
X112022137Y-109170380D01*
X112022137Y-109328680D01*
X106037532Y-109328680D01*
X106005598Y-109251583D01*
X105870880Y-109049963D01*
X105699417Y-108878500D01*
X105497797Y-108743782D01*
X105273769Y-108650987D01*
X105035943Y-108603680D01*
X104793457Y-108603680D01*
X104555631Y-108650987D01*
X104331603Y-108743782D01*
X104129983Y-108878500D01*
X103958520Y-109049963D01*
X103823802Y-109251583D01*
X103731007Y-109475611D01*
X103683700Y-109713437D01*
X103683700Y-109955923D01*
X103731007Y-110193749D01*
X103823802Y-110417777D01*
X103958520Y-110619397D01*
X104129983Y-110790860D01*
X104331603Y-110925578D01*
X104555631Y-111018373D01*
X104793457Y-111065680D01*
X105035943Y-111065680D01*
X105273769Y-111018373D01*
X105497797Y-110925578D01*
X105699417Y-110790860D01*
X105870880Y-110619397D01*
X106005598Y-110417777D01*
X106037532Y-110340680D01*
X112029061Y-110340680D01*
X112029493Y-110345069D01*
X112051279Y-110416888D01*
X112052344Y-110418880D01*
X112051279Y-110420872D01*
X112029493Y-110492691D01*
X112022137Y-110567380D01*
X112022137Y-110611380D01*
X110370074Y-110611380D01*
X110345220Y-110608932D01*
X110320366Y-110611380D01*
X110246027Y-110618702D01*
X110150645Y-110647635D01*
X110062741Y-110694621D01*
X109985693Y-110757853D01*
X109969848Y-110777160D01*
X108878329Y-111868680D01*
X106037532Y-111868680D01*
X106005598Y-111791583D01*
X105870880Y-111589963D01*
X105699417Y-111418500D01*
X105497797Y-111283782D01*
X105273769Y-111190987D01*
X105035943Y-111143680D01*
X104793457Y-111143680D01*
X104555631Y-111190987D01*
X104331603Y-111283782D01*
X104129983Y-111418500D01*
X103958520Y-111589963D01*
X103823802Y-111791583D01*
X103731007Y-112015611D01*
X103683700Y-112253437D01*
X103683700Y-112495923D01*
X103731007Y-112733749D01*
X103823802Y-112957777D01*
X103958520Y-113159397D01*
X104129983Y-113330860D01*
X104331603Y-113465578D01*
X104555631Y-113558373D01*
X104793457Y-113605680D01*
X105035943Y-113605680D01*
X105273769Y-113558373D01*
X105497797Y-113465578D01*
X105699417Y-113330860D01*
X105870880Y-113159397D01*
X106005598Y-112957777D01*
X106037532Y-112880680D01*
X109063074Y-112880680D01*
X109087920Y-112883127D01*
X109112766Y-112880680D01*
X109112774Y-112880680D01*
X109187113Y-112873358D01*
X109282495Y-112844425D01*
X109370399Y-112797439D01*
X109447447Y-112734207D01*
X109463296Y-112714895D01*
X110554812Y-111623380D01*
X112022137Y-111623380D01*
X112022137Y-111667380D01*
X112029493Y-111742069D01*
X112051279Y-111813888D01*
X112086658Y-111880076D01*
X112134269Y-111938091D01*
X112192284Y-111985702D01*
X112258472Y-112021081D01*
X112330291Y-112042867D01*
X112404980Y-112050223D01*
X114604980Y-112050223D01*
X114679669Y-112042867D01*
X114751488Y-112021081D01*
X114817676Y-111985702D01*
X114875691Y-111938091D01*
X114923302Y-111880076D01*
X114958681Y-111813888D01*
X114980467Y-111742069D01*
X114987823Y-111667380D01*
X114987823Y-110567380D01*
X114980467Y-110492691D01*
X114958681Y-110420872D01*
X114957616Y-110418880D01*
X114958681Y-110416888D01*
X114980467Y-110345069D01*
X114987823Y-110270380D01*
X114987823Y-109170380D01*
X114980467Y-109095691D01*
X114958681Y-109023872D01*
X114957616Y-109021880D01*
X114958681Y-109019888D01*
X114980467Y-108948069D01*
X114987823Y-108873380D01*
X114987823Y-107773380D01*
X114980467Y-107698691D01*
X114958681Y-107626872D01*
X114957616Y-107624880D01*
X114958681Y-107622888D01*
X114980467Y-107551069D01*
X114987823Y-107476380D01*
X114987823Y-106376380D01*
X114980467Y-106301691D01*
X114958681Y-106229872D01*
X114957616Y-106227880D01*
X114958681Y-106225888D01*
X114980467Y-106154069D01*
X114987823Y-106079380D01*
X114987823Y-106035380D01*
X118328994Y-106035380D01*
X118353840Y-106037827D01*
X118378686Y-106035380D01*
X118378694Y-106035380D01*
X118453033Y-106028058D01*
X118548415Y-105999125D01*
X118636319Y-105952139D01*
X118713367Y-105888907D01*
X118729216Y-105869595D01*
X119479692Y-105119120D01*
X119622022Y-105119120D01*
X119772909Y-105089107D01*
X119915042Y-105030233D01*
X120042959Y-104944762D01*
X120151742Y-104835979D01*
X120237213Y-104708062D01*
X120296087Y-104565929D01*
X120326100Y-104415042D01*
X120326100Y-104261198D01*
X120296087Y-104110311D01*
X120237213Y-103968178D01*
X120151742Y-103840261D01*
X120042959Y-103731478D01*
X119915042Y-103646007D01*
X119772909Y-103587133D01*
X119622022Y-103557120D01*
X119468178Y-103557120D01*
X119317291Y-103587133D01*
X119175158Y-103646007D01*
X119047241Y-103731478D01*
X118938458Y-103840261D01*
X118852987Y-103968178D01*
X118794113Y-104110311D01*
X118764100Y-104261198D01*
X118764100Y-104403528D01*
X118144249Y-105023380D01*
X114987823Y-105023380D01*
X114987823Y-104979380D01*
X114980467Y-104904691D01*
X114958681Y-104832872D01*
X114957616Y-104830880D01*
X114958681Y-104828888D01*
X114980467Y-104757069D01*
X114987823Y-104682380D01*
X114987823Y-103582380D01*
X114980467Y-103507691D01*
X114958681Y-103435872D01*
X114957616Y-103433880D01*
X114958681Y-103431888D01*
X114980467Y-103360069D01*
X114987823Y-103285380D01*
X114987823Y-102185380D01*
X114980467Y-102110691D01*
X114958681Y-102038872D01*
X114957616Y-102036880D01*
X114958681Y-102034888D01*
X114980467Y-101963069D01*
X114987823Y-101888380D01*
X114987823Y-101844380D01*
X115540459Y-101844380D01*
X115641101Y-101945022D01*
X115769018Y-102030493D01*
X115911151Y-102089367D01*
X116062038Y-102119380D01*
X116215882Y-102119380D01*
X116366769Y-102089367D01*
X116508902Y-102030493D01*
X116636819Y-101945022D01*
X116745602Y-101836239D01*
X116831073Y-101708322D01*
X116889947Y-101566189D01*
X116919960Y-101415302D01*
X116919960Y-101261458D01*
X116889947Y-101110571D01*
X116831073Y-100968438D01*
X116745602Y-100840521D01*
X116636819Y-100731738D01*
X116508902Y-100646267D01*
X116504913Y-100644615D01*
X116531762Y-100633493D01*
X116659679Y-100548022D01*
X116768462Y-100439239D01*
X116853933Y-100311322D01*
X116912807Y-100169189D01*
X116942820Y-100018302D01*
X116942820Y-99864458D01*
X116912807Y-99713571D01*
X116853933Y-99571438D01*
X116768462Y-99443521D01*
X116659679Y-99334738D01*
X116531762Y-99249267D01*
X116521423Y-99244984D01*
X116541922Y-99236493D01*
X116669839Y-99151022D01*
X116778622Y-99042239D01*
X116864093Y-98914322D01*
X116922967Y-98772189D01*
X116952980Y-98621302D01*
X116952980Y-98467458D01*
X116922967Y-98316571D01*
X116864093Y-98174438D01*
X116778622Y-98046521D01*
X116669839Y-97937738D01*
X116541922Y-97852267D01*
X116521423Y-97843776D01*
X116531762Y-97839493D01*
X116659679Y-97754022D01*
X116768462Y-97645239D01*
X116853933Y-97517322D01*
X116912807Y-97375189D01*
X116942820Y-97224302D01*
X116942820Y-97070458D01*
X116912807Y-96919571D01*
X116853933Y-96777438D01*
X116768462Y-96649521D01*
X116659679Y-96540738D01*
X116531762Y-96455267D01*
X116389629Y-96396393D01*
X116238742Y-96366380D01*
X116084898Y-96366380D01*
X115934011Y-96396393D01*
X115791878Y-96455267D01*
X115663961Y-96540738D01*
X115563319Y-96641380D01*
X114987823Y-96641380D01*
X114987823Y-96597380D01*
X114980467Y-96522691D01*
X114958681Y-96450872D01*
X114957616Y-96448880D01*
X114958681Y-96446888D01*
X114980467Y-96375069D01*
X114987823Y-96300380D01*
X114987823Y-95200380D01*
X114980467Y-95125691D01*
X114958681Y-95053872D01*
X114957616Y-95051880D01*
X114958681Y-95049888D01*
X114980467Y-94978069D01*
X114987823Y-94903380D01*
X114987823Y-93803380D01*
X114980467Y-93728691D01*
X114958681Y-93656872D01*
X114957616Y-93654880D01*
X114958681Y-93652888D01*
X114980467Y-93581069D01*
X114987823Y-93506380D01*
X114987823Y-92406380D01*
X114980467Y-92331691D01*
X114974421Y-92311760D01*
X115213737Y-92311760D01*
X115213737Y-93294380D01*
X115221093Y-93369069D01*
X115242879Y-93440888D01*
X115278258Y-93507076D01*
X115325869Y-93565091D01*
X115383884Y-93612702D01*
X115450072Y-93648081D01*
X115521891Y-93669867D01*
X115596580Y-93677223D01*
X116696580Y-93677223D01*
X116771269Y-93669867D01*
X116843088Y-93648081D01*
X116845080Y-93647016D01*
X116847072Y-93648081D01*
X116918891Y-93669867D01*
X116993580Y-93677223D01*
X117037581Y-93677223D01*
X117037581Y-93775487D01*
X116255169Y-94557900D01*
X116112838Y-94557900D01*
X115961951Y-94587913D01*
X115819818Y-94646787D01*
X115691901Y-94732258D01*
X115583118Y-94841041D01*
X115497647Y-94968958D01*
X115438773Y-95111091D01*
X115408760Y-95261978D01*
X115408760Y-95415822D01*
X115438773Y-95566709D01*
X115497647Y-95708842D01*
X115583118Y-95836759D01*
X115691901Y-95945542D01*
X115819818Y-96031013D01*
X115961951Y-96089887D01*
X116112838Y-96119900D01*
X116266682Y-96119900D01*
X116417569Y-96089887D01*
X116559702Y-96031013D01*
X116687619Y-95945542D01*
X116796402Y-95836759D01*
X116881873Y-95708842D01*
X116940747Y-95566709D01*
X116970760Y-95415822D01*
X116970760Y-95273491D01*
X117883800Y-94360452D01*
X117903107Y-94344607D01*
X117966339Y-94267559D01*
X118013325Y-94179655D01*
X118042258Y-94084273D01*
X118049580Y-94009934D01*
X118052028Y-93985080D01*
X118049580Y-93960226D01*
X118049580Y-93677223D01*
X118093580Y-93677223D01*
X118168269Y-93669867D01*
X118240088Y-93648081D01*
X118242080Y-93647016D01*
X118244072Y-93648081D01*
X118315891Y-93669867D01*
X118390580Y-93677223D01*
X118434580Y-93677223D01*
X118434581Y-99898744D01*
X118432133Y-99923600D01*
X118441902Y-100022792D01*
X118470835Y-100118174D01*
X118484867Y-100144425D01*
X118517822Y-100206079D01*
X118581054Y-100283127D01*
X118600361Y-100298972D01*
X125462080Y-107160692D01*
X125462080Y-107303022D01*
X125492093Y-107453909D01*
X125550967Y-107596042D01*
X125636438Y-107723959D01*
X125745221Y-107832742D01*
X125873138Y-107918213D01*
X126015271Y-107977087D01*
X126166158Y-108007100D01*
X126320002Y-108007100D01*
X126470889Y-107977087D01*
X126613022Y-107918213D01*
X126740939Y-107832742D01*
X126849722Y-107723959D01*
X126935193Y-107596042D01*
X126994067Y-107453909D01*
X127024080Y-107303022D01*
X127024080Y-107149178D01*
X126994067Y-106998291D01*
X126935193Y-106856158D01*
X126849722Y-106728241D01*
X126740939Y-106619458D01*
X126613022Y-106533987D01*
X126470889Y-106475113D01*
X126320002Y-106445100D01*
X126177672Y-106445100D01*
X119446580Y-99714009D01*
X119446580Y-93832130D01*
X119543400Y-93883882D01*
X119663098Y-93920192D01*
X119787580Y-93932452D01*
X120051830Y-93929380D01*
X120210580Y-93770630D01*
X120210580Y-92321380D01*
X120190580Y-92321380D01*
X120190580Y-92067380D01*
X120210580Y-92067380D01*
X120210580Y-90618130D01*
X120464580Y-90618130D01*
X120464580Y-92067380D01*
X120484580Y-92067380D01*
X120484580Y-92321380D01*
X120464580Y-92321380D01*
X120464580Y-93770630D01*
X120623330Y-93929380D01*
X120887580Y-93932452D01*
X121012062Y-93920192D01*
X121131760Y-93883882D01*
X121242074Y-93824917D01*
X121338765Y-93745565D01*
X121394852Y-93677223D01*
X122284580Y-93677223D01*
X122359269Y-93669867D01*
X122431088Y-93648081D01*
X122433080Y-93647016D01*
X122435072Y-93648081D01*
X122506891Y-93669867D01*
X122581580Y-93677223D01*
X123681580Y-93677223D01*
X123756269Y-93669867D01*
X123828088Y-93648081D01*
X123830080Y-93647016D01*
X123832072Y-93648081D01*
X123903891Y-93669867D01*
X123978580Y-93677223D01*
X124868308Y-93677223D01*
X124924395Y-93745565D01*
X125021086Y-93824917D01*
X125131400Y-93883882D01*
X125251098Y-93920192D01*
X125375580Y-93932452D01*
X125639830Y-93929380D01*
X125798580Y-93770630D01*
X125798580Y-92321380D01*
X125778580Y-92321380D01*
X125778580Y-92067380D01*
X125798580Y-92067380D01*
X125798580Y-90618130D01*
X125639830Y-90459380D01*
X125375580Y-90456308D01*
X125251098Y-90468568D01*
X125131400Y-90504878D01*
X125034580Y-90556630D01*
X125034580Y-90336411D01*
X126010712Y-89360280D01*
X127137019Y-89360280D01*
X127035978Y-89461321D01*
X126950507Y-89589238D01*
X126891633Y-89731371D01*
X126861620Y-89882258D01*
X126861620Y-90036102D01*
X126866275Y-90059503D01*
X126852835Y-90084646D01*
X126823902Y-90180028D01*
X126814133Y-90279220D01*
X126816581Y-90304076D01*
X126816581Y-90556631D01*
X126719760Y-90504878D01*
X126600062Y-90468568D01*
X126475580Y-90456308D01*
X126211330Y-90459380D01*
X126052580Y-90618130D01*
X126052580Y-92067380D01*
X126072580Y-92067380D01*
X126072580Y-92321380D01*
X126052580Y-92321380D01*
X126052580Y-93770630D01*
X126211330Y-93929380D01*
X126475580Y-93932452D01*
X126600062Y-93920192D01*
X126719760Y-93883882D01*
X126830074Y-93824917D01*
X126926765Y-93745565D01*
X126982852Y-93677223D01*
X127871146Y-93677223D01*
X127854069Y-93694300D01*
X127711738Y-93694300D01*
X127560851Y-93724313D01*
X127418718Y-93783187D01*
X127290801Y-93868658D01*
X127182018Y-93977441D01*
X127096547Y-94105358D01*
X127037673Y-94247491D01*
X127007660Y-94398378D01*
X127007660Y-94552222D01*
X127037673Y-94703109D01*
X127096547Y-94845242D01*
X127182018Y-94973159D01*
X127290801Y-95081942D01*
X127418718Y-95167413D01*
X127560851Y-95226287D01*
X127711738Y-95256300D01*
X127865582Y-95256300D01*
X128016469Y-95226287D01*
X128158602Y-95167413D01*
X128235543Y-95116003D01*
X128230213Y-95128871D01*
X128200200Y-95279758D01*
X128200200Y-95433602D01*
X128230213Y-95584489D01*
X128289087Y-95726622D01*
X128374558Y-95854539D01*
X128483341Y-95963322D01*
X128611258Y-96048793D01*
X128753391Y-96107667D01*
X128904278Y-96137680D01*
X129058122Y-96137680D01*
X129209009Y-96107667D01*
X129351142Y-96048793D01*
X129479059Y-95963322D01*
X129587842Y-95854539D01*
X129673313Y-95726622D01*
X129732187Y-95584489D01*
X129762200Y-95433602D01*
X129762200Y-95291271D01*
X130456800Y-94596672D01*
X130476107Y-94580827D01*
X130539339Y-94503779D01*
X130586325Y-94415875D01*
X130615258Y-94320493D01*
X130622580Y-94246154D01*
X130625028Y-94221300D01*
X130622580Y-94196446D01*
X130622580Y-93677223D01*
X130666580Y-93677223D01*
X130741269Y-93669867D01*
X130813088Y-93648081D01*
X130879276Y-93612702D01*
X130937291Y-93565091D01*
X130984902Y-93507076D01*
X131020281Y-93440888D01*
X131042067Y-93369069D01*
X131049423Y-93294380D01*
X131049423Y-92406380D01*
X131300737Y-92406380D01*
X131300737Y-93506380D01*
X131308093Y-93581069D01*
X131329879Y-93652888D01*
X131330944Y-93654880D01*
X131329879Y-93656872D01*
X131308093Y-93728691D01*
X131300737Y-93803380D01*
X131300737Y-94903380D01*
X131308093Y-94978069D01*
X131329879Y-95049888D01*
X131330944Y-95051880D01*
X131329879Y-95053872D01*
X131308093Y-95125691D01*
X131300737Y-95200380D01*
X131300737Y-96300380D01*
X131308093Y-96375069D01*
X131329879Y-96446888D01*
X131330944Y-96448880D01*
X131329879Y-96450872D01*
X131308093Y-96522691D01*
X131300737Y-96597380D01*
X131300737Y-97697380D01*
X131308093Y-97772069D01*
X131329879Y-97843888D01*
X131330944Y-97845880D01*
X131329879Y-97847872D01*
X131308093Y-97919691D01*
X131300737Y-97994380D01*
X131300737Y-99094380D01*
X131308093Y-99169069D01*
X131329879Y-99240888D01*
X131330944Y-99242880D01*
X131329879Y-99244872D01*
X131308093Y-99316691D01*
X131300737Y-99391380D01*
X131300737Y-100491380D01*
X131308093Y-100566069D01*
X131329879Y-100637888D01*
X131330944Y-100639880D01*
X131329879Y-100641872D01*
X131308093Y-100713691D01*
X131300737Y-100788380D01*
X131300737Y-101888380D01*
X131308093Y-101963069D01*
X131329879Y-102034888D01*
X131330944Y-102036880D01*
X131329879Y-102038872D01*
X131308093Y-102110691D01*
X131300737Y-102185380D01*
X131300737Y-103285380D01*
X131308093Y-103360069D01*
X131329879Y-103431888D01*
X131330944Y-103433880D01*
X131329879Y-103435872D01*
X131308093Y-103507691D01*
X131300737Y-103582380D01*
X131300737Y-104682380D01*
X131308093Y-104757069D01*
X131329879Y-104828888D01*
X131330944Y-104830880D01*
X131329879Y-104832872D01*
X131308093Y-104904691D01*
X131300737Y-104979380D01*
X131300737Y-106079380D01*
X131308093Y-106154069D01*
X131329879Y-106225888D01*
X131330944Y-106227880D01*
X131329879Y-106229872D01*
X131308093Y-106301691D01*
X131300737Y-106376380D01*
X131300737Y-107476380D01*
X131308093Y-107551069D01*
X131329879Y-107622888D01*
X131330944Y-107624880D01*
X131329879Y-107626872D01*
X131308093Y-107698691D01*
X131300737Y-107773380D01*
X131300737Y-108873380D01*
X131308093Y-108948069D01*
X131329879Y-109019888D01*
X131330944Y-109021880D01*
X131329879Y-109023872D01*
X131308093Y-109095691D01*
X131300737Y-109170380D01*
X131300737Y-110270380D01*
X131308093Y-110345069D01*
X131329879Y-110416888D01*
X131330944Y-110418880D01*
X131329879Y-110420872D01*
X131308093Y-110492691D01*
X131300737Y-110567380D01*
X131300737Y-111667380D01*
X131308093Y-111742069D01*
X131329879Y-111813888D01*
X131365258Y-111880076D01*
X131412869Y-111938091D01*
X131470884Y-111985702D01*
X131537072Y-112021081D01*
X131608891Y-112042867D01*
X131683580Y-112050223D01*
X133883580Y-112050223D01*
X133958269Y-112042867D01*
X134030088Y-112021081D01*
X134096276Y-111985702D01*
X134154291Y-111938091D01*
X134201902Y-111880076D01*
X134231233Y-111825204D01*
X135941348Y-113535320D01*
X135957193Y-113554627D01*
X136034241Y-113617859D01*
X136122145Y-113664845D01*
X136217527Y-113693778D01*
X136316720Y-113703548D01*
X136341574Y-113701100D01*
X139675154Y-113701100D01*
X139700000Y-113703547D01*
X139724846Y-113701100D01*
X139724854Y-113701100D01*
X139799193Y-113693778D01*
X139894575Y-113664845D01*
X139982479Y-113617859D01*
X140059527Y-113554627D01*
X140075376Y-113535315D01*
X140633492Y-112977200D01*
X140659968Y-112977200D01*
X140691902Y-113054297D01*
X140826620Y-113255917D01*
X140998083Y-113427380D01*
X141199703Y-113562098D01*
X141423731Y-113654893D01*
X141661557Y-113702200D01*
X141904043Y-113702200D01*
X142141869Y-113654893D01*
X142365897Y-113562098D01*
X142567517Y-113427380D01*
X142738980Y-113255917D01*
X142873698Y-113054297D01*
X142966493Y-112830269D01*
X143013800Y-112592443D01*
X143013800Y-112349957D01*
X143091800Y-112349957D01*
X143091800Y-112592443D01*
X143139107Y-112830269D01*
X143231902Y-113054297D01*
X143366620Y-113255917D01*
X143538083Y-113427380D01*
X143739703Y-113562098D01*
X143963731Y-113654893D01*
X144201557Y-113702200D01*
X144444043Y-113702200D01*
X144681869Y-113654893D01*
X144905897Y-113562098D01*
X145107517Y-113427380D01*
X145278980Y-113255917D01*
X145413698Y-113054297D01*
X145506493Y-112830269D01*
X145553800Y-112592443D01*
X145553800Y-112349957D01*
X145506493Y-112112131D01*
X145413698Y-111888103D01*
X145278980Y-111686483D01*
X145107517Y-111515020D01*
X144905897Y-111380302D01*
X144681869Y-111287507D01*
X144444043Y-111240200D01*
X144201557Y-111240200D01*
X143963731Y-111287507D01*
X143739703Y-111380302D01*
X143538083Y-111515020D01*
X143366620Y-111686483D01*
X143231902Y-111888103D01*
X143139107Y-112112131D01*
X143091800Y-112349957D01*
X143013800Y-112349957D01*
X142966493Y-112112131D01*
X142873698Y-111888103D01*
X142738980Y-111686483D01*
X142567517Y-111515020D01*
X142365897Y-111380302D01*
X142141869Y-111287507D01*
X141904043Y-111240200D01*
X141661557Y-111240200D01*
X141423731Y-111287507D01*
X141199703Y-111380302D01*
X140998083Y-111515020D01*
X140826620Y-111686483D01*
X140691902Y-111888103D01*
X140659968Y-111965200D01*
X140448745Y-111965200D01*
X140423899Y-111962753D01*
X140399053Y-111965200D01*
X140399046Y-111965200D01*
X140334594Y-111971548D01*
X140324706Y-111972522D01*
X140281257Y-111985702D01*
X140229325Y-112001455D01*
X140141421Y-112048441D01*
X140064373Y-112111673D01*
X140048528Y-112130980D01*
X139490409Y-112689100D01*
X138620333Y-112689100D01*
X138796848Y-112571156D01*
X139037956Y-112330048D01*
X139227393Y-112046536D01*
X139357879Y-111731514D01*
X139424400Y-111397089D01*
X139424400Y-111056111D01*
X139357879Y-110721686D01*
X139227393Y-110406664D01*
X139037956Y-110123152D01*
X138796848Y-109882044D01*
X138513336Y-109692607D01*
X138213763Y-109568520D01*
X139091629Y-109568520D01*
X139794528Y-110271420D01*
X139810373Y-110290727D01*
X139887421Y-110353959D01*
X139975325Y-110400945D01*
X140070707Y-110429878D01*
X140145046Y-110437200D01*
X140145053Y-110437200D01*
X140169899Y-110439647D01*
X140194745Y-110437200D01*
X140659968Y-110437200D01*
X140691902Y-110514297D01*
X140826620Y-110715917D01*
X140998083Y-110887380D01*
X141199703Y-111022098D01*
X141423731Y-111114893D01*
X141661557Y-111162200D01*
X141904043Y-111162200D01*
X142141869Y-111114893D01*
X142365897Y-111022098D01*
X142567517Y-110887380D01*
X142738980Y-110715917D01*
X142873698Y-110514297D01*
X142966493Y-110290269D01*
X143013800Y-110052443D01*
X143013800Y-109809957D01*
X143091800Y-109809957D01*
X143091800Y-110052443D01*
X143139107Y-110290269D01*
X143231902Y-110514297D01*
X143366620Y-110715917D01*
X143538083Y-110887380D01*
X143739703Y-111022098D01*
X143963731Y-111114893D01*
X144201557Y-111162200D01*
X144444043Y-111162200D01*
X144681869Y-111114893D01*
X144905897Y-111022098D01*
X145107517Y-110887380D01*
X145278980Y-110715917D01*
X145413698Y-110514297D01*
X145506493Y-110290269D01*
X145553800Y-110052443D01*
X145553800Y-109809957D01*
X145506493Y-109572131D01*
X145413698Y-109348103D01*
X145278980Y-109146483D01*
X145107517Y-108975020D01*
X144905897Y-108840302D01*
X144681869Y-108747507D01*
X144444043Y-108700200D01*
X144201557Y-108700200D01*
X143963731Y-108747507D01*
X143739703Y-108840302D01*
X143538083Y-108975020D01*
X143366620Y-109146483D01*
X143231902Y-109348103D01*
X143139107Y-109572131D01*
X143091800Y-109809957D01*
X143013800Y-109809957D01*
X142966493Y-109572131D01*
X142873698Y-109348103D01*
X142738980Y-109146483D01*
X142567517Y-108975020D01*
X142365897Y-108840302D01*
X142141869Y-108747507D01*
X141904043Y-108700200D01*
X141661557Y-108700200D01*
X141423731Y-108747507D01*
X141199703Y-108840302D01*
X140998083Y-108975020D01*
X140826620Y-109146483D01*
X140691902Y-109348103D01*
X140659968Y-109425200D01*
X140379492Y-109425200D01*
X139676596Y-108722305D01*
X139660747Y-108702993D01*
X139583699Y-108639761D01*
X139495795Y-108592775D01*
X139400413Y-108563842D01*
X139326074Y-108556520D01*
X139326066Y-108556520D01*
X139301220Y-108554073D01*
X139276374Y-108556520D01*
X138551771Y-108556520D01*
X139211092Y-107897200D01*
X140659968Y-107897200D01*
X140691902Y-107974297D01*
X140826620Y-108175917D01*
X140998083Y-108347380D01*
X141199703Y-108482098D01*
X141423731Y-108574893D01*
X141661557Y-108622200D01*
X141904043Y-108622200D01*
X142141869Y-108574893D01*
X142365897Y-108482098D01*
X142567517Y-108347380D01*
X142738980Y-108175917D01*
X142873698Y-107974297D01*
X142966493Y-107750269D01*
X143013800Y-107512443D01*
X143013800Y-107269957D01*
X143091800Y-107269957D01*
X143091800Y-107512443D01*
X143139107Y-107750269D01*
X143231902Y-107974297D01*
X143366620Y-108175917D01*
X143538083Y-108347380D01*
X143739703Y-108482098D01*
X143963731Y-108574893D01*
X144201557Y-108622200D01*
X144444043Y-108622200D01*
X144681869Y-108574893D01*
X144905897Y-108482098D01*
X145107517Y-108347380D01*
X145278980Y-108175917D01*
X145413698Y-107974297D01*
X145506493Y-107750269D01*
X145553800Y-107512443D01*
X145553800Y-107269957D01*
X145506493Y-107032131D01*
X145413698Y-106808103D01*
X145278980Y-106606483D01*
X145107517Y-106435020D01*
X144905897Y-106300302D01*
X144681869Y-106207507D01*
X144444043Y-106160200D01*
X144201557Y-106160200D01*
X143963731Y-106207507D01*
X143739703Y-106300302D01*
X143538083Y-106435020D01*
X143366620Y-106606483D01*
X143231902Y-106808103D01*
X143139107Y-107032131D01*
X143091800Y-107269957D01*
X143013800Y-107269957D01*
X142966493Y-107032131D01*
X142873698Y-106808103D01*
X142738980Y-106606483D01*
X142567517Y-106435020D01*
X142365897Y-106300302D01*
X142141869Y-106207507D01*
X141904043Y-106160200D01*
X141661557Y-106160200D01*
X141423731Y-106207507D01*
X141199703Y-106300302D01*
X140998083Y-106435020D01*
X140826620Y-106606483D01*
X140691902Y-106808103D01*
X140659968Y-106885200D01*
X139026354Y-106885200D01*
X139001500Y-106882752D01*
X138976646Y-106885200D01*
X138902307Y-106892522D01*
X138806925Y-106921455D01*
X138719021Y-106968441D01*
X138641973Y-107031673D01*
X138626128Y-107050980D01*
X137859729Y-107817380D01*
X134266423Y-107817380D01*
X134266423Y-107773380D01*
X134259067Y-107698691D01*
X134237281Y-107626872D01*
X134236216Y-107624880D01*
X134237281Y-107622888D01*
X134259067Y-107551069D01*
X134266423Y-107476380D01*
X134266423Y-107432380D01*
X137650774Y-107432380D01*
X137675620Y-107434827D01*
X137700466Y-107432380D01*
X137700474Y-107432380D01*
X137774813Y-107425058D01*
X137870195Y-107396125D01*
X137958099Y-107349139D01*
X138035147Y-107285907D01*
X138050996Y-107266595D01*
X139960392Y-105357200D01*
X140659968Y-105357200D01*
X140691902Y-105434297D01*
X140826620Y-105635917D01*
X140998083Y-105807380D01*
X141199703Y-105942098D01*
X141423731Y-106034893D01*
X141661557Y-106082200D01*
X141904043Y-106082200D01*
X142141869Y-106034893D01*
X142365897Y-105942098D01*
X142567517Y-105807380D01*
X142738980Y-105635917D01*
X142873698Y-105434297D01*
X142966493Y-105210269D01*
X143013800Y-104972443D01*
X143013800Y-104729957D01*
X143091800Y-104729957D01*
X143091800Y-104972443D01*
X143139107Y-105210269D01*
X143231902Y-105434297D01*
X143366620Y-105635917D01*
X143538083Y-105807380D01*
X143739703Y-105942098D01*
X143963731Y-106034893D01*
X144201557Y-106082200D01*
X144444043Y-106082200D01*
X144681869Y-106034893D01*
X144905897Y-105942098D01*
X145107517Y-105807380D01*
X145278980Y-105635917D01*
X145413698Y-105434297D01*
X145506493Y-105210269D01*
X145553800Y-104972443D01*
X145553800Y-104729957D01*
X145506493Y-104492131D01*
X145413698Y-104268103D01*
X145278980Y-104066483D01*
X145107517Y-103895020D01*
X144905897Y-103760302D01*
X144681869Y-103667507D01*
X144444043Y-103620200D01*
X144201557Y-103620200D01*
X143963731Y-103667507D01*
X143739703Y-103760302D01*
X143538083Y-103895020D01*
X143366620Y-104066483D01*
X143231902Y-104268103D01*
X143139107Y-104492131D01*
X143091800Y-104729957D01*
X143013800Y-104729957D01*
X142966493Y-104492131D01*
X142873698Y-104268103D01*
X142738980Y-104066483D01*
X142567517Y-103895020D01*
X142365897Y-103760302D01*
X142141869Y-103667507D01*
X141904043Y-103620200D01*
X141661557Y-103620200D01*
X141423731Y-103667507D01*
X141199703Y-103760302D01*
X140998083Y-103895020D01*
X140826620Y-104066483D01*
X140691902Y-104268103D01*
X140659968Y-104345200D01*
X139775654Y-104345200D01*
X139750800Y-104342752D01*
X139725946Y-104345200D01*
X139651607Y-104352522D01*
X139556225Y-104381455D01*
X139468321Y-104428441D01*
X139391273Y-104491673D01*
X139375428Y-104510980D01*
X137466029Y-106420380D01*
X134266423Y-106420380D01*
X134266423Y-106376380D01*
X134259067Y-106301691D01*
X134237281Y-106229872D01*
X134236216Y-106227880D01*
X134237281Y-106225888D01*
X134259067Y-106154069D01*
X134266423Y-106079380D01*
X134266423Y-106035380D01*
X134679359Y-106035380D01*
X134780001Y-106136022D01*
X134907918Y-106221493D01*
X135050051Y-106280367D01*
X135200938Y-106310380D01*
X135354782Y-106310380D01*
X135505669Y-106280367D01*
X135647802Y-106221493D01*
X135775719Y-106136022D01*
X135884502Y-106027239D01*
X135969973Y-105899322D01*
X136028847Y-105757189D01*
X136058860Y-105606302D01*
X136058860Y-105452458D01*
X136028847Y-105301571D01*
X135969973Y-105159438D01*
X135884502Y-105031521D01*
X135775719Y-104922738D01*
X135647802Y-104837267D01*
X135505669Y-104778393D01*
X135354782Y-104748380D01*
X135200938Y-104748380D01*
X135050051Y-104778393D01*
X134907918Y-104837267D01*
X134780001Y-104922738D01*
X134679359Y-105023380D01*
X134266423Y-105023380D01*
X134266423Y-104979380D01*
X134259067Y-104904691D01*
X134237281Y-104832872D01*
X134236216Y-104830880D01*
X134237281Y-104828888D01*
X134259067Y-104757069D01*
X134266423Y-104682380D01*
X134266423Y-104638380D01*
X135849914Y-104638380D01*
X135874760Y-104640827D01*
X135899606Y-104638380D01*
X135899614Y-104638380D01*
X135973953Y-104631058D01*
X136069335Y-104602125D01*
X136157239Y-104555139D01*
X136234287Y-104491907D01*
X136250136Y-104472595D01*
X138532774Y-102189957D01*
X140551800Y-102189957D01*
X140551800Y-102432443D01*
X140599107Y-102670269D01*
X140691902Y-102894297D01*
X140826620Y-103095917D01*
X140998083Y-103267380D01*
X141199703Y-103402098D01*
X141423731Y-103494893D01*
X141661557Y-103542200D01*
X141904043Y-103542200D01*
X142141869Y-103494893D01*
X142365897Y-103402098D01*
X142567517Y-103267380D01*
X142738980Y-103095917D01*
X142873698Y-102894297D01*
X142966493Y-102670269D01*
X143013800Y-102432443D01*
X143013800Y-102189957D01*
X143091800Y-102189957D01*
X143091800Y-102432443D01*
X143139107Y-102670269D01*
X143231902Y-102894297D01*
X143366620Y-103095917D01*
X143538083Y-103267380D01*
X143739703Y-103402098D01*
X143963731Y-103494893D01*
X144201557Y-103542200D01*
X144444043Y-103542200D01*
X144681869Y-103494893D01*
X144905897Y-103402098D01*
X145107517Y-103267380D01*
X145278980Y-103095917D01*
X145413698Y-102894297D01*
X145506493Y-102670269D01*
X145553800Y-102432443D01*
X145553800Y-102189957D01*
X145506493Y-101952131D01*
X145413698Y-101728103D01*
X145278980Y-101526483D01*
X145107517Y-101355020D01*
X144905897Y-101220302D01*
X144681869Y-101127507D01*
X144444043Y-101080200D01*
X144201557Y-101080200D01*
X143963731Y-101127507D01*
X143739703Y-101220302D01*
X143538083Y-101355020D01*
X143366620Y-101526483D01*
X143231902Y-101728103D01*
X143139107Y-101952131D01*
X143091800Y-102189957D01*
X143013800Y-102189957D01*
X142966493Y-101952131D01*
X142873698Y-101728103D01*
X142738980Y-101526483D01*
X142567517Y-101355020D01*
X142365897Y-101220302D01*
X142141869Y-101127507D01*
X141904043Y-101080200D01*
X141661557Y-101080200D01*
X141423731Y-101127507D01*
X141199703Y-101220302D01*
X140998083Y-101355020D01*
X140826620Y-101526483D01*
X140691902Y-101728103D01*
X140599107Y-101952131D01*
X140551800Y-102189957D01*
X138532774Y-102189957D01*
X140445532Y-100277200D01*
X140659968Y-100277200D01*
X140691902Y-100354297D01*
X140826620Y-100555917D01*
X140998083Y-100727380D01*
X141199703Y-100862098D01*
X141423731Y-100954893D01*
X141661557Y-101002200D01*
X141904043Y-101002200D01*
X142141869Y-100954893D01*
X142365897Y-100862098D01*
X142567517Y-100727380D01*
X142738980Y-100555917D01*
X142873698Y-100354297D01*
X142966493Y-100130269D01*
X143013800Y-99892443D01*
X143013800Y-99649957D01*
X143091800Y-99649957D01*
X143091800Y-99892443D01*
X143139107Y-100130269D01*
X143231902Y-100354297D01*
X143366620Y-100555917D01*
X143538083Y-100727380D01*
X143739703Y-100862098D01*
X143963731Y-100954893D01*
X144201557Y-101002200D01*
X144444043Y-101002200D01*
X144681869Y-100954893D01*
X144905897Y-100862098D01*
X145107517Y-100727380D01*
X145278980Y-100555917D01*
X145413698Y-100354297D01*
X145506493Y-100130269D01*
X145553800Y-99892443D01*
X145553800Y-99649957D01*
X145506493Y-99412131D01*
X145413698Y-99188103D01*
X145278980Y-98986483D01*
X145107517Y-98815020D01*
X144905897Y-98680302D01*
X144681869Y-98587507D01*
X144444043Y-98540200D01*
X144201557Y-98540200D01*
X143963731Y-98587507D01*
X143739703Y-98680302D01*
X143538083Y-98815020D01*
X143366620Y-98986483D01*
X143231902Y-99188103D01*
X143139107Y-99412131D01*
X143091800Y-99649957D01*
X143013800Y-99649957D01*
X142966493Y-99412131D01*
X142873698Y-99188103D01*
X142738980Y-98986483D01*
X142567517Y-98815020D01*
X142365897Y-98680302D01*
X142141869Y-98587507D01*
X141904043Y-98540200D01*
X141661557Y-98540200D01*
X141423731Y-98587507D01*
X141199703Y-98680302D01*
X140998083Y-98815020D01*
X140826620Y-98986483D01*
X140691902Y-99188103D01*
X140659968Y-99265200D01*
X140464392Y-99265200D01*
X141346634Y-98382958D01*
X141423731Y-98414893D01*
X141661557Y-98462200D01*
X141904043Y-98462200D01*
X142141869Y-98414893D01*
X142365897Y-98322098D01*
X142567517Y-98187380D01*
X142738980Y-98015917D01*
X142873698Y-97814297D01*
X142966493Y-97590269D01*
X143013800Y-97352443D01*
X143013800Y-97109957D01*
X143091800Y-97109957D01*
X143091800Y-97352443D01*
X143139107Y-97590269D01*
X143231902Y-97814297D01*
X143366620Y-98015917D01*
X143538083Y-98187380D01*
X143739703Y-98322098D01*
X143963731Y-98414893D01*
X144201557Y-98462200D01*
X144444043Y-98462200D01*
X144681869Y-98414893D01*
X144905897Y-98322098D01*
X145107517Y-98187380D01*
X145278980Y-98015917D01*
X145413698Y-97814297D01*
X145506493Y-97590269D01*
X145553800Y-97352443D01*
X145553800Y-97109957D01*
X145506493Y-96872131D01*
X145413698Y-96648103D01*
X145278980Y-96446483D01*
X145107517Y-96275020D01*
X144905897Y-96140302D01*
X144681869Y-96047507D01*
X144444043Y-96000200D01*
X144201557Y-96000200D01*
X143963731Y-96047507D01*
X143739703Y-96140302D01*
X143538083Y-96275020D01*
X143366620Y-96446483D01*
X143231902Y-96648103D01*
X143139107Y-96872131D01*
X143091800Y-97109957D01*
X143013800Y-97109957D01*
X142966493Y-96872131D01*
X142873698Y-96648103D01*
X142738980Y-96446483D01*
X142567517Y-96275020D01*
X142365897Y-96140302D01*
X142141869Y-96047507D01*
X141904043Y-96000200D01*
X141661557Y-96000200D01*
X141423731Y-96047507D01*
X141199703Y-96140302D01*
X140998083Y-96275020D01*
X140826620Y-96446483D01*
X140691902Y-96648103D01*
X140599107Y-96872131D01*
X140551800Y-97109957D01*
X140551800Y-97352443D01*
X140599107Y-97590269D01*
X140631042Y-97667366D01*
X136069029Y-102229380D01*
X134266423Y-102229380D01*
X134266423Y-102185380D01*
X134259067Y-102110691D01*
X134237281Y-102038872D01*
X134236216Y-102036880D01*
X134237281Y-102034888D01*
X134259067Y-101963069D01*
X134266423Y-101888380D01*
X134266423Y-101844380D01*
X135217454Y-101844380D01*
X135242300Y-101846827D01*
X135267146Y-101844380D01*
X135267154Y-101844380D01*
X135341493Y-101837058D01*
X135436875Y-101808125D01*
X135524779Y-101761139D01*
X135580366Y-101715520D01*
X135723082Y-101715520D01*
X135873969Y-101685507D01*
X136016102Y-101626633D01*
X136144019Y-101541162D01*
X136252802Y-101432379D01*
X136338273Y-101304462D01*
X136397147Y-101162329D01*
X136427160Y-101011442D01*
X136427160Y-100857598D01*
X136397147Y-100706711D01*
X136338273Y-100564578D01*
X136259964Y-100447380D01*
X137071654Y-100447380D01*
X137096500Y-100449827D01*
X137121346Y-100447380D01*
X137121354Y-100447380D01*
X137195693Y-100440058D01*
X137291075Y-100411125D01*
X137378979Y-100364139D01*
X137456027Y-100300907D01*
X137471876Y-100281595D01*
X137483211Y-100270260D01*
X137625542Y-100270260D01*
X137776429Y-100240247D01*
X137918562Y-100181373D01*
X138046479Y-100095902D01*
X138155262Y-99987119D01*
X138240733Y-99859202D01*
X138299607Y-99717069D01*
X138329620Y-99566182D01*
X138329620Y-99412338D01*
X138299607Y-99261451D01*
X138240733Y-99119318D01*
X138155262Y-98991401D01*
X138046479Y-98882618D01*
X137918562Y-98797147D01*
X137776429Y-98738273D01*
X137625542Y-98708260D01*
X137471698Y-98708260D01*
X137320811Y-98738273D01*
X137178678Y-98797147D01*
X137050761Y-98882618D01*
X136941978Y-98991401D01*
X136856507Y-99119318D01*
X136797633Y-99261451D01*
X136767620Y-99412338D01*
X136767620Y-99435380D01*
X134266423Y-99435380D01*
X134266423Y-99391380D01*
X134259067Y-99316691D01*
X134237281Y-99244872D01*
X134236216Y-99242880D01*
X134237281Y-99240888D01*
X134259067Y-99169069D01*
X134266423Y-99094380D01*
X134266423Y-99050380D01*
X134773339Y-99050380D01*
X134873981Y-99151022D01*
X135001898Y-99236493D01*
X135144031Y-99295367D01*
X135294918Y-99325380D01*
X135448762Y-99325380D01*
X135599649Y-99295367D01*
X135741782Y-99236493D01*
X135869699Y-99151022D01*
X135978482Y-99042239D01*
X136063953Y-98914322D01*
X136122827Y-98772189D01*
X136152840Y-98621302D01*
X136152840Y-98467458D01*
X136122827Y-98316571D01*
X136063953Y-98174438D01*
X135978482Y-98046521D01*
X135869699Y-97937738D01*
X135741782Y-97852267D01*
X135599649Y-97793393D01*
X135448762Y-97763380D01*
X135294918Y-97763380D01*
X135144031Y-97793393D01*
X135001898Y-97852267D01*
X134873981Y-97937738D01*
X134773339Y-98038380D01*
X134266423Y-98038380D01*
X134266423Y-97994380D01*
X134259067Y-97919691D01*
X134237281Y-97847872D01*
X134236216Y-97845880D01*
X134237281Y-97843888D01*
X134259067Y-97772069D01*
X134266423Y-97697380D01*
X134266423Y-97653380D01*
X136759234Y-97653380D01*
X136784080Y-97655827D01*
X136808926Y-97653380D01*
X136808934Y-97653380D01*
X136883273Y-97646058D01*
X136978655Y-97617125D01*
X137066559Y-97570139D01*
X137143607Y-97506907D01*
X137159456Y-97487595D01*
X139449852Y-95197200D01*
X140659968Y-95197200D01*
X140691902Y-95274297D01*
X140826620Y-95475917D01*
X140998083Y-95647380D01*
X141199703Y-95782098D01*
X141423731Y-95874893D01*
X141661557Y-95922200D01*
X141904043Y-95922200D01*
X142141869Y-95874893D01*
X142365897Y-95782098D01*
X142567517Y-95647380D01*
X142738980Y-95475917D01*
X142873698Y-95274297D01*
X142966493Y-95050269D01*
X143013800Y-94812443D01*
X143013800Y-94569957D01*
X143091800Y-94569957D01*
X143091800Y-94812443D01*
X143139107Y-95050269D01*
X143231902Y-95274297D01*
X143366620Y-95475917D01*
X143538083Y-95647380D01*
X143739703Y-95782098D01*
X143963731Y-95874893D01*
X144201557Y-95922200D01*
X144444043Y-95922200D01*
X144681869Y-95874893D01*
X144905897Y-95782098D01*
X145107517Y-95647380D01*
X145278980Y-95475917D01*
X145413698Y-95274297D01*
X145506493Y-95050269D01*
X145553800Y-94812443D01*
X145553800Y-94569957D01*
X145506493Y-94332131D01*
X145413698Y-94108103D01*
X145278980Y-93906483D01*
X145107517Y-93735020D01*
X144905897Y-93600302D01*
X144681869Y-93507507D01*
X144444043Y-93460200D01*
X144201557Y-93460200D01*
X143963731Y-93507507D01*
X143739703Y-93600302D01*
X143538083Y-93735020D01*
X143366620Y-93906483D01*
X143231902Y-94108103D01*
X143139107Y-94332131D01*
X143091800Y-94569957D01*
X143013800Y-94569957D01*
X142966493Y-94332131D01*
X142873698Y-94108103D01*
X142738980Y-93906483D01*
X142567517Y-93735020D01*
X142365897Y-93600302D01*
X142141869Y-93507507D01*
X141904043Y-93460200D01*
X141661557Y-93460200D01*
X141423731Y-93507507D01*
X141199703Y-93600302D01*
X140998083Y-93735020D01*
X140826620Y-93906483D01*
X140691902Y-94108103D01*
X140659968Y-94185200D01*
X139265105Y-94185200D01*
X139240259Y-94182753D01*
X139215413Y-94185200D01*
X139215406Y-94185200D01*
X139141067Y-94192522D01*
X139045685Y-94221455D01*
X138957781Y-94268441D01*
X138880733Y-94331673D01*
X138864888Y-94350980D01*
X136574489Y-96641380D01*
X135998177Y-96641380D01*
X136009399Y-96633882D01*
X136118182Y-96525099D01*
X136203653Y-96397182D01*
X136262527Y-96255049D01*
X136292540Y-96104162D01*
X136292540Y-95950318D01*
X136262527Y-95799431D01*
X136203653Y-95657298D01*
X136140663Y-95563026D01*
X136206602Y-95535713D01*
X136334519Y-95450242D01*
X136443302Y-95341459D01*
X136528773Y-95213542D01*
X136587647Y-95071409D01*
X136617660Y-94920522D01*
X136617660Y-94766678D01*
X136610993Y-94733158D01*
X136636038Y-94738140D01*
X136789882Y-94738140D01*
X136940769Y-94708127D01*
X137082902Y-94649253D01*
X137210819Y-94563782D01*
X137319602Y-94454999D01*
X137405073Y-94327082D01*
X137463947Y-94184949D01*
X137493960Y-94034062D01*
X137493960Y-93880218D01*
X137463947Y-93729331D01*
X137405073Y-93587198D01*
X137319602Y-93459281D01*
X137210819Y-93350498D01*
X137082902Y-93265027D01*
X136940769Y-93206153D01*
X136789882Y-93176140D01*
X136647552Y-93176140D01*
X136087576Y-92616165D01*
X136071727Y-92596853D01*
X135994679Y-92533621D01*
X135906775Y-92486635D01*
X135811393Y-92457702D01*
X135737054Y-92450380D01*
X135737046Y-92450380D01*
X135712200Y-92447933D01*
X135687354Y-92450380D01*
X134266423Y-92450380D01*
X134266423Y-92406380D01*
X134259067Y-92331691D01*
X134237281Y-92259872D01*
X134201902Y-92193684D01*
X134154291Y-92135669D01*
X134096276Y-92088058D01*
X134030088Y-92052679D01*
X133958269Y-92030893D01*
X133883580Y-92023537D01*
X131683580Y-92023537D01*
X131608891Y-92030893D01*
X131537072Y-92052679D01*
X131470884Y-92088058D01*
X131412869Y-92135669D01*
X131365258Y-92193684D01*
X131329879Y-92259872D01*
X131308093Y-92331691D01*
X131300737Y-92406380D01*
X131049423Y-92406380D01*
X131049423Y-91094380D01*
X131042067Y-91019691D01*
X131020281Y-90947872D01*
X130984902Y-90881684D01*
X130937291Y-90823669D01*
X130879276Y-90776058D01*
X130813088Y-90740679D01*
X130741269Y-90718893D01*
X130666580Y-90711537D01*
X129566580Y-90711537D01*
X129491891Y-90718893D01*
X129420072Y-90740679D01*
X129418080Y-90741744D01*
X129416088Y-90740679D01*
X129344269Y-90718893D01*
X129269580Y-90711537D01*
X128169580Y-90711537D01*
X128094891Y-90718893D01*
X128023072Y-90740679D01*
X128021080Y-90741744D01*
X128019088Y-90740679D01*
X127947269Y-90718893D01*
X127872580Y-90711537D01*
X127863541Y-90711537D01*
X127870429Y-90710167D01*
X128012562Y-90651293D01*
X128140479Y-90565822D01*
X128249262Y-90457039D01*
X128334733Y-90329122D01*
X128393607Y-90186989D01*
X128423620Y-90036102D01*
X128423620Y-89882258D01*
X128393607Y-89731371D01*
X128334733Y-89589238D01*
X128249262Y-89461321D01*
X128148221Y-89360280D01*
X133008329Y-89360280D01*
X134917728Y-91269680D01*
X134933573Y-91288987D01*
X135010621Y-91352219D01*
X135068210Y-91383001D01*
X135098525Y-91399205D01*
X135193907Y-91428138D01*
X135293100Y-91437908D01*
X135317954Y-91435460D01*
X140780531Y-91435460D01*
X140691902Y-91568103D01*
X140599107Y-91792131D01*
X140551800Y-92029957D01*
X140551800Y-92272443D01*
X140599107Y-92510269D01*
X140691902Y-92734297D01*
X140826620Y-92935917D01*
X140998083Y-93107380D01*
X141199703Y-93242098D01*
X141423731Y-93334893D01*
X141661557Y-93382200D01*
X141904043Y-93382200D01*
X142141869Y-93334893D01*
X142365897Y-93242098D01*
X142567517Y-93107380D01*
X142738980Y-92935917D01*
X142873698Y-92734297D01*
X142966493Y-92510269D01*
X143013800Y-92272443D01*
X143013800Y-92029957D01*
X142966493Y-91792131D01*
X142873698Y-91568103D01*
X142785069Y-91435460D01*
X142891469Y-91435460D01*
X143171042Y-91715033D01*
X143139107Y-91792131D01*
X143091800Y-92029957D01*
X143091800Y-92272443D01*
X143139107Y-92510269D01*
X143231902Y-92734297D01*
X143366620Y-92935917D01*
X143538083Y-93107380D01*
X143739703Y-93242098D01*
X143963731Y-93334893D01*
X144201557Y-93382200D01*
X144444043Y-93382200D01*
X144681869Y-93334893D01*
X144905897Y-93242098D01*
X145107517Y-93107380D01*
X145278980Y-92935917D01*
X145413698Y-92734297D01*
X145506493Y-92510269D01*
X145553800Y-92272443D01*
X145553800Y-92029957D01*
X145506493Y-91792131D01*
X145413698Y-91568103D01*
X145278980Y-91366483D01*
X145107517Y-91195020D01*
X144905897Y-91060302D01*
X144681869Y-90967507D01*
X144444043Y-90920200D01*
X144201557Y-90920200D01*
X143963731Y-90967507D01*
X143886633Y-90999442D01*
X143476436Y-90589245D01*
X143460587Y-90569933D01*
X143383539Y-90506701D01*
X143295635Y-90459715D01*
X143200253Y-90430782D01*
X143125914Y-90423460D01*
X143125906Y-90423460D01*
X143101060Y-90421013D01*
X143076214Y-90423460D01*
X142928402Y-90423460D01*
X143060272Y-90382357D01*
X143186171Y-90118317D01*
X143191589Y-90096972D01*
X143231902Y-90194297D01*
X143366620Y-90395917D01*
X143538083Y-90567380D01*
X143739703Y-90702098D01*
X143963731Y-90794893D01*
X144201557Y-90842200D01*
X144444043Y-90842200D01*
X144681869Y-90794893D01*
X144905897Y-90702098D01*
X145107517Y-90567380D01*
X145278980Y-90395917D01*
X145413698Y-90194297D01*
X145506493Y-89970269D01*
X145553800Y-89732443D01*
X145553800Y-89489957D01*
X145506493Y-89252131D01*
X145413698Y-89028103D01*
X145278980Y-88826483D01*
X145107517Y-88655020D01*
X144905897Y-88520302D01*
X144681869Y-88427507D01*
X144444043Y-88380200D01*
X144201557Y-88380200D01*
X143963731Y-88427507D01*
X143739703Y-88520302D01*
X143538083Y-88655020D01*
X143366620Y-88826483D01*
X143231902Y-89028103D01*
X143188652Y-89132517D01*
X143133719Y-88977453D01*
X143060272Y-88840043D01*
X142811197Y-88762408D01*
X141962405Y-89611200D01*
X141976548Y-89625343D01*
X141796943Y-89804948D01*
X141782800Y-89790805D01*
X141768658Y-89804948D01*
X141589053Y-89625343D01*
X141603195Y-89611200D01*
X140754403Y-88762408D01*
X140505328Y-88840043D01*
X140379429Y-89104083D01*
X140307461Y-89387611D01*
X140292189Y-89679731D01*
X140334201Y-89969219D01*
X140431881Y-90244947D01*
X140505328Y-90382357D01*
X140637198Y-90423460D01*
X135502692Y-90423460D01*
X133662035Y-88582803D01*
X140934008Y-88582803D01*
X141782800Y-89431595D01*
X142631592Y-88582803D01*
X142553957Y-88333728D01*
X142289917Y-88207829D01*
X142006389Y-88135861D01*
X141714269Y-88120589D01*
X141424781Y-88162601D01*
X141149053Y-88260281D01*
X141011643Y-88333728D01*
X140934008Y-88582803D01*
X133662035Y-88582803D01*
X133593296Y-88514065D01*
X133577447Y-88494753D01*
X133500399Y-88431521D01*
X133412495Y-88384535D01*
X133317113Y-88355602D01*
X133242774Y-88348280D01*
X133242766Y-88348280D01*
X133217920Y-88345833D01*
X133193074Y-88348280D01*
X125825965Y-88348280D01*
X125801119Y-88345833D01*
X125776273Y-88348280D01*
X125776266Y-88348280D01*
X125711814Y-88354628D01*
X125701926Y-88355602D01*
X125694562Y-88357836D01*
X125606545Y-88384535D01*
X125518641Y-88431521D01*
X125441593Y-88494753D01*
X125425748Y-88514060D01*
X124188360Y-89751449D01*
X124169054Y-89767293D01*
X124105822Y-89844341D01*
X124088852Y-89876089D01*
X124058835Y-89932246D01*
X124029902Y-90027628D01*
X124020133Y-90126820D01*
X124022581Y-90151676D01*
X124022581Y-90711537D01*
X123978580Y-90711537D01*
X123903891Y-90718893D01*
X123832072Y-90740679D01*
X123830080Y-90741744D01*
X123828088Y-90740679D01*
X123756269Y-90718893D01*
X123688380Y-90712207D01*
X123688380Y-90550061D01*
X123789022Y-90449419D01*
X123874493Y-90321502D01*
X123933367Y-90179369D01*
X123963380Y-90028482D01*
X123963380Y-89874638D01*
X123933367Y-89723751D01*
X123874493Y-89581618D01*
X123789022Y-89453701D01*
X123680239Y-89344918D01*
X123552322Y-89259447D01*
X123410189Y-89200573D01*
X123259302Y-89170560D01*
X123105458Y-89170560D01*
X122954571Y-89200573D01*
X122812438Y-89259447D01*
X122684521Y-89344918D01*
X122575738Y-89453701D01*
X122490267Y-89581618D01*
X122431393Y-89723751D01*
X122401380Y-89874638D01*
X122401380Y-90028482D01*
X122431393Y-90179369D01*
X122490267Y-90321502D01*
X122575738Y-90449419D01*
X122676380Y-90550061D01*
X122676380Y-90711537D01*
X122581580Y-90711537D01*
X122506891Y-90718893D01*
X122435072Y-90740679D01*
X122433080Y-90741744D01*
X122431088Y-90740679D01*
X122359269Y-90718893D01*
X122284580Y-90711537D01*
X122240580Y-90711537D01*
X122240580Y-90406222D01*
X122281913Y-90344362D01*
X122340787Y-90202229D01*
X122370800Y-90051342D01*
X122370800Y-89897498D01*
X122340787Y-89746611D01*
X122281913Y-89604478D01*
X122196442Y-89476561D01*
X122087659Y-89367778D01*
X121959742Y-89282307D01*
X121817609Y-89223433D01*
X121666722Y-89193420D01*
X121512878Y-89193420D01*
X121361991Y-89223433D01*
X121219858Y-89282307D01*
X121091941Y-89367778D01*
X120983158Y-89476561D01*
X120897687Y-89604478D01*
X120838813Y-89746611D01*
X120808800Y-89897498D01*
X120808800Y-90051342D01*
X120838813Y-90202229D01*
X120897687Y-90344362D01*
X120978468Y-90465259D01*
X120887580Y-90456308D01*
X120623330Y-90459380D01*
X120464580Y-90618130D01*
X120210580Y-90618130D01*
X120051830Y-90459380D01*
X119787580Y-90456308D01*
X119663098Y-90468568D01*
X119543400Y-90504878D01*
X119433086Y-90563843D01*
X119336395Y-90643195D01*
X119280308Y-90711537D01*
X118390580Y-90711537D01*
X118315891Y-90718893D01*
X118244072Y-90740679D01*
X118242080Y-90741744D01*
X118240088Y-90740679D01*
X118168269Y-90718893D01*
X118093580Y-90711537D01*
X116993580Y-90711537D01*
X116918891Y-90718893D01*
X116847072Y-90740679D01*
X116845080Y-90741744D01*
X116843088Y-90740679D01*
X116771269Y-90718893D01*
X116696580Y-90711537D01*
X115596580Y-90711537D01*
X115521891Y-90718893D01*
X115450072Y-90740679D01*
X115383884Y-90776058D01*
X115325869Y-90823669D01*
X115278258Y-90881684D01*
X115242879Y-90947872D01*
X115221093Y-91019691D01*
X115213737Y-91094380D01*
X115213737Y-91299760D01*
X111439414Y-91299760D01*
X111414560Y-91297312D01*
X111389706Y-91299760D01*
X111315367Y-91307082D01*
X111219985Y-91336015D01*
X111132081Y-91383001D01*
X111055033Y-91446233D01*
X111039188Y-91465540D01*
X109721609Y-92783120D01*
X105908483Y-92783120D01*
X106005598Y-92637777D01*
X106098393Y-92413749D01*
X106145700Y-92175923D01*
X106145700Y-91933437D01*
X106098393Y-91695611D01*
X106005598Y-91471583D01*
X105870880Y-91269963D01*
X105699417Y-91098500D01*
X105497797Y-90963782D01*
X105383532Y-90916452D01*
X105545952Y-90858837D01*
X105796055Y-90709858D01*
X106012288Y-90514949D01*
X106055727Y-90456711D01*
X107616000Y-90456711D01*
X107616000Y-90797689D01*
X107682521Y-91132114D01*
X107813007Y-91447136D01*
X108002444Y-91730648D01*
X108243552Y-91971756D01*
X108527064Y-92161193D01*
X108842086Y-92291679D01*
X109176511Y-92358200D01*
X109517489Y-92358200D01*
X109851914Y-92291679D01*
X110166936Y-92161193D01*
X110450448Y-91971756D01*
X110691556Y-91730648D01*
X110880993Y-91447136D01*
X111011479Y-91132114D01*
X111078000Y-90797689D01*
X111078000Y-90456711D01*
X111011479Y-90122286D01*
X110880993Y-89807264D01*
X110691556Y-89523752D01*
X110450448Y-89282644D01*
X110166936Y-89093207D01*
X109851914Y-88962721D01*
X109517489Y-88896200D01*
X109176511Y-88896200D01*
X108842086Y-88962721D01*
X108527064Y-89093207D01*
X108243552Y-89282644D01*
X108002444Y-89523752D01*
X107813007Y-89807264D01*
X107682521Y-90122286D01*
X107616000Y-90456711D01*
X106055727Y-90456711D01*
X106186341Y-90281600D01*
X106311525Y-90018779D01*
X106356176Y-89871570D01*
X106234855Y-89641680D01*
X105041700Y-89641680D01*
X105041700Y-89661680D01*
X104787700Y-89661680D01*
X104787700Y-89641680D01*
X104767700Y-89641680D01*
X104767700Y-89387680D01*
X104787700Y-89387680D01*
X104787700Y-89367680D01*
X105041700Y-89367680D01*
X105041700Y-89387680D01*
X106234855Y-89387680D01*
X106356176Y-89157790D01*
X106311525Y-89010581D01*
X106186341Y-88747760D01*
X106012288Y-88514411D01*
X105796055Y-88319502D01*
X105545952Y-88170523D01*
X105271591Y-88073199D01*
X105041702Y-88193865D01*
X105041702Y-88036000D01*
X152195261Y-88036000D01*
X152262119Y-88064654D01*
X152349169Y-88083159D01*
X152355502Y-88083824D01*
X152755026Y-88122998D01*
X153096527Y-88226103D01*
X153411496Y-88393575D01*
X153687941Y-88619038D01*
X153915324Y-88893897D01*
X154084994Y-89207695D01*
X154190481Y-89548468D01*
X154232442Y-89947706D01*
X154233669Y-89953682D01*
X154238998Y-90006140D01*
X154265019Y-90091246D01*
X154280000Y-90119184D01*
X154280001Y-111809259D01*
X154251345Y-111876119D01*
X154232841Y-111963170D01*
X154232176Y-111969502D01*
X154193002Y-112369025D01*
X154089897Y-112710527D01*
X153922425Y-113025496D01*
X153696962Y-113301941D01*
X153422101Y-113529325D01*
X153108304Y-113698994D01*
X152767533Y-113804481D01*
X152368294Y-113846442D01*
X152362318Y-113847669D01*
X152309860Y-113852998D01*
X152224754Y-113879019D01*
X152196816Y-113894000D01*
X94692738Y-113894000D01*
X94625881Y-113865345D01*
X94538830Y-113846841D01*
X94532498Y-113846176D01*
X94132975Y-113807002D01*
X93791473Y-113703897D01*
X93476504Y-113536425D01*
X93200059Y-113310962D01*
X92972675Y-113036101D01*
X92803006Y-112722304D01*
X92697519Y-112381533D01*
X92683522Y-112248357D01*
X101131000Y-112248357D01*
X101131000Y-112490843D01*
X101178307Y-112728669D01*
X101271102Y-112952697D01*
X101405820Y-113154317D01*
X101577283Y-113325780D01*
X101778903Y-113460498D01*
X102002931Y-113553293D01*
X102240757Y-113600600D01*
X102483243Y-113600600D01*
X102721069Y-113553293D01*
X102945097Y-113460498D01*
X103146717Y-113325780D01*
X103318180Y-113154317D01*
X103452898Y-112952697D01*
X103545693Y-112728669D01*
X103593000Y-112490843D01*
X103593000Y-112248357D01*
X103545693Y-112010531D01*
X103452898Y-111786503D01*
X103318180Y-111584883D01*
X103146717Y-111413420D01*
X102945097Y-111278702D01*
X102721069Y-111185907D01*
X102483243Y-111138600D01*
X102240757Y-111138600D01*
X102002931Y-111185907D01*
X101778903Y-111278702D01*
X101577283Y-111413420D01*
X101405820Y-111584883D01*
X101271102Y-111786503D01*
X101178307Y-112010531D01*
X101131000Y-112248357D01*
X92683522Y-112248357D01*
X92655558Y-111982294D01*
X92654331Y-111976318D01*
X92649002Y-111923860D01*
X92622981Y-111838754D01*
X92608000Y-111810816D01*
X92608000Y-109708357D01*
X101131000Y-109708357D01*
X101131000Y-109950843D01*
X101178307Y-110188669D01*
X101271102Y-110412697D01*
X101405820Y-110614317D01*
X101577283Y-110785780D01*
X101778903Y-110920498D01*
X102002931Y-111013293D01*
X102240757Y-111060600D01*
X102483243Y-111060600D01*
X102721069Y-111013293D01*
X102945097Y-110920498D01*
X103146717Y-110785780D01*
X103318180Y-110614317D01*
X103452898Y-110412697D01*
X103545693Y-110188669D01*
X103593000Y-109950843D01*
X103593000Y-109708357D01*
X103545693Y-109470531D01*
X103452898Y-109246503D01*
X103318180Y-109044883D01*
X103146717Y-108873420D01*
X102945097Y-108738702D01*
X102721069Y-108645907D01*
X102483243Y-108598600D01*
X102240757Y-108598600D01*
X102002931Y-108645907D01*
X101778903Y-108738702D01*
X101577283Y-108873420D01*
X101405820Y-109044883D01*
X101271102Y-109246503D01*
X101178307Y-109470531D01*
X101131000Y-109708357D01*
X92608000Y-109708357D01*
X92608000Y-107168357D01*
X101131000Y-107168357D01*
X101131000Y-107410843D01*
X101178307Y-107648669D01*
X101271102Y-107872697D01*
X101405820Y-108074317D01*
X101577283Y-108245780D01*
X101778903Y-108380498D01*
X102002931Y-108473293D01*
X102240757Y-108520600D01*
X102483243Y-108520600D01*
X102721069Y-108473293D01*
X102945097Y-108380498D01*
X103146717Y-108245780D01*
X103318180Y-108074317D01*
X103452898Y-107872697D01*
X103545693Y-107648669D01*
X103593000Y-107410843D01*
X103593000Y-107168357D01*
X103545693Y-106930531D01*
X103452898Y-106706503D01*
X103318180Y-106504883D01*
X103146717Y-106333420D01*
X102945097Y-106198702D01*
X102721069Y-106105907D01*
X102483243Y-106058600D01*
X102240757Y-106058600D01*
X102002931Y-106105907D01*
X101778903Y-106198702D01*
X101577283Y-106333420D01*
X101405820Y-106504883D01*
X101271102Y-106706503D01*
X101178307Y-106930531D01*
X101131000Y-107168357D01*
X92608000Y-107168357D01*
X92608000Y-104628357D01*
X101131000Y-104628357D01*
X101131000Y-104870843D01*
X101178307Y-105108669D01*
X101271102Y-105332697D01*
X101405820Y-105534317D01*
X101577283Y-105705780D01*
X101778903Y-105840498D01*
X102002931Y-105933293D01*
X102240757Y-105980600D01*
X102483243Y-105980600D01*
X102721069Y-105933293D01*
X102945097Y-105840498D01*
X103146717Y-105705780D01*
X103318180Y-105534317D01*
X103452898Y-105332697D01*
X103545693Y-105108669D01*
X103593000Y-104870843D01*
X103593000Y-104628357D01*
X103545693Y-104390531D01*
X103452898Y-104166503D01*
X103318180Y-103964883D01*
X103146717Y-103793420D01*
X102945097Y-103658702D01*
X102721069Y-103565907D01*
X102483243Y-103518600D01*
X102240757Y-103518600D01*
X102002931Y-103565907D01*
X101778903Y-103658702D01*
X101577283Y-103793420D01*
X101405820Y-103964883D01*
X101271102Y-104166503D01*
X101178307Y-104390531D01*
X101131000Y-104628357D01*
X92608000Y-104628357D01*
X92608000Y-102088357D01*
X101131000Y-102088357D01*
X101131000Y-102330843D01*
X101178307Y-102568669D01*
X101271102Y-102792697D01*
X101405820Y-102994317D01*
X101577283Y-103165780D01*
X101778903Y-103300498D01*
X102002931Y-103393293D01*
X102240757Y-103440600D01*
X102483243Y-103440600D01*
X102721069Y-103393293D01*
X102945097Y-103300498D01*
X103146717Y-103165780D01*
X103318180Y-102994317D01*
X103452898Y-102792697D01*
X103545693Y-102568669D01*
X103593000Y-102330843D01*
X103593000Y-102093437D01*
X103683700Y-102093437D01*
X103683700Y-102335923D01*
X103731007Y-102573749D01*
X103823802Y-102797777D01*
X103958520Y-102999397D01*
X104129983Y-103170860D01*
X104331603Y-103305578D01*
X104555631Y-103398373D01*
X104793457Y-103445680D01*
X105035943Y-103445680D01*
X105273769Y-103398373D01*
X105497797Y-103305578D01*
X105699417Y-103170860D01*
X105870880Y-102999397D01*
X106005598Y-102797777D01*
X106098393Y-102573749D01*
X106145700Y-102335923D01*
X106145700Y-102093437D01*
X106098393Y-101855611D01*
X106005598Y-101631583D01*
X105870880Y-101429963D01*
X105699417Y-101258500D01*
X105497797Y-101123782D01*
X105273769Y-101030987D01*
X105035943Y-100983680D01*
X104793457Y-100983680D01*
X104555631Y-101030987D01*
X104331603Y-101123782D01*
X104129983Y-101258500D01*
X103958520Y-101429963D01*
X103823802Y-101631583D01*
X103731007Y-101855611D01*
X103683700Y-102093437D01*
X103593000Y-102093437D01*
X103593000Y-102088357D01*
X103545693Y-101850531D01*
X103452898Y-101626503D01*
X103318180Y-101424883D01*
X103146717Y-101253420D01*
X102945097Y-101118702D01*
X102721069Y-101025907D01*
X102483243Y-100978600D01*
X102240757Y-100978600D01*
X102002931Y-101025907D01*
X101778903Y-101118702D01*
X101577283Y-101253420D01*
X101405820Y-101424883D01*
X101271102Y-101626503D01*
X101178307Y-101850531D01*
X101131000Y-102088357D01*
X92608000Y-102088357D01*
X92608000Y-99548357D01*
X101131000Y-99548357D01*
X101131000Y-99790843D01*
X101178307Y-100028669D01*
X101271102Y-100252697D01*
X101405820Y-100454317D01*
X101577283Y-100625780D01*
X101778903Y-100760498D01*
X102002931Y-100853293D01*
X102240757Y-100900600D01*
X102483243Y-100900600D01*
X102721069Y-100853293D01*
X102945097Y-100760498D01*
X103146717Y-100625780D01*
X103318180Y-100454317D01*
X103452898Y-100252697D01*
X103545693Y-100028669D01*
X103593000Y-99790843D01*
X103593000Y-99548357D01*
X103545693Y-99310531D01*
X103452898Y-99086503D01*
X103318180Y-98884883D01*
X103146717Y-98713420D01*
X102945097Y-98578702D01*
X102721069Y-98485907D01*
X102483243Y-98438600D01*
X102240757Y-98438600D01*
X102002931Y-98485907D01*
X101778903Y-98578702D01*
X101577283Y-98713420D01*
X101405820Y-98884883D01*
X101271102Y-99086503D01*
X101178307Y-99310531D01*
X101131000Y-99548357D01*
X92608000Y-99548357D01*
X92608000Y-91928357D01*
X101131000Y-91928357D01*
X101131000Y-92170843D01*
X101178307Y-92408669D01*
X101271102Y-92632697D01*
X101405820Y-92834317D01*
X101577283Y-93005780D01*
X101778903Y-93140498D01*
X102002931Y-93233293D01*
X102240757Y-93280600D01*
X102483243Y-93280600D01*
X102721069Y-93233293D01*
X102945097Y-93140498D01*
X103146717Y-93005780D01*
X103318180Y-92834317D01*
X103452898Y-92632697D01*
X103545693Y-92408669D01*
X103593000Y-92170843D01*
X103593000Y-91928357D01*
X103545693Y-91690531D01*
X103452898Y-91466503D01*
X103318180Y-91264883D01*
X103146717Y-91093420D01*
X102945097Y-90958702D01*
X102721069Y-90865907D01*
X102483243Y-90818600D01*
X102240757Y-90818600D01*
X102002931Y-90865907D01*
X101778903Y-90958702D01*
X101577283Y-91093420D01*
X101405820Y-91264883D01*
X101271102Y-91466503D01*
X101178307Y-91690531D01*
X101131000Y-91928357D01*
X92608000Y-91928357D01*
X92608000Y-90120739D01*
X92636654Y-90053881D01*
X92655159Y-89966831D01*
X92655824Y-89960498D01*
X92694998Y-89560974D01*
X92798103Y-89219473D01*
X92965575Y-88904504D01*
X93191038Y-88628059D01*
X93465897Y-88400676D01*
X93779695Y-88231006D01*
X94120468Y-88125519D01*
X94519706Y-88083558D01*
X94525682Y-88082331D01*
X94578140Y-88077002D01*
X94663246Y-88050981D01*
X94691184Y-88036000D01*
X104787698Y-88036000D01*
X104787698Y-88193865D01*
G37*
G04 #@! TD.AperFunction*
M02*
